<mxfile modified="2023-05-09T03:38:48.245Z" host="app.diagrams.net" agent="Mozilla/5.0 (Windows NT 10.0; Win64; x64) AppleWebKit/537.36 (KHTML, like Gecko) Chrome/112.0.0.0 Safari/537.36" etag="aQL89Tr0SFmSw19onIdI" version="21.2.9" type="github">
  <diagram id="WI9T0HZ2pTsCkuznbFz-" name="Page-1">
    <mxGraphModel dx="1179" dy="1678" grid="1" gridSize="10" guides="1" tooltips="1" connect="1" arrows="1" fold="1" page="1" pageScale="1" pageWidth="827" pageHeight="1169" math="0" shadow="0">
      <root>
        <mxCell id="0" />
        <mxCell id="1" parent="0" />
        <mxCell id="y8VJ0qSuv6ieIUMJYx79-140" value="" style="rounded=0;whiteSpace=wrap;html=1;fillColor=#DBDBDB;strokeColor=none;fontColor=#333333;" vertex="1" parent="1">
          <mxGeometry x="1090" y="350" width="790" height="340" as="geometry" />
        </mxCell>
        <mxCell id="y8VJ0qSuv6ieIUMJYx79-39" style="edgeStyle=orthogonalEdgeStyle;rounded=0;orthogonalLoop=1;jettySize=auto;html=1;entryX=-0.006;entryY=0.209;entryDx=0;entryDy=0;entryPerimeter=0;" edge="1" parent="1" source="yIlqXNv4PA9Dnh1hxRCn-52" target="yIlqXNv4PA9Dnh1hxRCn-51">
          <mxGeometry relative="1" as="geometry">
            <Array as="points">
              <mxPoint x="910" y="421" />
              <mxPoint x="910" y="421" />
            </Array>
          </mxGeometry>
        </mxCell>
        <mxCell id="y8VJ0qSuv6ieIUMJYx79-52" style="edgeStyle=orthogonalEdgeStyle;rounded=0;orthogonalLoop=1;jettySize=auto;html=1;" edge="1" parent="1" source="yIlqXNv4PA9Dnh1hxRCn-52" target="y8VJ0qSuv6ieIUMJYx79-50">
          <mxGeometry relative="1" as="geometry" />
        </mxCell>
        <mxCell id="yIlqXNv4PA9Dnh1hxRCn-52" value="" style="rounded=0;whiteSpace=wrap;html=1;fillColor=#f5f5f5;strokeColor=none;fontColor=#333333;" parent="1" vertex="1">
          <mxGeometry x="500" y="345" width="390" height="315" as="geometry" />
        </mxCell>
        <mxCell id="y8VJ0qSuv6ieIUMJYx79-40" style="edgeStyle=orthogonalEdgeStyle;rounded=0;orthogonalLoop=1;jettySize=auto;html=1;entryX=1;entryY=0.75;entryDx=0;entryDy=0;" edge="1" parent="1" source="yIlqXNv4PA9Dnh1hxRCn-51" target="yIlqXNv4PA9Dnh1hxRCn-52">
          <mxGeometry relative="1" as="geometry">
            <Array as="points">
              <mxPoint x="1010" y="581" />
              <mxPoint x="1010" y="581" />
            </Array>
          </mxGeometry>
        </mxCell>
        <mxCell id="y8VJ0qSuv6ieIUMJYx79-68" style="edgeStyle=orthogonalEdgeStyle;rounded=0;orthogonalLoop=1;jettySize=auto;html=1;entryX=0;entryY=0.25;entryDx=0;entryDy=0;" edge="1" parent="1" source="yIlqXNv4PA9Dnh1hxRCn-51" target="y8VJ0qSuv6ieIUMJYx79-58">
          <mxGeometry relative="1" as="geometry">
            <Array as="points">
              <mxPoint x="1460" y="435" />
              <mxPoint x="1460" y="435" />
            </Array>
          </mxGeometry>
        </mxCell>
        <mxCell id="yIlqXNv4PA9Dnh1hxRCn-51" value="" style="rounded=0;whiteSpace=wrap;html=1;fillColor=#f5f5f5;strokeColor=none;fontColor=#333333;" parent="1" vertex="1">
          <mxGeometry x="1100" y="350" width="340" height="340" as="geometry" />
        </mxCell>
        <mxCell id="yIlqXNv4PA9Dnh1hxRCn-24" value="Virtual Network" style="aspect=fixed;html=1;perimeter=none;align=center;shadow=0;dashed=0;image;fontSize=12;image=img/lib/mscae/Virtual_Network.svg;labelBackgroundColor=none;" parent="1" vertex="1">
          <mxGeometry x="820" y="360" width="50" height="28.499999999999996" as="geometry" />
        </mxCell>
        <mxCell id="y8VJ0qSuv6ieIUMJYx79-35" style="edgeStyle=orthogonalEdgeStyle;rounded=0;orthogonalLoop=1;jettySize=auto;html=1;" edge="1" parent="1" source="yIlqXNv4PA9Dnh1hxRCn-25">
          <mxGeometry relative="1" as="geometry">
            <mxPoint x="1300" y="405" as="targetPoint" />
            <Array as="points">
              <mxPoint x="1175" y="539" />
              <mxPoint x="1170" y="539" />
              <mxPoint x="1170" y="405" />
            </Array>
          </mxGeometry>
        </mxCell>
        <mxCell id="y8VJ0qSuv6ieIUMJYx79-36" style="edgeStyle=orthogonalEdgeStyle;rounded=0;orthogonalLoop=1;jettySize=auto;html=1;" edge="1" parent="1" source="yIlqXNv4PA9Dnh1hxRCn-25">
          <mxGeometry relative="1" as="geometry">
            <mxPoint x="1300" y="544" as="targetPoint" />
            <Array as="points">
              <mxPoint x="1175" y="544" />
            </Array>
          </mxGeometry>
        </mxCell>
        <mxCell id="yIlqXNv4PA9Dnh1hxRCn-25" value="Load&lt;br&gt;Balancer" style="shadow=0;dashed=0;html=1;strokeColor=none;labelPosition=center;verticalLabelPosition=bottom;verticalAlign=top;align=center;shape=mxgraph.mscae.cloud.azure_automatic_load_balancer;fillColor=#0079D6;pointerEvents=1;labelBackgroundColor=#F5F5F5;fontColor=#000000;spacingTop=3;" parent="1" vertex="1">
          <mxGeometry x="1150" y="486" width="50" height="33" as="geometry" />
        </mxCell>
        <mxCell id="yIlqXNv4PA9Dnh1hxRCn-26" value="VPN Gateway" style="aspect=fixed;html=1;perimeter=none;align=center;shadow=0;dashed=0;image;fontSize=12;image=img/lib/mscae/VPN_Gateway.svg;" parent="1" vertex="1">
          <mxGeometry x="670" y="419.5" width="45" height="50" as="geometry" />
        </mxCell>
        <mxCell id="y8VJ0qSuv6ieIUMJYx79-7" style="edgeStyle=orthogonalEdgeStyle;rounded=0;orthogonalLoop=1;jettySize=auto;html=1;" edge="1" parent="1" source="yIlqXNv4PA9Dnh1hxRCn-27" target="y8VJ0qSuv6ieIUMJYx79-6">
          <mxGeometry relative="1" as="geometry" />
        </mxCell>
        <mxCell id="y8VJ0qSuv6ieIUMJYx79-46" style="edgeStyle=orthogonalEdgeStyle;rounded=0;orthogonalLoop=1;jettySize=auto;html=1;" edge="1" parent="1" source="yIlqXNv4PA9Dnh1hxRCn-27">
          <mxGeometry relative="1" as="geometry">
            <mxPoint x="850" y="330" as="targetPoint" />
          </mxGeometry>
        </mxCell>
        <mxCell id="yIlqXNv4PA9Dnh1hxRCn-27" value="Users" style="aspect=fixed;html=1;perimeter=none;align=center;shadow=0;dashed=0;image;fontSize=12;image=img/lib/mscae/PersonWithFriend.svg;" parent="1" vertex="1">
          <mxGeometry x="640" y="-40" width="50" height="49.5" as="geometry" />
        </mxCell>
        <mxCell id="y8VJ0qSuv6ieIUMJYx79-42" style="edgeStyle=orthogonalEdgeStyle;rounded=0;orthogonalLoop=1;jettySize=auto;html=1;" edge="1" parent="1" source="y8VJ0qSuv6ieIUMJYx79-6">
          <mxGeometry relative="1" as="geometry">
            <mxPoint x="230" y="150" as="targetPoint" />
          </mxGeometry>
        </mxCell>
        <mxCell id="y8VJ0qSuv6ieIUMJYx79-6" value="" style="shape=image;verticalLabelPosition=bottom;labelBackgroundColor=#ffffff;verticalAlign=top;aspect=fixed;imageAspect=0;image=data:image/svg+xml,PHN2ZyB4bWxuczpjYz0iaHR0cDovL2NyZWF0aXZlY29tbW9ucy5vcmcvbnMjIiB4bWxuczpkYz0iaHR0cDovL3B1cmwub3JnL2RjL2VsZW1lbnRzLzEuMS8iIHhtbG5zOmlua3NjYXBlPSJodHRwOi8vd3d3Lmlua3NjYXBlLm9yZy9uYW1lc3BhY2VzL2lua3NjYXBlIiB4bWxuczpyZGY9Imh0dHA6Ly93d3cudzMub3JnLzE5OTkvMDIvMjItcmRmLXN5bnRheC1ucyMiIHhtbG5zOnNvZGlwb2RpPSJodHRwOi8vc29kaXBvZGkuc291cmNlZm9yZ2UubmV0L0RURC9zb2RpcG9kaS0wLmR0ZCIgeG1sbnM6c3ZnPSJodHRwOi8vd3d3LnczLm9yZy8yMDAwL3N2ZyIgeG1sbnM9Imh0dHA6Ly93d3cudzMub3JnLzIwMDAvc3ZnIiB4bWxuczp4bGluaz0iaHR0cDovL3d3dy53My5vcmcvMTk5OS94bGluayIgdmVyc2lvbj0iMS4xIiBpZD0ic3ZnNjAxNDIiIGlua3NjYXBlOnZlcnNpb249IjAuOTIuMyAoMjQwNTU0NiwgMjAxOC0wMy0xMSkiIHNvZGlwb2RpOmRvY25hbWU9ImF6dXJlX3BvcnRhbF9hcHBfc2VydmljZXMuc3ZnIiB4PSIwcHgiIHk9IjBweCIgdmlld0JveD0iMCAwIDY2LjM3IDY2LjA1IiBzdHlsZT0iZW5hYmxlLWJhY2tncm91bmQ6bmV3IDAgMCA2Ni4zNyA2Ni4wNTsiIHhtbDpzcGFjZT0icHJlc2VydmUiPiYjeGE7PHNvZGlwb2RpOm5hbWVkdmlldyBib3JkZXJjb2xvcj0iIzY2NjY2NiIgYm9yZGVyb3BhY2l0eT0iMSIgZml0LW1hcmdpbi1ib3R0b209IjAiIGZpdC1tYXJnaW4tbGVmdD0iMCIgZml0LW1hcmdpbi1yaWdodD0iMCIgZml0LW1hcmdpbi10b3A9IjAiIGdyaWR0b2xlcmFuY2U9IjEwIiBndWlkZXRvbGVyYW5jZT0iMTAiIGlkPSJuYW1lZHZpZXc2MDE0NCIgaW5rc2NhcGU6Y3VycmVudC1sYXllcj0ic3ZnNjAxNDIiIGlua3NjYXBlOmN4PSI0My44MDk4NDgiIGlua3NjYXBlOmN5PSIzNS40NzE1MTciIGlua3NjYXBlOnBhZ2VvcGFjaXR5PSIwIiBpbmtzY2FwZTpwYWdlc2hhZG93PSIyIiBpbmtzY2FwZTp3aW5kb3ctaGVpZ2h0PSIxMDE3IiBpbmtzY2FwZTp3aW5kb3ctbWF4aW1pemVkPSIxIiBpbmtzY2FwZTp3aW5kb3ctd2lkdGg9IjE5MjAiIGlua3NjYXBlOndpbmRvdy14PSItOCIgaW5rc2NhcGU6d2luZG93LXk9Ii04IiBpbmtzY2FwZTp6b29tPSI2Ljk2MTM3MzgiIG9iamVjdHRvbGVyYW5jZT0iMTAiIHBhZ2Vjb2xvcj0iI2ZmZmZmZiIgc2hvd2dyaWQ9ImZhbHNlIj4mI3hhOwk8L3NvZGlwb2RpOm5hbWVkdmlldz4mI3hhOzxnIGlkPSJnNjAxNDAiIHRyYW5zZm9ybT0idHJhbnNsYXRlKDAsMC4wMDIpIj4mI3hhOwk8dGl0bGUgaWQ9InRpdGxlNjAwOTUiPlBhZ2UtMTwvdGl0bGU+JiN4YTsJPGcgaWQ9Imdyb3VwNDM4MC0xIj4mI3hhOwkJPHRpdGxlIGlkPSJ0aXRsZTYwMDk3Ij5BenVyZSBQb3J0YWwgLSBBcHAgU2VydmljZXM8L3RpdGxlPiYjeGE7CQk8ZyBpZD0ic2hhcGU0MzgxLTIiIHRyYW5zZm9ybT0idHJhbnNsYXRlKDM1LjE3MDgpIj4mI3hhOwkJCTx0aXRsZSBpZD0idGl0bGU2MDA5OSI+U2hlZXQuNDM4MTwvdGl0bGU+JiN4YTsJCQk8cGF0aCBpZD0icGF0aDYwMTAxIiBpbmtzY2FwZTpjb25uZWN0b3ItY3VydmF0dXJlPSIwIiBzdHlsZT0iZmlsbDojNTlCNEQ5OyIgZD0iTTE0LjEyLDQ4LjMzYy0yLjI0LDAtOCwwLTE0LjEyLDAgICAgIGMwLDE0LjYsMCwxNC42LDAsMTQuNmMwLDAuMTIsMCwwLjE3LDAsMC4yM3MwLDAuMDYsMCwwLjA2YzAsMC4wNiwwLDAuMTgsMCwwLjI0YzAuMDcsMCwwLjA3LDAsMC4wNywwICAgICBjMC4yNCwxLjQ1LDEuNTEsMi41OSwzLjAzLDIuNTljMjQuOTYsMCwyNC45NiwwLDI0Ljk2LDBjMS43NiwwLDMuMTQtMS4zOCwzLjE0LTMuMTJjMC0yNC44NCwwLTI0Ljg0LDAtMjQuODQgICAgIGMwLTEuNjgtMS4zOC0zLjA4LTMuMTQtMy4wOGMtMy41OCwwLTMuNTgsMC0zLjU4LDBjMC4zLDAuOTEsMC40MiwxLjk0LDAuNDIsMy4wMkMyNC45LDQzLjk0LDIwLjExLDQ4LjMzLDE0LjEyLDQ4LjMzeiIvPiYjeGE7CQk8L2c+JiN4YTsJCTxnIGlkPSJzaGFwZTQzODItNCI+JiN4YTsJCQk8dGl0bGUgaWQ9InRpdGxlNjAxMDQiPlNoZWV0LjQzODI8L3RpdGxlPiYjeGE7CQkJPHBhdGggaWQ9InBhdGg2MDEwNiIgaW5rc2NhcGU6Y29ubmVjdG9yLWN1cnZhdHVyZT0iMCIgc3R5bGU9ImZpbGw6IzU5QjREOTsiIGQ9Ik02LjM5LDM4LjAzYzAtMS4wOCwwLjE4LTIuMTEsMC40OC0zLjAyICAgICBjLTMuNzQsMC0zLjc0LDAtMy43NCwwYy0xLjU2LDAtMi44MiwxLjA5LTMuMDYsMi41M2MwLDAsMCwwLDAsMC4wN2MwLDAuMDYsMCwwLjEyLTAuMDcsMC4xOGMwLDAuMDYsMCwwLjA2LDAsMC4wNiAgICAgYzAsMC4wNiwwLDAuMTgsMCwwLjI0YzAsMjQuODQsMCwyNC44NCwwLDI0Ljg0YzAsMC4xMiwwLDAuMTcsMCwwLjIzczAsMC4wNiwwLDAuMDZjMC4wNywwLjA2LDAuMDcsMC4xOCwwLjA3LDAuMjRsMCwwICAgICBjMC4yNCwxLjQ1LDEuNSwyLjU5LDMuMDYsMi41OWMyNC44MiwwLDI0LjgyLDAsMjQuODIsMGMxLjY4LDAsMy4wNi0xLjM4LDMuMDYtMy4xMmMwLTE0LjYsMC0xNC42LDAtMTQuNiAgICAgYy01Ljc4LDAtMTEuMzEsMC0xMy45MSwwQzExLjIsNDguMzMsNi4zOSw0My45NCw2LjM5LDM4LjAzeiIvPiYjeGE7CQk8L2c+JiN4YTsJCTxnIGlkPSJzaGFwZTQzODMtNiIgdHJhbnNmb3JtPSJ0cmFuc2xhdGUoMzUuMTcwOCwtMzUuMDEyKSI+JiN4YTsJCQk8dGl0bGUgaWQ9InRpdGxlNjAxMDkiPlNoZWV0LjQzODM8L3RpdGxlPiYjeGE7CQkJPHBhdGggaWQ9InBhdGg2MDExMSIgaW5rc2NhcGU6Y29ubmVjdG9yLWN1cnZhdHVyZT0iMCIgc3R5bGU9ImZpbGw6IzU5QjREOTsiIGQ9Ik0zMS4yLDYyLjk3YzAtMjQuODcsMC0yNC44NywwLTI0Ljg3ICAgICBjMC0xLjY5LTEuMzgtMy4wOS0zLjE0LTMuMDljLTI0Ljk2LDAtMjQuOTYsMC0yNC45NiwwYy0xLjUyLDAtMi43OSwxLjA5LTMuMDMsMi41NWMwLDAsMCwwLTAuMDcsMGMwLDAuMTEsMCwwLjE3LDAsMC4yM3YwLjA2ICAgICBjMCwwLjA3LDAsMC4xOSwwLDAuMjVjMCwxMS4yOCwwLDExLjI4LDAsMTEuMjhjMS4xLTAuMjksMi4xOS0wLjQxLDMuNC0wLjQxYzcuNTcsMCwxMy43NSw2LjA5LDEzLjc1LDEzLjcxICAgICBjMCwwLjEyLTAuMDYsMC4yOS0wLjA2LDAuNDFjMS45NCwwLjYxLDMuNywxLjYzLDUuMDMsMi45NmM1Ljk0LDAsNS45NCwwLDUuOTQsMEMyOS44Miw2Ni4wNSwzMS4yLDY0LjY3LDMxLjIsNjIuOTd6Ii8+JiN4YTsJCTwvZz4mI3hhOwkJPGcgaWQ9InNoYXBlNDM4NC04IiB0cmFuc2Zvcm09InRyYW5zbGF0ZSgwLC0zNS4wMTIpIj4mI3hhOwkJCTx0aXRsZSBpZD0idGl0bGU2MDExNCI+U2hlZXQuNDM4NDwvdGl0bGU+JiN4YTsJCQk8cGF0aCBpZD0icGF0aDYwMTE2IiBpbmtzY2FwZTpjb25uZWN0b3ItY3VydmF0dXJlPSIwIiBzdHlsZT0iZmlsbDojNTlCNEQ5OyIgZD0iTTE0Ljg4LDYyLjkyYy0wLjA2LTAuNDktMC4xMi0wLjk3LTAuMTItMS40NiAgICAgYzAtNC41OSwzLjY4LTguMzMsOC4zMS04LjMzYzEuNjksMCwzLjE5LDAuNDksNC41MSwxLjMzYzAuOTctMS4yNywyLjExLTIuMzYsMy40My0zLjI1YzAtMTMuMTEsMC0xMy4xMSwwLTEzLjExICAgICBjMC0xLjY5LTEuMzgtMy4wOS0zLjA2LTMuMDljLTI0LjgyLDAtMjQuODIsMC0yNC44MiwwYy0xLjU2LDAtMi44MiwxLjA5LTMuMDYsMi41NWwwLDBjMCwwLjExLDAsMC4xNy0wLjA3LDAuMjN2MC4wNiAgICAgYzAsMC4wNywwLDAuMTksMCwwLjI1YzAsMjQuODcsMCwyNC44NywwLDI0Ljg3YzAsMC4wNiwwLDAuMTgsMCwwLjI1djAuMDZjMC4wNywwLjA2LDAuMDcsMC4xMiwwLjA3LDAuMjRsMCwwICAgICBjMC4yNCwxLjQ1LDEuNSwyLjUzLDMuMDYsMi41M2M1Ljk3LDAsNS45NywwLDUuOTcsMEMxMC42LDY0LjQ5LDEyLjU5LDYzLjQsMTQuODgsNjIuOTJ6Ii8+JiN4YTsJCTwvZz4mI3hhOwkJPGcgaWQ9InNoYXBlNDM4NS0xMCIgdHJhbnNmb3JtPSJ0cmFuc2xhdGUoMzUuMTcwOCwtMTcuNzg5OSkiPiYjeGE7CQkJPHRpdGxlIGlkPSJ0aXRsZTYwMTE5Ij5TaGVldC40Mzg1PC90aXRsZT4mI3hhOwkJCTxwYXRoIGlkPSJwYXRoNjAxMjEiIGlua3NjYXBlOmNvbm5lY3Rvci1jdXJ2YXR1cmU9IjAiIHN0eWxlPSJmaWxsOiNGRkZGRkY7IiBkPSJNMC4wNyw1NS4zMmMwLDAsMCwwLTAuMDcsMC4wNiAgICAgYzAsMC4wNiwwLDAuMTMsMCwwLjE5YzAsMC4wNiwwLDAuMDYsMCwwLjA2YzAsMC4wNiwwLDAuMTgsMCwwLjI0YzAsMTAuMTgsMCwxMC4xOCwwLDEwLjE4YzYuMTMsMCwxMS45MSwwLDE0LjE2LDAgICAgIGM2LjAxLDAsMTAuOC00LjM3LDEwLjgtMTAuMjRjMC0xLjA4LTAuMTItMi4xMS0wLjQzLTMuMDFjLTIxLjQyLDAtMjEuNDIsMC0yMS40MiwwQzEuNTgsNTIuOCwwLjMxLDUzLjg5LDAuMDcsNTUuMzJ6Ii8+JiN4YTsJCTwvZz4mI3hhOwkJPGcgaWQ9InNoYXBlNDM4Ni0xMiIgdHJhbnNmb3JtPSJ0cmFuc2xhdGUoNi40MjkwNywtMTcuNzg5OSkiPiYjeGE7CQkJPHRpdGxlIGlkPSJ0aXRsZTYwMTI0Ij5TaGVldC40Mzg2PC90aXRsZT4mI3hhOwkJCTxwYXRoIGlkPSJwYXRoNjAxMjYiIGlua3NjYXBlOmNvbm5lY3Rvci1jdXJ2YXR1cmU9IjAiIHN0eWxlPSJmaWxsOiNGRkZGRkY7IiBkPSJNMjEuNTIsNTIuOGMtMjEuMDQsMC0yMS4wNCwwLTIxLjA0LDAgICAgIEMwLjE5LDUzLjcsMCw1NC43MywwLDU1LjgxYzAsNS44Nyw0LjgxLDEwLjI0LDEwLjcxLDEwLjI0YzIuNTcsMCw4LjEsMCwxMy44NywwYzAtMTAuMTgsMC0xMC4xOCwwLTEwLjE4ICAgICBDMjQuNTgsNTQuMTksMjMuMjEsNTIuOCwyMS41Miw1Mi44eiIvPiYjeGE7CQk8L2c+JiN4YTsJCTxnIGlkPSJzaGFwZTQzODctMTQiIHRyYW5zZm9ybT0idHJhbnNsYXRlKDM1LjE3MDgsLTM1LjAxMikiPiYjeGE7CQkJPHRpdGxlIGlkPSJ0aXRsZTYwMTI5Ij5TaGVldC40Mzg3PC90aXRsZT4mI3hhOwkJCTxwYXRoIGlkPSJwYXRoNjAxMzEiIGlua3NjYXBlOmNvbm5lY3Rvci1jdXJ2YXR1cmU9IjAiIHN0eWxlPSJmaWxsOiNGRkZGRkY7IiBkPSJNMTcuMTYsNjIuNjljMC03LjU5LTYuMTgtMTMuNjctMTMuNzYtMTMuNjcgICAgIGMtMS4yMSwwLTIuMywwLjEzLTMuNCwwLjQyYzAsMTMuNTUsMCwxMy41NSwwLDEzLjU1YzAsMC4wNiwwLDAuMTcsMCwwLjIzdjAuMDZjMCwwLjA2LDAsMC4xMywwLDAuMjVjMC4wNywwLDAuMDcsMCwwLjA3LDAgICAgIGMwLjI0LDEuNDQsMS41MSwyLjUyLDMuMDMsMi41MmMxOS4wMiwwLDE5LjAyLDAsMTkuMDIsMGMtMS4zMi0xLjMxLTMuMDgtMi4zNC01LjAyLTIuOTVDMTcuMSw2Mi45OSwxNy4xNiw2Mi44MSwxNy4xNiw2Mi42OXoiLz4mI3hhOwkJPC9nPiYjeGE7CQk8ZyBpZD0ic2hhcGU0Mzg4LTE2IiB0cmFuc2Zvcm09InRyYW5zbGF0ZSg5LjA3NjM0LC0zNS4wMTIpIj4mI3hhOwkJCTx0aXRsZSBpZD0idGl0bGU2MDEzNCI+U2hlZXQuNDM4ODwvdGl0bGU+JiN4YTsJCQk8cGF0aCBpZD0icGF0aDYwMTM2IiBpbmtzY2FwZTpjb25uZWN0b3ItY3VydmF0dXJlPSIwIiBzdHlsZT0iZmlsbDojRkZGRkZGOyIgZD0iTTIxLjkzLDYyLjk1YzAtMTEuODUsMC0xMS44NSwwLTExLjg1ICAgICBjLTEuMzIsMC45Mi0yLjQ3LDIuMDEtMy40MiwzLjI5Yy0xLjMzLTAuODUtMi44NC0xLjM0LTQuNTMtMS4zNGMtNC42MywwLTguMzEsMy43Ni04LjMxLDguMzljMCwwLjQ4LDAuMDYsMC45NywwLjEyLDEuNDUgICAgIEMzLjUsNjMuMzgsMS41MSw2NC40OCwwLDY2LjA1YzE4Ljg2LDAsMTguODYsMCwxOC44NiwwQzIwLjU1LDY2LjA1LDIxLjkzLDY0LjY1LDIxLjkzLDYyLjk1eiIvPiYjeGE7CQk8L2c+JiN4YTsJPC9nPiYjeGE7PC9nPiYjeGE7PC9zdmc+;" vertex="1" parent="1">
          <mxGeometry x="450.0000000000001" y="50" width="66" height="66" as="geometry" />
        </mxCell>
        <UserObject label="Portal Azure" placeholders="1" name="Variable" id="y8VJ0qSuv6ieIUMJYx79-9">
          <mxCell style="text;html=1;strokeColor=none;fillColor=none;align=center;verticalAlign=middle;whiteSpace=wrap;overflow=hidden;" vertex="1" parent="1">
            <mxGeometry x="443" y="116" width="80" height="20" as="geometry" />
          </mxCell>
        </UserObject>
        <mxCell id="y8VJ0qSuv6ieIUMJYx79-11" value="" style="verticalLabelPosition=bottom;html=1;verticalAlign=top;align=center;strokeColor=none;fillColor=#00BEF2;shape=mxgraph.azure.access_control;" vertex="1" parent="1">
          <mxGeometry x="191.5" y="160" width="70" height="73" as="geometry" />
        </mxCell>
        <mxCell id="y8VJ0qSuv6ieIUMJYx79-43" style="edgeStyle=orthogonalEdgeStyle;rounded=0;orthogonalLoop=1;jettySize=auto;html=1;" edge="1" parent="1" source="y8VJ0qSuv6ieIUMJYx79-15">
          <mxGeometry relative="1" as="geometry">
            <mxPoint x="410" y="260" as="targetPoint" />
          </mxGeometry>
        </mxCell>
        <UserObject label="conditional access control" placeholders="1" name="Variable" id="y8VJ0qSuv6ieIUMJYx79-15">
          <mxCell style="text;html=1;strokeColor=none;fillColor=none;align=center;verticalAlign=middle;whiteSpace=wrap;overflow=hidden;" vertex="1" parent="1">
            <mxGeometry x="190" y="240" width="80" height="40" as="geometry" />
          </mxCell>
        </UserObject>
        <mxCell id="y8VJ0qSuv6ieIUMJYx79-44" style="edgeStyle=orthogonalEdgeStyle;rounded=0;orthogonalLoop=1;jettySize=auto;html=1;" edge="1" parent="1" source="y8VJ0qSuv6ieIUMJYx79-16">
          <mxGeometry relative="1" as="geometry">
            <mxPoint x="650" y="30" as="targetPoint" />
            <Array as="points">
              <mxPoint x="650" y="270" />
              <mxPoint x="650" y="34" />
            </Array>
          </mxGeometry>
        </mxCell>
        <UserObject label="MFA" placeholders="1" name="Variable" id="y8VJ0qSuv6ieIUMJYx79-16">
          <mxCell style="text;html=1;strokeColor=none;fillColor=none;align=center;verticalAlign=middle;whiteSpace=wrap;overflow=hidden;" vertex="1" parent="1">
            <mxGeometry x="430" y="250" width="80" height="40" as="geometry" />
          </mxCell>
        </UserObject>
        <mxCell id="y8VJ0qSuv6ieIUMJYx79-24" value="Active Directory" style="group;labelPosition=center;verticalLabelPosition=bottom;align=center;verticalAlign=top;" vertex="1" connectable="0" parent="1">
          <mxGeometry x="670" y="553" width="67" height="59.75" as="geometry" />
        </mxCell>
        <mxCell id="y8VJ0qSuv6ieIUMJYx79-25" value="" style="aspect=fixed;html=1;perimeter=none;align=center;shadow=0;dashed=0;image;fontSize=12;image=img/lib/mscae/Virtual_Machine.svg;" vertex="1" parent="y8VJ0qSuv6ieIUMJYx79-24">
          <mxGeometry width="54" height="50" as="geometry" />
        </mxCell>
        <mxCell id="y8VJ0qSuv6ieIUMJYx79-26" value="" style="shadow=0;dashed=0;strokeColor=none;html=1;labelPosition=center;verticalLabelPosition=bottom;verticalAlign=top;align=center;shape=mxgraph.mscae.other.windows;fillColor=#00188D;aspect=fixed;" vertex="1" parent="y8VJ0qSuv6ieIUMJYx79-24">
          <mxGeometry x="39" y="30.75" width="28" height="29" as="geometry" />
        </mxCell>
        <mxCell id="y8VJ0qSuv6ieIUMJYx79-29" value="Vm-Produção" style="group;labelPosition=center;verticalLabelPosition=bottom;align=center;verticalAlign=top;" vertex="1" connectable="0" parent="1">
          <mxGeometry x="1310" y="380" width="67" height="59.75" as="geometry" />
        </mxCell>
        <mxCell id="y8VJ0qSuv6ieIUMJYx79-30" value="" style="aspect=fixed;html=1;perimeter=none;align=center;shadow=0;dashed=0;image;fontSize=12;image=img/lib/mscae/Virtual_Machine.svg;" vertex="1" parent="y8VJ0qSuv6ieIUMJYx79-29">
          <mxGeometry width="54" height="50" as="geometry" />
        </mxCell>
        <mxCell id="y8VJ0qSuv6ieIUMJYx79-37" value="Virtual Network" style="aspect=fixed;html=1;perimeter=none;align=center;shadow=0;dashed=0;image;fontSize=12;image=img/lib/mscae/Virtual_Network.svg;labelBackgroundColor=none;" vertex="1" parent="1">
          <mxGeometry x="1100" y="640" width="50" height="28.499999999999996" as="geometry" />
        </mxCell>
        <UserObject label="Peering&amp;nbsp;" placeholders="1" name="Variable" id="y8VJ0qSuv6ieIUMJYx79-48">
          <mxCell style="text;html=1;strokeColor=none;fillColor=none;align=center;verticalAlign=middle;whiteSpace=wrap;overflow=hidden;" vertex="1" parent="1">
            <mxGeometry x="940" y="388.5" width="110" height="20" as="geometry" />
          </mxCell>
        </UserObject>
        <UserObject label="Peering&amp;nbsp;" placeholders="1" name="Variable" id="y8VJ0qSuv6ieIUMJYx79-49">
          <mxCell style="text;html=1;strokeColor=none;fillColor=none;align=center;verticalAlign=middle;whiteSpace=wrap;overflow=hidden;" vertex="1" parent="1">
            <mxGeometry x="940" y="550" width="110" height="20" as="geometry" />
          </mxCell>
        </UserObject>
        <mxCell id="y8VJ0qSuv6ieIUMJYx79-50" value="" style="rounded=0;whiteSpace=wrap;html=1;fillColor=#f5f5f5;strokeColor=none;fontColor=#333333;" vertex="1" parent="1">
          <mxGeometry x="800" y="760" width="340" height="340" as="geometry" />
        </mxCell>
        <mxCell id="y8VJ0qSuv6ieIUMJYx79-51" value="Virtual Network" style="aspect=fixed;html=1;perimeter=none;align=center;shadow=0;dashed=0;image;fontSize=12;image=img/lib/mscae/Virtual_Network.svg;labelBackgroundColor=none;" vertex="1" parent="1">
          <mxGeometry x="810" y="770" width="50" height="28.499999999999996" as="geometry" />
        </mxCell>
        <UserObject label="Peering&amp;nbsp;" placeholders="1" name="Variable" id="y8VJ0qSuv6ieIUMJYx79-53">
          <mxCell style="text;html=1;strokeColor=none;fillColor=none;align=center;verticalAlign=middle;whiteSpace=wrap;overflow=hidden;" vertex="1" parent="1">
            <mxGeometry x="790" y="680" width="110" height="20" as="geometry" />
          </mxCell>
        </UserObject>
        <mxCell id="y8VJ0qSuv6ieIUMJYx79-54" value="" style="shape=image;verticalLabelPosition=bottom;labelBackgroundColor=#ffffff;verticalAlign=top;aspect=fixed;imageAspect=0;image=data:image/svg+xml,PHN2ZyB4bWxuczpjYz0iaHR0cDovL2NyZWF0aXZlY29tbW9ucy5vcmcvbnMjIiB4bWxuczpkYz0iaHR0cDovL3B1cmwub3JnL2RjL2VsZW1lbnRzLzEuMS8iIHhtbG5zOmlua3NjYXBlPSJodHRwOi8vd3d3Lmlua3NjYXBlLm9yZy9uYW1lc3BhY2VzL2lua3NjYXBlIiB4bWxuczpyZGY9Imh0dHA6Ly93d3cudzMub3JnLzE5OTkvMDIvMjItcmRmLXN5bnRheC1ucyMiIHhtbG5zOnNvZGlwb2RpPSJodHRwOi8vc29kaXBvZGkuc291cmNlZm9yZ2UubmV0L0RURC9zb2RpcG9kaS0wLmR0ZCIgeG1sbnM6c3ZnPSJodHRwOi8vd3d3LnczLm9yZy8yMDAwL3N2ZyIgeG1sbnM9Imh0dHA6Ly93d3cudzMub3JnLzIwMDAvc3ZnIiB4bWxuczp4bGluaz0iaHR0cDovL3d3dy53My5vcmcvMTk5OS94bGluayIgdmVyc2lvbj0iMS4xIiBpZD0ic3ZnNTUzNjYiIGlua3NjYXBlOnZlcnNpb249IjAuOTIuMyAoMjQwNTU0NiwgMjAxOC0wMy0xMSkiIHNvZGlwb2RpOmRvY25hbWU9ImF6dXJlX2Jsb2Jfc3RvcmFnZS5zdmciIHg9IjBweCIgeT0iMHB4IiB2aWV3Qm94PSIwIDAgNDggNDAuOTkiIHN0eWxlPSJlbmFibGUtYmFja2dyb3VuZDpuZXcgMCAwIDQ4IDQwLjk5OyIgeG1sOnNwYWNlPSJwcmVzZXJ2ZSI+JiN4YTs8c29kaXBvZGk6bmFtZWR2aWV3IGJvcmRlcmNvbG9yPSIjNjY2NjY2IiBib3JkZXJvcGFjaXR5PSIxIiBmaXQtbWFyZ2luLWJvdHRvbT0iMCIgZml0LW1hcmdpbi1sZWZ0PSIwIiBmaXQtbWFyZ2luLXJpZ2h0PSIwIiBmaXQtbWFyZ2luLXRvcD0iMCIgZ3JpZHRvbGVyYW5jZT0iMTAiIGd1aWRldG9sZXJhbmNlPSIxMCIgaWQ9Im5hbWVkdmlldzU1MzY4IiBpbmtzY2FwZTpjdXJyZW50LWxheWVyPSJzdmc1NTM2NiIgaW5rc2NhcGU6Y3g9IjQ5LjQ2MTI0NiIgaW5rc2NhcGU6Y3k9IjIzLjk2Nzc0MiIgaW5rc2NhcGU6cGFnZW9wYWNpdHk9IjAiIGlua3NjYXBlOnBhZ2VzaGFkb3c9IjIiIGlua3NjYXBlOndpbmRvdy1oZWlnaHQ9IjEwMTciIGlua3NjYXBlOndpbmRvdy1tYXhpbWl6ZWQ9IjEiIGlua3NjYXBlOndpbmRvdy13aWR0aD0iMTkyMCIgaW5rc2NhcGU6d2luZG93LXg9Ii04IiBpbmtzY2FwZTp3aW5kb3cteT0iLTgiIGlua3NjYXBlOnpvb209IjEwLjgyMDc2NSIgb2JqZWN0dG9sZXJhbmNlPSIxMCIgcGFnZWNvbG9yPSIjZmZmZmZmIiBzaG93Z3JpZD0iZmFsc2UiPiYjeGE7CTwvc29kaXBvZGk6bmFtZWR2aWV3PiYjeGE7PGcgaWQ9Imc1NTM2NCIgdHJhbnNmb3JtPSJ0cmFuc2xhdGUoLTAuNzUsLTAuNzU0KSI+JiN4YTsJPHRpdGxlIGlkPSJ0aXRsZTU1MzI0Ij5QYWdlLTE8L3RpdGxlPiYjeGE7CTxnIGlkPSJncm91cDUyMTYtMSIgdHJhbnNmb3JtPSJ0cmFuc2xhdGUoMC43NSwtMC43NSkiPiYjeGE7CQk8dGl0bGUgaWQ9InRpdGxlNTUzMjYiPkF6dXJlIEJsb2IgU3RvcmFnZTwvdGl0bGU+JiN4YTsJCTxnIGlkPSJzaGFwZTUyMTctMiI+JiN4YTsJCQk8dGl0bGUgaWQ9InRpdGxlNTUzMjgiPlNoZWV0LjUyMTc8L3RpdGxlPiYjeGE7CQkJPHBhdGggaWQ9InBhdGg1NTMzMCIgaW5rc2NhcGU6Y29ubmVjdG9yLWN1cnZhdHVyZT0iMCIgc3R5bGU9ImZpbGw6I0EwQTFBMjsiIGQ9Ik0wLDQwLjY3YzAsMC45NiwwLjc3LDEuODIsMS43MywxLjgyaDQ0LjQ1ICAgICBjMC45NiwwLDEuODItMC43NywxLjgyLTEuODJWOC44OUgwVjQwLjY3eiIvPiYjeGE7CQk8L2c+JiN4YTsJCTxnIGlkPSJzaGFwZTUyMTgtNCIgdHJhbnNmb3JtPSJ0cmFuc2xhdGUoMCwtMzMuNjk2KSI+JiN4YTsJCQk8dGl0bGUgaWQ9InRpdGxlNTUzMzMiPlNoZWV0LjUyMTg8L3RpdGxlPiYjeGE7CQkJPHBhdGggaWQ9InBhdGg1NTMzNSIgaW5rc2NhcGU6Y29ubmVjdG9yLWN1cnZhdHVyZT0iMCIgc3R5bGU9ImZpbGw6IzdBN0E3QTsiIGQ9Ik00Ni4xOCwzNS4ySDEuNzNDMC43NywzNS4yLDAsMzYuMDYsMCwzNy4wMiAgICAgdjUuNDdoNDh2LTUuNDdDNDgsMzYuMDYsNDcuMjMsMzUuMiw0Ni4xOCwzNS4yeiIvPiYjeGE7CQk8L2c+JiN4YTsJCTxnIGlkPSJzaGFwZTUyMTktNiIgdHJhbnNmb3JtPSJ0cmFuc2xhdGUoMy41NTIsLTE3Ljg1NikiPiYjeGE7CQkJPHRpdGxlIGlkPSJ0aXRsZTU1MzM4Ij5TaGVldC41MjE5PC90aXRsZT4mI3hhOwkJCTxyZWN0IGlkPSJyZWN0NTUzNDAiIHg9IjAiIHk9IjMwLjAxIiBzdHlsZT0iZmlsbDojMDA3MkM2OyIgd2lkdGg9IjE5LjU4IiBoZWlnaHQ9IjEyLjQ4Ii8+JiN4YTsJCTwvZz4mI3hhOwkJPGcgaWQ9InNoYXBlNTIyMC04IiB0cmFuc2Zvcm09InRyYW5zbGF0ZSgzLjU1MiwtMy42NDgpIj4mI3hhOwkJCTx0aXRsZSBpZD0idGl0bGU1NTM0MyI+U2hlZXQuNTIyMDwvdGl0bGU+JiN4YTsJCQk8cmVjdCBpZD0icmVjdDU1MzQ1IiB4PSIwIiB5PSIzMC4wMSIgc3R5bGU9ImZpbGw6IzAwNzJDNjsiIHdpZHRoPSIxOS41OCIgaGVpZ2h0PSIxMi40OCIvPiYjeGE7CQk8L2c+JiN4YTsJCTxnIGlkPSJzaGFwZTUyMjEtMTAiIHRyYW5zZm9ybT0idHJhbnNsYXRlKDI0Ljg2NCwtMTcuODU2KSI+JiN4YTsJCQk8dGl0bGUgaWQ9InRpdGxlNTUzNDgiPlNoZWV0LjUyMjE8L3RpdGxlPiYjeGE7CQkJPHJlY3QgaWQ9InJlY3Q1NTM1MCIgeD0iMCIgeT0iMzAuMDEiIHN0eWxlPSJmaWxsOiNGRkZGRkY7IiB3aWR0aD0iMTkuNDkiIGhlaWdodD0iMTIuNDgiLz4mI3hhOwkJPC9nPiYjeGE7CQk8ZyBpZD0ic2hhcGU1MjIyLTEyIiB0cmFuc2Zvcm09InRyYW5zbGF0ZSgyNC44NjQsLTMuNjQ4KSI+JiN4YTsJCQk8dGl0bGUgaWQ9InRpdGxlNTUzNTMiPlNoZWV0LjUyMjI8L3RpdGxlPiYjeGE7CQkJPHJlY3QgaWQ9InJlY3Q1NTM1NSIgeD0iMCIgeT0iMzAuMDEiIHN0eWxlPSJmaWxsOiMwMDcyQzY7IiB3aWR0aD0iMTkuNDkiIGhlaWdodD0iMTIuNDgiLz4mI3hhOwkJPC9nPiYjeGE7CQk8ZyBpZD0ic2hhcGU1MjIzLTE0IiB0cmFuc2Zvcm09InRyYW5zbGF0ZSgwLC0wLjA5NikiPiYjeGE7CQkJPHRpdGxlIGlkPSJ0aXRsZTU1MzU4Ij5TaGVldC41MjIzPC90aXRsZT4mI3hhOwkJCTxwYXRoIGlkPSJwYXRoNTUzNjAiIGlua3NjYXBlOmNvbm5lY3Rvci1jdXJ2YXR1cmU9IjAiIHN0eWxlPSJmaWxsOiNGRkZGRkY7ZmlsbC1vcGFjaXR5OjAuMjsiIGQ9Ik0xLjkyLDEuNiAgICAgQzAuODYsMS42LDAsMi40NiwwLDMuNTJ2N3YzLjE3djI2Ljg4YzAsMS4wNiwwLjg2LDEuOTIsMS45MiwxLjkyaDIuMTFMNDEuODYsMS42SDEuOTJ6Ii8+JiN4YTsJCTwvZz4mI3hhOwk8L2c+JiN4YTs8L2c+JiN4YTs8L3N2Zz4=;" vertex="1" parent="1">
          <mxGeometry x="530" y="470" width="48" height="41" as="geometry" />
        </mxCell>
        <UserObject label="Storage Account" placeholders="1" name="Variable" id="y8VJ0qSuv6ieIUMJYx79-55">
          <mxCell style="text;html=1;strokeColor=none;fillColor=none;align=center;verticalAlign=middle;whiteSpace=wrap;overflow=hidden;" vertex="1" parent="1">
            <mxGeometry x="500" y="519" width="110" height="41" as="geometry" />
          </mxCell>
        </UserObject>
        <mxCell id="y8VJ0qSuv6ieIUMJYx79-56" value="Vm-Desenvolvimento" style="group;labelPosition=center;verticalLabelPosition=bottom;align=center;verticalAlign=top;" vertex="1" connectable="0" parent="1">
          <mxGeometry x="940" y="850" width="67" height="59.75" as="geometry" />
        </mxCell>
        <mxCell id="y8VJ0qSuv6ieIUMJYx79-57" value="" style="aspect=fixed;html=1;perimeter=none;align=center;shadow=0;dashed=0;image;fontSize=12;image=img/lib/mscae/Virtual_Machine.svg;" vertex="1" parent="y8VJ0qSuv6ieIUMJYx79-56">
          <mxGeometry width="54" height="50" as="geometry" />
        </mxCell>
        <mxCell id="y8VJ0qSuv6ieIUMJYx79-69" style="edgeStyle=orthogonalEdgeStyle;rounded=0;orthogonalLoop=1;jettySize=auto;html=1;" edge="1" parent="1" source="y8VJ0qSuv6ieIUMJYx79-58">
          <mxGeometry relative="1" as="geometry">
            <mxPoint x="1450" y="590" as="targetPoint" />
            <Array as="points">
              <mxPoint x="1486" y="590" />
              <mxPoint x="1450" y="591" />
            </Array>
          </mxGeometry>
        </mxCell>
        <mxCell id="y8VJ0qSuv6ieIUMJYx79-58" value="" style="rounded=0;whiteSpace=wrap;html=1;fillColor=#f5f5f5;strokeColor=none;fontColor=#333333;" vertex="1" parent="1">
          <mxGeometry x="1520" y="350" width="340" height="340" as="geometry" />
        </mxCell>
        <mxCell id="y8VJ0qSuv6ieIUMJYx79-59" value="" style="shape=image;verticalLabelPosition=bottom;labelBackgroundColor=#ffffff;verticalAlign=top;aspect=fixed;imageAspect=0;image=data:image/svg+xml,PHN2ZyB4bWxuczpjYz0iaHR0cDovL2NyZWF0aXZlY29tbW9ucy5vcmcvbnMjIiB4bWxuczpkYz0iaHR0cDovL3B1cmwub3JnL2RjL2VsZW1lbnRzLzEuMS8iIHhtbG5zOmlua3NjYXBlPSJodHRwOi8vd3d3Lmlua3NjYXBlLm9yZy9uYW1lc3BhY2VzL2lua3NjYXBlIiB4bWxuczpyZGY9Imh0dHA6Ly93d3cudzMub3JnLzE5OTkvMDIvMjItcmRmLXN5bnRheC1ucyMiIHhtbG5zOnNvZGlwb2RpPSJodHRwOi8vc29kaXBvZGkuc291cmNlZm9yZ2UubmV0L0RURC9zb2RpcG9kaS0wLmR0ZCIgeG1sbnM6c3ZnPSJodHRwOi8vd3d3LnczLm9yZy8yMDAwL3N2ZyIgeG1sbnM9Imh0dHA6Ly93d3cudzMub3JnLzIwMDAvc3ZnIiB4bWxuczp4bGluaz0iaHR0cDovL3d3dy53My5vcmcvMTk5OS94bGluayIgdmVyc2lvbj0iMS4xIiBpZD0ic3ZnOTkyNDkiIGlua3NjYXBlOnZlcnNpb249IjAuOTIuMyAoMjQwNTU0NiwgMjAxOC0wMy0xMSkiIHNvZGlwb2RpOmRvY25hbWU9InN1Ym5ldHMuc3ZnIiB4PSIwcHgiIHk9IjBweCIgdmlld0JveD0iMCAwIDM0Ljg0IDIxLjYxIiBzdHlsZT0iZW5hYmxlLWJhY2tncm91bmQ6bmV3IDAgMCAzNC44NCAyMS42MTsiIHhtbDpzcGFjZT0icHJlc2VydmUiPiYjeGE7PHNvZGlwb2RpOm5hbWVkdmlldyBib3JkZXJjb2xvcj0iIzY2NjY2NiIgYm9yZGVyb3BhY2l0eT0iMSIgZml0LW1hcmdpbi1ib3R0b209IjAiIGZpdC1tYXJnaW4tbGVmdD0iMCIgZml0LW1hcmdpbi1yaWdodD0iMCIgZml0LW1hcmdpbi10b3A9IjAiIGdyaWR0b2xlcmFuY2U9IjEwIiBndWlkZXRvbGVyYW5jZT0iMTAiIGlkPSJuYW1lZHZpZXc5OTI1MSIgaW5rc2NhcGU6Y3VycmVudC1sYXllcj0ic3ZnOTkyNDkiIGlua3NjYXBlOmN4PSI0MC45MTcxNDUiIGlua3NjYXBlOmN5PSIwLjYzNzUyNTg2IiBpbmtzY2FwZTpwYWdlb3BhY2l0eT0iMCIgaW5rc2NhcGU6cGFnZXNoYWRvdz0iMiIgaW5rc2NhcGU6d2luZG93LWhlaWdodD0iMTAxNyIgaW5rc2NhcGU6d2luZG93LW1heGltaXplZD0iMSIgaW5rc2NhcGU6d2luZG93LXdpZHRoPSIxOTIwIiBpbmtzY2FwZTp3aW5kb3cteD0iLTgiIGlua3NjYXBlOndpbmRvdy15PSItOCIgaW5rc2NhcGU6em9vbT0iMTAuNjM5NDk0IiBvYmplY3R0b2xlcmFuY2U9IjEwIiBwYWdlY29sb3I9IiNmZmZmZmYiIHNob3dncmlkPSJmYWxzZSI+JiN4YTsJPC9zb2RpcG9kaTpuYW1lZHZpZXc+JiN4YTs8ZyBpZD0iZzk5MjQ3IiB0cmFuc2Zvcm09InRyYW5zbGF0ZSgtNC4yMzMxNzQ5ZS01KSI+JiN4YTsJPHRpdGxlIGlkPSJ0aXRsZTk5MjI3Ij5QYWdlLTE8L3RpdGxlPiYjeGE7CTxnIGlkPSJncm91cDQ2NTQtMSI+JiN4YTsJCTx0aXRsZSBpZD0idGl0bGU5OTIyOSI+U3VibmV0czwvdGl0bGU+JiN4YTsJCTxnIGlkPSJzaGFwZTQ2NTUtMiIgdHJhbnNmb3JtPSJ0cmFuc2xhdGUoMjIuNjEzKSI+JiN4YTsJCQk8dGl0bGUgaWQ9InRpdGxlOTkyMzEiPlNoZWV0LjQ2NTU8L3RpdGxlPiYjeGE7CQkJPHBhdGggaWQ9InBhdGg5OTIzMyIgaW5rc2NhcGU6Y29ubmVjdG9yLWN1cnZhdHVyZT0iMCIgc3R5bGU9ImZpbGw6IzM5OTlDNjsiIGQ9Ik0xMi4yMywxMC42OEw5Ljg0LDguMjlMMS4zOSwwTDAsMS4yNmw5LjU4LDkuNDIgICAgIEwwLDIwLjM1bDEuMzksMS4yNmw4LjQ1LTguM0wxMi4yMywxMC42OHoiLz4mI3hhOwkJPC9nPiYjeGE7CQk8ZyBpZD0ic2hhcGU0NjU2LTQiPiYjeGE7CQkJPHRpdGxlIGlkPSJ0aXRsZTk5MjM2Ij5TaGVldC40NjU2PC90aXRsZT4mI3hhOwkJCTxwYXRoIGlkPSJwYXRoOTkyMzgiIGlua3NjYXBlOmNvbm5lY3Rvci1jdXJ2YXR1cmU9IjAiIHN0eWxlPSJmaWxsOiMzOTk5QzY7IiBkPSJNMCwxMC42OGwyLjM5LTIuMzlMMTAuODQsMGwxLjM5LDEuMjYgICAgIGwtOS41OCw5LjQybDkuNTgsOS42N2wtMS4zOSwxLjI2bC04LjQ1LTguM0wwLDEwLjY4eiIvPiYjeGE7CQk8L2c+JiN4YTsJCTxnIGlkPSJzaGFwZTQ2NTctNiIgdHJhbnNmb3JtPSJ0cmFuc2xhdGUoMTQuODY4NSwtOC41MzE5NykiPiYjeGE7CQkJPHRpdGxlIGlkPSJ0aXRsZTk5MjQxIj5TaGVldC40NjU3PC90aXRsZT4mI3hhOwkJCTxwYXRoIGlkPSJwYXRoOTkyNDMiIGlua3NjYXBlOmNvbm5lY3Rvci1jdXJ2YXR1cmU9IjAiIHN0eWxlPSJmaWxsOiM3RkJBMDA7IiBkPSJNNC45MSwxOS4yMWMwLDEuMzgtMS4xMywyLjQtMi4zOSwyLjQgICAgIFMwLDIwLjQ2LDAsMTkuMjFjMC0xLjI2LDEuMTMtMi4zOCwyLjUyLTIuMzhTNC45MSwxNy45NSw0LjkxLDE5LjIxeiIvPiYjeGE7CQk8L2c+JiN4YTsJPC9nPiYjeGE7PC9nPiYjeGE7PC9zdmc+;" vertex="1" parent="1">
          <mxGeometry x="1540" y="620" width="53.3" height="33.5" as="geometry" />
        </mxCell>
        <UserObject label="subnet&amp;nbsp;" placeholders="1" name="Variable" id="y8VJ0qSuv6ieIUMJYx79-63">
          <mxCell style="text;html=1;strokeColor=none;fillColor=none;align=center;verticalAlign=middle;whiteSpace=wrap;overflow=hidden;" vertex="1" parent="1">
            <mxGeometry x="1511.65" y="668.5" width="110" height="20" as="geometry" />
          </mxCell>
        </UserObject>
        <mxCell id="y8VJ0qSuv6ieIUMJYx79-72" value="Vm-Database server" style="group;labelPosition=center;verticalLabelPosition=bottom;align=center;verticalAlign=top;" vertex="1" connectable="0" parent="1">
          <mxGeometry x="1710" y="410.25" width="77.21000000000001" height="59.75" as="geometry" />
        </mxCell>
        <mxCell id="y8VJ0qSuv6ieIUMJYx79-73" value="" style="aspect=fixed;html=1;perimeter=none;align=center;shadow=0;dashed=0;image;fontSize=12;image=img/lib/mscae/Virtual_Machine.svg;" vertex="1" parent="y8VJ0qSuv6ieIUMJYx79-72">
          <mxGeometry width="54" height="50" as="geometry" />
        </mxCell>
        <mxCell id="y8VJ0qSuv6ieIUMJYx79-60" value="" style="shape=image;verticalLabelPosition=bottom;labelBackgroundColor=#ffffff;verticalAlign=top;aspect=fixed;imageAspect=0;image=data:image/svg+xml,PHN2ZyB4bWxuczpkYz0iaHR0cDovL3B1cmwub3JnL2RjL2VsZW1lbnRzLzEuMS8iIHhtbG5zOmNjPSJodHRwOi8vY3JlYXRpdmVjb21tb25zLm9yZy9ucyMiIHhtbG5zOnJkZj0iaHR0cDovL3d3dy53My5vcmcvMTk5OS8wMi8yMi1yZGYtc3ludGF4LW5zIyIgeG1sbnM6c3ZnPSJodHRwOi8vd3d3LnczLm9yZy8yMDAwL3N2ZyIgeG1sbnM9Imh0dHA6Ly93d3cudzMub3JnLzIwMDAvc3ZnIiB4bWxuczpzb2RpcG9kaT0iaHR0cDovL3NvZGlwb2RpLnNvdXJjZWZvcmdlLm5ldC9EVEQvc29kaXBvZGktMC5kdGQiIHhtbG5zOmlua3NjYXBlPSJodHRwOi8vd3d3Lmlua3NjYXBlLm9yZy9uYW1lc3BhY2VzL2lua3NjYXBlIiB2ZXJzaW9uPSIxLjEiIGlkPSJzdmc5NzA4NCIgaW5rc2NhcGU6dmVyc2lvbj0iMC45Mi4zICgyNDA1NTQ2LCAyMDE4LTAzLTExKSIgc29kaXBvZGk6ZG9jbmFtZT0ic3FsX2RhdGFiYXNlLnN2ZyIgeD0iMHB4IiB5PSIwcHgiIHZpZXdCb3g9IjAgMCA3NS41MiAxMDAuMTEiIHhtbDpzcGFjZT0icHJlc2VydmUiIHdpZHRoPSI3NS41MTk5OTciIGhlaWdodD0iMTAwLjExIj48bWV0YWRhdGEgaWQ9Im1ldGFkYXRhMTcyNiI+PHJkZjpSREY+PGNjOldvcmsgcmRmOmFib3V0PSIiPjxkYzpmb3JtYXQ+aW1hZ2Uvc3ZnK3htbDwvZGM6Zm9ybWF0PjxkYzp0eXBlIHJkZjpyZXNvdXJjZT0iaHR0cDovL3B1cmwub3JnL2RjL2RjbWl0eXBlL1N0aWxsSW1hZ2UiLz48ZGM6dGl0bGUvPjwvY2M6V29yaz48L3JkZjpSREY+PC9tZXRhZGF0YT48ZGVmcyBpZD0iZGVmczE3MjQiPiYjeGE7CSYjeGE7JiN4YTsJJiN4YTsmI3hhOwkmI3hhOyYjeGE7CSYjeGE7JiN4YTsJJiN4YTsmI3hhOwkmI3hhOyYjeGE7CSYjeGE7JiN4YTsJJiN4YTsmI3hhOwkmI3hhOyYjeGE7CQkmI3hhOwkmI3hhOwkJJiN4YTsJJiN4YTsJCSYjeGE7CSYjeGE7CQkmI3hhOwkmI3hhOwkJJiN4YTsJJiN4YTsJCSYjeGE7CSYjeGE7CQkmI3hhOwkmI3hhOwkJJiN4YTsJPC9kZWZzPiYjeGE7PGZpbHRlciBpZD0iZmlsdGVyXzIiPiYjeGE7CTxmZUdhdXNzaWFuQmx1ciBpZD0iZmVHYXVzc2lhbkJsdXI5NzAwMSIgc3RkRGV2aWF0aW9uPSIyIi8+JiN4YTs8L2ZpbHRlcj4mI3hhOzxzb2RpcG9kaTpuYW1lZHZpZXcgYm9yZGVyY29sb3I9IiM2NjY2NjYiIGJvcmRlcm9wYWNpdHk9IjEiIGZpdC1tYXJnaW4tYm90dG9tPSIwIiBmaXQtbWFyZ2luLWxlZnQ9IjAiIGZpdC1tYXJnaW4tcmlnaHQ9IjAiIGZpdC1tYXJnaW4tdG9wPSIwIiBncmlkdG9sZXJhbmNlPSIxMCIgZ3VpZGV0b2xlcmFuY2U9IjEwIiBpZD0ibmFtZWR2aWV3OTcwODYiIGlua3NjYXBlOmN1cnJlbnQtbGF5ZXI9InN2Zzk3MDg0IiBpbmtzY2FwZTpjeD0iLTQ2LjkyMDI2NSIgaW5rc2NhcGU6Y3k9IjM4LjczMTY2NiIgaW5rc2NhcGU6cGFnZW9wYWNpdHk9IjAiIGlua3NjYXBlOnBhZ2VzaGFkb3c9IjIiIGlua3NjYXBlOndpbmRvdy1oZWlnaHQ9IjEwMTciIGlua3NjYXBlOndpbmRvdy1tYXhpbWl6ZWQ9IjEiIGlua3NjYXBlOndpbmRvdy13aWR0aD0iMTkyMCIgaW5rc2NhcGU6d2luZG93LXg9Ii04IiBpbmtzY2FwZTp3aW5kb3cteT0iLTgiIGlua3NjYXBlOnpvb209IjUuMjE5MzE5NyIgb2JqZWN0dG9sZXJhbmNlPSIxMCIgcGFnZWNvbG9yPSIjZmZmZmZmIiBzaG93Z3JpZD0iZmFsc2UiPiYjeGE7CTwvc29kaXBvZGk6bmFtZWR2aWV3PiYjeGE7JiN4YTs8cGF0aCBpZD0icGF0aDk3MDE0IiBpbmtzY2FwZTpjb25uZWN0b3ItY3VydmF0dXJlPSIwIiBzdHlsZT0iZmlsbDojMDA3MmM2IiBkPSJtIDAsMTMuNjggdiA3Mi43NSBjIDAsNy41NSAxNi45MSwxMy42OCAzNy43NiwxMy42OCBWIDEzLjY4IGMgMCwwIC0zNy43NiwwIC0zNy43NiwwIHoiLz4mI3hhOyYjeGE7PHBhdGggaWQ9InBhdGg5NzAyMiIgaW5rc2NhcGU6Y29ubmVjdG9yLWN1cnZhdHVyZT0iMCIgc3R5bGU9ImZpbGw6IzAwNzJjNiIgZD0ibSAzNy4yNCwxMDAuMTEgaCAwLjUyIGMgMjAuODUsMCAzNy43NiwtNi4xMyAzNy43NiwtMTMuNjggViAxMy42OCBIIDM3LjI0IFoiLz4mI3hhOyYjeGE7PHBhdGggaWQ9InBhdGg5NzAzMCIgaW5rc2NhcGU6Y29ubmVjdG9yLWN1cnZhdHVyZT0iMCIgc3R5bGU9ImZpbGw6I2ZmZmZmZjtmaWxsLW9wYWNpdHk6MC4xNSIgZD0ibSAzNy4yNCwxMDAuMTEgaCAwLjUyIGMgMjAuODUsMCAzNy43NiwtNi4xMyAzNy43NiwtMTMuNjggViAxMy42OCBIIDM3LjI0IFoiLz4mI3hhOyYjeGE7PHBhdGggaWQ9InBhdGg5NzAzOCIgaW5rc2NhcGU6Y29ubmVjdG9yLWN1cnZhdHVyZT0iMCIgc3R5bGU9ImZpbGw6I2ZmZmZmZiIgZD0ibSA3NS41MiwxMy42OCBjIDAsNy41NSAtMTYuOTEsMTMuNjggLTM3Ljc2LDEzLjY4IEMgMTYuOTEsMjcuMzYgMCwyMS4yMyAwLDEzLjY4IDAsNi4xMyAxNi45MSwwIDM3Ljc2LDAgNTguNjEsMCA3NS41Miw2LjEzIDc1LjUyLDEzLjY4IFoiLz4mI3hhOyYjeGE7PHBhdGggaWQ9InBhdGg5NzA0NiIgaW5rc2NhcGU6Y29ubmVjdG9yLWN1cnZhdHVyZT0iMCIgc3R5bGU9ImZpbGw6IzdmYmEwMCIgZD0ibSA2Ny44LDEyLjg5IGMgMCw0Ljk5IC0xMy40NSw5LjAzIC0zMC4wNCw5LjAzIC0xNi41OSwwIC0zMC4wNCwtNC4wNCAtMzAuMDQsLTkuMDMgMCwtNC45OCAxMy40NSwtOS4wMiAzMC4wNCwtOS4wMiAxNi41OSwwIDMwLjA0LDQuMDQgMzAuMDQsOS4wMiB6Ii8+JiN4YTsmI3hhOzxwYXRoIGlkPSJwYXRoOTcwNTQiIGlua3NjYXBlOmNvbm5lY3Rvci1jdXJ2YXR1cmU9IjAiIHN0eWxlPSJmaWxsOiNiOGQ0MzIiIGQ9Ik0gNjEuNTEsMTguNDEgQyA2NS40NCwxNi44OCA2Ny44LDE0Ljk3IDY3LjgsMTIuOSA2Ny44LDcuOTEgNTQuMzUsMy44NyAzNy43NiwzLjg3IDIxLjE3LDMuODcgNy43Miw3LjkxIDcuNzIsMTIuOSBjIDAsMi4wNyAyLjM2LDMuOTggNi4zLDUuNTEgNS40OSwtMi4xNCAxNC4wNywtMy41MSAyMy43NCwtMy41MSA5LjY3LDAgMTguMjUsMS4zNyAyMy43NSwzLjUxIHoiLz4mI3hhOyYjeGE7PHBhdGggaWQ9InBhdGg5NzA2MiIgaW5rc2NhcGU6Y29ubmVjdG9yLWN1cnZhdHVyZT0iMCIgc3R5bGU9ImZpbGw6I2ZmZmZmZiIgZD0ibSAyNS43Nyw2NC4xOCBjIDAsMi4yNiAtMC44Miw0LjAxIC0yLjQ2LDUuMjUgLTEuNjQsMS4yNCAtMy45LDEuODcgLTYuNzksMS44NyAtMi40NiwwIC00LjUyLC0wLjQ1IC02LjE3LC0xLjMzIHYgLTUuMzIgYyAxLjksMS42MSA0LDIuNDIgNi4zLDIuNDIgMS4xLDAgMS45NiwtMC4yMiAyLjU3LC0wLjY2IDAuNiwtMC40NCAwLjksLTEuMDMgMC45LC0xLjc2IDAsLTAuNzIgLTAuMjksLTEuMzUgLTAuODcsLTEuODggLTAuNTgsLTAuNTMgLTEuNzcsLTEuMjIgLTMuNTUsLTIuMDYgLTMuNjMsLTEuNzEgLTUuNDUsLTQuMDQgLTUuNDUsLTYuOTggMCwtMi4xNCAwLjc5LC0zLjg1IDIuMzgsLTUuMTQgMS41OCwtMS4yOSAzLjY5LC0xLjk0IDYuMzEsLTEuOTQgMi4zMywwIDQuMjUsMC4zMSA1Ljc5LDAuOTEgdiA0Ljk3IGMgLTEuNjEsLTEuMTEgLTMuNDQsLTEuNjYgLTUuNDksLTEuNjYgLTEuMDMsMCAtMS44NCwwLjIyIC0yLjQ0LDAuNjYgLTAuNiwwLjQzIC0wLjksMS4wMiAtMC45LDEuNzUgMCwwLjc1IDAuMjQsMS4zNyAwLjczLDEuODUgMC40OCwwLjQ4IDEuNDcsMS4wOCAyLjk2LDEuNzkgMi4yMywxLjA1IDMuODIsMi4xMiA0Ljc2LDMuMjEgMC45NSwxLjA4IDEuNDIsMi40NCAxLjQyLDQuMDUgeiIvPiYjeGE7JiN4YTs8cGF0aCBpZD0icGF0aDk3MDcwIiBpbmtzY2FwZTpjb25uZWN0b3ItY3VydmF0dXJlPSIwIiBzdHlsZT0iZmlsbDojZmZmZmZmIiBkPSJtIDUxLjQxLDU4Ljc5IGMgMCwyLjgxIC0wLjY0LDUuMjQgLTEuOTEsNy4zIC0xLjI4LDIuMDYgLTMuMDcsMy41IC01LjM5LDQuMzQgbCA2LjkyLDYuNCBIIDQ0LjA1IEwgMzkuMTEsNzEuMjkgQyAzNyw3MS4yMSAzNS4wOSw3MC42NSAzMy4zOSw2OS42MSBjIC0xLjcsLTEuMDQgLTMuMDIsLTIuNDcgLTMuOTQsLTQuMjggLTAuOTMsLTEuODEgLTEuMzksLTMuODMgLTEuMzksLTYuMDUgMCwtMi40NyAwLjUsLTQuNjggMS41LC02LjYxIDEuMDEsLTEuOTMgMi40MSwtMy40MiA0LjIzLC00LjQ2IDEuODIsLTEuMDQgMy45LC0xLjU2IDYuMjUsLTEuNTYgMi4xOSwwIDQuMTYsMC41IDUuODksMS41MSAxLjczLDEuMDEgMy4wOCwyLjQ0IDQuMDQsNC4zIDAuOTYsMS44NiAxLjQ0LDMuOTcgMS40NCw2LjMzIHogbSAtNS42NSwwLjMgYyAwLC0yLjQxIC0wLjUyLC00LjMyIC0xLjU4LC01LjcyIC0xLjA1LC0xLjQgLTIuNDksLTIuMSAtNC4zMiwtMi4xIC0xLjg2LDAgLTMuMzUsMC43IC00LjQ3LDIuMSAtMS4xMiwxLjQxIC0xLjY4LDMuMjggLTEuNjgsNS42MiAwLDIuMzMgMC41NSw0LjE5IDEuNjUsNS41OCAxLjA5LDEuMzkgMi41NSwyLjA4IDQuMzYsMi4wOCAxLjg2LDAgMy4zMiwtMC42NyA0LjQxLC0yLjAyIDEuMDksLTEuMzQgMS42MywtMy4xOSAxLjYzLC01LjU0IHoiLz4mI3hhOyYjeGE7PHBhdGggaWQ9InBhdGg5NzA3OCIgaW5rc2NhcGU6Y29ubmVjdG9yLWN1cnZhdHVyZT0iMCIgc3R5bGU9ImZpbGw6I2ZmZmZmZiIgZD0iTSA2OS41NCw3MC44OCBIIDU1LjM1IFYgNDcuMDUgaCA1LjM3IHYgMTkuNDcgaCA4LjgyIHoiLz4mI3hhOzwvc3ZnPg==;" vertex="1" parent="y8VJ0qSuv6ieIUMJYx79-72">
          <mxGeometry x="54" y="29.75" width="23.21" height="30" as="geometry" />
        </mxCell>
        <mxCell id="y8VJ0qSuv6ieIUMJYx79-80" style="edgeStyle=orthogonalEdgeStyle;rounded=0;orthogonalLoop=1;jettySize=auto;html=1;" edge="1" parent="1" source="y8VJ0qSuv6ieIUMJYx79-75">
          <mxGeometry relative="1" as="geometry">
            <mxPoint x="1710" y="440" as="targetPoint" />
            <Array as="points">
              <mxPoint x="1567" y="440" />
            </Array>
          </mxGeometry>
        </mxCell>
        <mxCell id="y8VJ0qSuv6ieIUMJYx79-81" style="edgeStyle=orthogonalEdgeStyle;rounded=0;orthogonalLoop=1;jettySize=auto;html=1;entryX=-0.04;entryY=0.503;entryDx=0;entryDy=0;entryPerimeter=0;" edge="1" parent="1" source="y8VJ0qSuv6ieIUMJYx79-75" target="y8VJ0qSuv6ieIUMJYx79-77">
          <mxGeometry relative="1" as="geometry">
            <mxPoint x="1690" y="565" as="targetPoint" />
            <Array as="points">
              <mxPoint x="1567" y="565" />
            </Array>
          </mxGeometry>
        </mxCell>
        <mxCell id="y8VJ0qSuv6ieIUMJYx79-75" value="Load&lt;br&gt;Balancer" style="shadow=0;dashed=0;html=1;strokeColor=none;labelPosition=center;verticalLabelPosition=bottom;verticalAlign=top;align=center;shape=mxgraph.mscae.cloud.azure_automatic_load_balancer;fillColor=#0079D6;pointerEvents=1;labelBackgroundColor=#F5F5F5;fontColor=#000000;spacingTop=3;" vertex="1" parent="1">
          <mxGeometry x="1541.65" y="486" width="50" height="33" as="geometry" />
        </mxCell>
        <mxCell id="y8VJ0qSuv6ieIUMJYx79-76" value="Vm-Database server" style="group;labelPosition=center;verticalLabelPosition=bottom;align=center;verticalAlign=top;" vertex="1" connectable="0" parent="1">
          <mxGeometry x="1700" y="540" width="77.21000000000001" height="59.75" as="geometry" />
        </mxCell>
        <mxCell id="y8VJ0qSuv6ieIUMJYx79-77" value="" style="aspect=fixed;html=1;perimeter=none;align=center;shadow=0;dashed=0;image;fontSize=12;image=img/lib/mscae/Virtual_Machine.svg;" vertex="1" parent="y8VJ0qSuv6ieIUMJYx79-76">
          <mxGeometry x="11.61" width="54" height="50" as="geometry" />
        </mxCell>
        <mxCell id="y8VJ0qSuv6ieIUMJYx79-78" value="" style="shape=image;verticalLabelPosition=bottom;labelBackgroundColor=#ffffff;verticalAlign=top;aspect=fixed;imageAspect=0;image=data:image/svg+xml,PHN2ZyB4bWxuczpkYz0iaHR0cDovL3B1cmwub3JnL2RjL2VsZW1lbnRzLzEuMS8iIHhtbG5zOmNjPSJodHRwOi8vY3JlYXRpdmVjb21tb25zLm9yZy9ucyMiIHhtbG5zOnJkZj0iaHR0cDovL3d3dy53My5vcmcvMTk5OS8wMi8yMi1yZGYtc3ludGF4LW5zIyIgeG1sbnM6c3ZnPSJodHRwOi8vd3d3LnczLm9yZy8yMDAwL3N2ZyIgeG1sbnM9Imh0dHA6Ly93d3cudzMub3JnLzIwMDAvc3ZnIiB4bWxuczpzb2RpcG9kaT0iaHR0cDovL3NvZGlwb2RpLnNvdXJjZWZvcmdlLm5ldC9EVEQvc29kaXBvZGktMC5kdGQiIHhtbG5zOmlua3NjYXBlPSJodHRwOi8vd3d3Lmlua3NjYXBlLm9yZy9uYW1lc3BhY2VzL2lua3NjYXBlIiB2ZXJzaW9uPSIxLjEiIGlkPSJzdmc5NzA4NCIgaW5rc2NhcGU6dmVyc2lvbj0iMC45Mi4zICgyNDA1NTQ2LCAyMDE4LTAzLTExKSIgc29kaXBvZGk6ZG9jbmFtZT0ic3FsX2RhdGFiYXNlLnN2ZyIgeD0iMHB4IiB5PSIwcHgiIHZpZXdCb3g9IjAgMCA3NS41MiAxMDAuMTEiIHhtbDpzcGFjZT0icHJlc2VydmUiIHdpZHRoPSI3NS41MTk5OTciIGhlaWdodD0iMTAwLjExIj48bWV0YWRhdGEgaWQ9Im1ldGFkYXRhMTcyNiI+PHJkZjpSREY+PGNjOldvcmsgcmRmOmFib3V0PSIiPjxkYzpmb3JtYXQ+aW1hZ2Uvc3ZnK3htbDwvZGM6Zm9ybWF0PjxkYzp0eXBlIHJkZjpyZXNvdXJjZT0iaHR0cDovL3B1cmwub3JnL2RjL2RjbWl0eXBlL1N0aWxsSW1hZ2UiLz48ZGM6dGl0bGUvPjwvY2M6V29yaz48L3JkZjpSREY+PC9tZXRhZGF0YT48ZGVmcyBpZD0iZGVmczE3MjQiPiYjeGE7CSYjeGE7JiN4YTsJJiN4YTsmI3hhOwkmI3hhOyYjeGE7CSYjeGE7JiN4YTsJJiN4YTsmI3hhOwkmI3hhOyYjeGE7CSYjeGE7JiN4YTsJJiN4YTsmI3hhOwkmI3hhOyYjeGE7CQkmI3hhOwkmI3hhOwkJJiN4YTsJJiN4YTsJCSYjeGE7CSYjeGE7CQkmI3hhOwkmI3hhOwkJJiN4YTsJJiN4YTsJCSYjeGE7CSYjeGE7CQkmI3hhOwkmI3hhOwkJJiN4YTsJPC9kZWZzPiYjeGE7PGZpbHRlciBpZD0iZmlsdGVyXzIiPiYjeGE7CTxmZUdhdXNzaWFuQmx1ciBpZD0iZmVHYXVzc2lhbkJsdXI5NzAwMSIgc3RkRGV2aWF0aW9uPSIyIi8+JiN4YTs8L2ZpbHRlcj4mI3hhOzxzb2RpcG9kaTpuYW1lZHZpZXcgYm9yZGVyY29sb3I9IiM2NjY2NjYiIGJvcmRlcm9wYWNpdHk9IjEiIGZpdC1tYXJnaW4tYm90dG9tPSIwIiBmaXQtbWFyZ2luLWxlZnQ9IjAiIGZpdC1tYXJnaW4tcmlnaHQ9IjAiIGZpdC1tYXJnaW4tdG9wPSIwIiBncmlkdG9sZXJhbmNlPSIxMCIgZ3VpZGV0b2xlcmFuY2U9IjEwIiBpZD0ibmFtZWR2aWV3OTcwODYiIGlua3NjYXBlOmN1cnJlbnQtbGF5ZXI9InN2Zzk3MDg0IiBpbmtzY2FwZTpjeD0iLTQ2LjkyMDI2NSIgaW5rc2NhcGU6Y3k9IjM4LjczMTY2NiIgaW5rc2NhcGU6cGFnZW9wYWNpdHk9IjAiIGlua3NjYXBlOnBhZ2VzaGFkb3c9IjIiIGlua3NjYXBlOndpbmRvdy1oZWlnaHQ9IjEwMTciIGlua3NjYXBlOndpbmRvdy1tYXhpbWl6ZWQ9IjEiIGlua3NjYXBlOndpbmRvdy13aWR0aD0iMTkyMCIgaW5rc2NhcGU6d2luZG93LXg9Ii04IiBpbmtzY2FwZTp3aW5kb3cteT0iLTgiIGlua3NjYXBlOnpvb209IjUuMjE5MzE5NyIgb2JqZWN0dG9sZXJhbmNlPSIxMCIgcGFnZWNvbG9yPSIjZmZmZmZmIiBzaG93Z3JpZD0iZmFsc2UiPiYjeGE7CTwvc29kaXBvZGk6bmFtZWR2aWV3PiYjeGE7JiN4YTs8cGF0aCBpZD0icGF0aDk3MDE0IiBpbmtzY2FwZTpjb25uZWN0b3ItY3VydmF0dXJlPSIwIiBzdHlsZT0iZmlsbDojMDA3MmM2IiBkPSJtIDAsMTMuNjggdiA3Mi43NSBjIDAsNy41NSAxNi45MSwxMy42OCAzNy43NiwxMy42OCBWIDEzLjY4IGMgMCwwIC0zNy43NiwwIC0zNy43NiwwIHoiLz4mI3hhOyYjeGE7PHBhdGggaWQ9InBhdGg5NzAyMiIgaW5rc2NhcGU6Y29ubmVjdG9yLWN1cnZhdHVyZT0iMCIgc3R5bGU9ImZpbGw6IzAwNzJjNiIgZD0ibSAzNy4yNCwxMDAuMTEgaCAwLjUyIGMgMjAuODUsMCAzNy43NiwtNi4xMyAzNy43NiwtMTMuNjggViAxMy42OCBIIDM3LjI0IFoiLz4mI3hhOyYjeGE7PHBhdGggaWQ9InBhdGg5NzAzMCIgaW5rc2NhcGU6Y29ubmVjdG9yLWN1cnZhdHVyZT0iMCIgc3R5bGU9ImZpbGw6I2ZmZmZmZjtmaWxsLW9wYWNpdHk6MC4xNSIgZD0ibSAzNy4yNCwxMDAuMTEgaCAwLjUyIGMgMjAuODUsMCAzNy43NiwtNi4xMyAzNy43NiwtMTMuNjggViAxMy42OCBIIDM3LjI0IFoiLz4mI3hhOyYjeGE7PHBhdGggaWQ9InBhdGg5NzAzOCIgaW5rc2NhcGU6Y29ubmVjdG9yLWN1cnZhdHVyZT0iMCIgc3R5bGU9ImZpbGw6I2ZmZmZmZiIgZD0ibSA3NS41MiwxMy42OCBjIDAsNy41NSAtMTYuOTEsMTMuNjggLTM3Ljc2LDEzLjY4IEMgMTYuOTEsMjcuMzYgMCwyMS4yMyAwLDEzLjY4IDAsNi4xMyAxNi45MSwwIDM3Ljc2LDAgNTguNjEsMCA3NS41Miw2LjEzIDc1LjUyLDEzLjY4IFoiLz4mI3hhOyYjeGE7PHBhdGggaWQ9InBhdGg5NzA0NiIgaW5rc2NhcGU6Y29ubmVjdG9yLWN1cnZhdHVyZT0iMCIgc3R5bGU9ImZpbGw6IzdmYmEwMCIgZD0ibSA2Ny44LDEyLjg5IGMgMCw0Ljk5IC0xMy40NSw5LjAzIC0zMC4wNCw5LjAzIC0xNi41OSwwIC0zMC4wNCwtNC4wNCAtMzAuMDQsLTkuMDMgMCwtNC45OCAxMy40NSwtOS4wMiAzMC4wNCwtOS4wMiAxNi41OSwwIDMwLjA0LDQuMDQgMzAuMDQsOS4wMiB6Ii8+JiN4YTsmI3hhOzxwYXRoIGlkPSJwYXRoOTcwNTQiIGlua3NjYXBlOmNvbm5lY3Rvci1jdXJ2YXR1cmU9IjAiIHN0eWxlPSJmaWxsOiNiOGQ0MzIiIGQ9Ik0gNjEuNTEsMTguNDEgQyA2NS40NCwxNi44OCA2Ny44LDE0Ljk3IDY3LjgsMTIuOSA2Ny44LDcuOTEgNTQuMzUsMy44NyAzNy43NiwzLjg3IDIxLjE3LDMuODcgNy43Miw3LjkxIDcuNzIsMTIuOSBjIDAsMi4wNyAyLjM2LDMuOTggNi4zLDUuNTEgNS40OSwtMi4xNCAxNC4wNywtMy41MSAyMy43NCwtMy41MSA5LjY3LDAgMTguMjUsMS4zNyAyMy43NSwzLjUxIHoiLz4mI3hhOyYjeGE7PHBhdGggaWQ9InBhdGg5NzA2MiIgaW5rc2NhcGU6Y29ubmVjdG9yLWN1cnZhdHVyZT0iMCIgc3R5bGU9ImZpbGw6I2ZmZmZmZiIgZD0ibSAyNS43Nyw2NC4xOCBjIDAsMi4yNiAtMC44Miw0LjAxIC0yLjQ2LDUuMjUgLTEuNjQsMS4yNCAtMy45LDEuODcgLTYuNzksMS44NyAtMi40NiwwIC00LjUyLC0wLjQ1IC02LjE3LC0xLjMzIHYgLTUuMzIgYyAxLjksMS42MSA0LDIuNDIgNi4zLDIuNDIgMS4xLDAgMS45NiwtMC4yMiAyLjU3LC0wLjY2IDAuNiwtMC40NCAwLjksLTEuMDMgMC45LC0xLjc2IDAsLTAuNzIgLTAuMjksLTEuMzUgLTAuODcsLTEuODggLTAuNTgsLTAuNTMgLTEuNzcsLTEuMjIgLTMuNTUsLTIuMDYgLTMuNjMsLTEuNzEgLTUuNDUsLTQuMDQgLTUuNDUsLTYuOTggMCwtMi4xNCAwLjc5LC0zLjg1IDIuMzgsLTUuMTQgMS41OCwtMS4yOSAzLjY5LC0xLjk0IDYuMzEsLTEuOTQgMi4zMywwIDQuMjUsMC4zMSA1Ljc5LDAuOTEgdiA0Ljk3IGMgLTEuNjEsLTEuMTEgLTMuNDQsLTEuNjYgLTUuNDksLTEuNjYgLTEuMDMsMCAtMS44NCwwLjIyIC0yLjQ0LDAuNjYgLTAuNiwwLjQzIC0wLjksMS4wMiAtMC45LDEuNzUgMCwwLjc1IDAuMjQsMS4zNyAwLjczLDEuODUgMC40OCwwLjQ4IDEuNDcsMS4wOCAyLjk2LDEuNzkgMi4yMywxLjA1IDMuODIsMi4xMiA0Ljc2LDMuMjEgMC45NSwxLjA4IDEuNDIsMi40NCAxLjQyLDQuMDUgeiIvPiYjeGE7JiN4YTs8cGF0aCBpZD0icGF0aDk3MDcwIiBpbmtzY2FwZTpjb25uZWN0b3ItY3VydmF0dXJlPSIwIiBzdHlsZT0iZmlsbDojZmZmZmZmIiBkPSJtIDUxLjQxLDU4Ljc5IGMgMCwyLjgxIC0wLjY0LDUuMjQgLTEuOTEsNy4zIC0xLjI4LDIuMDYgLTMuMDcsMy41IC01LjM5LDQuMzQgbCA2LjkyLDYuNCBIIDQ0LjA1IEwgMzkuMTEsNzEuMjkgQyAzNyw3MS4yMSAzNS4wOSw3MC42NSAzMy4zOSw2OS42MSBjIC0xLjcsLTEuMDQgLTMuMDIsLTIuNDcgLTMuOTQsLTQuMjggLTAuOTMsLTEuODEgLTEuMzksLTMuODMgLTEuMzksLTYuMDUgMCwtMi40NyAwLjUsLTQuNjggMS41LC02LjYxIDEuMDEsLTEuOTMgMi40MSwtMy40MiA0LjIzLC00LjQ2IDEuODIsLTEuMDQgMy45LC0xLjU2IDYuMjUsLTEuNTYgMi4xOSwwIDQuMTYsMC41IDUuODksMS41MSAxLjczLDEuMDEgMy4wOCwyLjQ0IDQuMDQsNC4zIDAuOTYsMS44NiAxLjQ0LDMuOTcgMS40NCw2LjMzIHogbSAtNS42NSwwLjMgYyAwLC0yLjQxIC0wLjUyLC00LjMyIC0xLjU4LC01LjcyIC0xLjA1LC0xLjQgLTIuNDksLTIuMSAtNC4zMiwtMi4xIC0xLjg2LDAgLTMuMzUsMC43IC00LjQ3LDIuMSAtMS4xMiwxLjQxIC0xLjY4LDMuMjggLTEuNjgsNS42MiAwLDIuMzMgMC41NSw0LjE5IDEuNjUsNS41OCAxLjA5LDEuMzkgMi41NSwyLjA4IDQuMzYsMi4wOCAxLjg2LDAgMy4zMiwtMC42NyA0LjQxLC0yLjAyIDEuMDksLTEuMzQgMS42MywtMy4xOSAxLjYzLC01LjU0IHoiLz4mI3hhOyYjeGE7PHBhdGggaWQ9InBhdGg5NzA3OCIgaW5rc2NhcGU6Y29ubmVjdG9yLWN1cnZhdHVyZT0iMCIgc3R5bGU9ImZpbGw6I2ZmZmZmZiIgZD0iTSA2OS41NCw3MC44OCBIIDU1LjM1IFYgNDcuMDUgaCA1LjM3IHYgMTkuNDcgaCA4LjgyIHoiLz4mI3hhOzwvc3ZnPg==;" vertex="1" parent="y8VJ0qSuv6ieIUMJYx79-76">
          <mxGeometry x="54" y="29.75" width="23.21" height="30" as="geometry" />
        </mxCell>
        <mxCell id="y8VJ0qSuv6ieIUMJYx79-84" value="" style="shape=image;verticalLabelPosition=bottom;labelBackgroundColor=#ffffff;verticalAlign=top;aspect=fixed;imageAspect=0;image=data:image/svg+xml,PHN2ZyB4bWxuczpkYz0iaHR0cDovL3B1cmwub3JnL2RjL2VsZW1lbnRzLzEuMS8iIHhtbG5zOmNjPSJodHRwOi8vY3JlYXRpdmVjb21tb25zLm9yZy9ucyMiIHhtbG5zOnJkZj0iaHR0cDovL3d3dy53My5vcmcvMTk5OS8wMi8yMi1yZGYtc3ludGF4LW5zIyIgeG1sbnM6c3ZnPSJodHRwOi8vd3d3LnczLm9yZy8yMDAwL3N2ZyIgeG1sbnM9Imh0dHA6Ly93d3cudzMub3JnLzIwMDAvc3ZnIiB4bWxuczpzb2RpcG9kaT0iaHR0cDovL3NvZGlwb2RpLnNvdXJjZWZvcmdlLm5ldC9EVEQvc29kaXBvZGktMC5kdGQiIHhtbG5zOmlua3NjYXBlPSJodHRwOi8vd3d3Lmlua3NjYXBlLm9yZy9uYW1lc3BhY2VzL2lua3NjYXBlIiB2ZXJzaW9uPSIxLjEiIGlkPSJzdmc4NjMzNyIgaW5rc2NhcGU6dmVyc2lvbj0iMC45Mi4zICgyNDA1NTQ2LCAyMDE4LTAzLTExKSIgc29kaXBvZGk6ZG9jbmFtZT0ibXVsdGlfZmFjdG9yX2F1dGhlbnRpY2F0aW9uLnN2ZyIgeD0iMHB4IiB5PSIwcHgiIHZpZXdCb3g9IjAgMCA0NC4zNTMxMTMgOTUuNjQzODY4IiB4bWw6c3BhY2U9InByZXNlcnZlIiB3aWR0aD0iNDQuMzUzMTExIiBoZWlnaHQ9Ijk1LjY0Mzg2NyI+PG1ldGFkYXRhIGlkPSJtZXRhZGF0YTU1ODIiPjxyZGY6UkRGPjxjYzpXb3JrIHJkZjphYm91dD0iIj48ZGM6Zm9ybWF0PmltYWdlL3N2Zyt4bWw8L2RjOmZvcm1hdD48ZGM6dHlwZSByZGY6cmVzb3VyY2U9Imh0dHA6Ly9wdXJsLm9yZy9kYy9kY21pdHlwZS9TdGlsbEltYWdlIi8+PGRjOnRpdGxlLz48L2NjOldvcms+PC9yZGY6UkRGPjwvbWV0YWRhdGE+PGRlZnMgaWQ9ImRlZnM1NTgwIi8+JiN4YTs8ZmlsdGVyIGlkPSJmaWx0ZXJfMiI+JiN4YTsJPGZlR2F1c3NpYW5CbHVyIGlkPSJmZUdhdXNzaWFuQmx1cjg2MzAyIiBzdGREZXZpYXRpb249IjIiLz4mI3hhOzwvZmlsdGVyPiYjeGE7PHNvZGlwb2RpOm5hbWVkdmlldyBib3JkZXJjb2xvcj0iIzY2NjY2NiIgYm9yZGVyb3BhY2l0eT0iMSIgZml0LW1hcmdpbi1ib3R0b209IjAiIGZpdC1tYXJnaW4tbGVmdD0iMCIgZml0LW1hcmdpbi1yaWdodD0iMCIgZml0LW1hcmdpbi10b3A9IjAiIGdyaWR0b2xlcmFuY2U9IjEwIiBndWlkZXRvbGVyYW5jZT0iMTAiIGlkPSJuYW1lZHZpZXc4NjMzOSIgaW5rc2NhcGU6Y3VycmVudC1sYXllcj0ic3ZnODYzMzciIGlua3NjYXBlOmN4PSItNDYuNDQ4NjE5IiBpbmtzY2FwZTpjeT0iNDYuMDA4OTcxIiBpbmtzY2FwZTpwYWdlb3BhY2l0eT0iMCIgaW5rc2NhcGU6cGFnZXNoYWRvdz0iMiIgaW5rc2NhcGU6d2luZG93LWhlaWdodD0iMTAxNyIgaW5rc2NhcGU6d2luZG93LW1heGltaXplZD0iMSIgaW5rc2NhcGU6d2luZG93LXdpZHRoPSIxOTIwIiBpbmtzY2FwZTp3aW5kb3cteD0iLTgiIGlua3NjYXBlOndpbmRvdy15PSItOCIgaW5rc2NhcGU6em9vbT0iNy42NTUzNTQiIG9iamVjdHRvbGVyYW5jZT0iMTAiIHBhZ2Vjb2xvcj0iI2ZmZmZmZiIgc2hvd2dyaWQ9ImZhbHNlIj4mI3hhOwk8L3NvZGlwb2RpOm5hbWVkdmlldz4mI3hhOyYjeGE7PGVsbGlwc2UgaWQ9ImVsbGlwc2U4NjMxNSIgc3R5bGU9ImZpbGw6I2I4ZDQzMiIgY3g9IjE2LjA4Mjc2NiIgY3k9IjcuMDc3ODM3NSIgcng9IjUuMzQwMDAwMiIgcnk9IjMuMDUiLz4mI3hhOyYjeGE7PHBhdGggaWQ9InBhdGg4NjMyMyIgaW5rc2NhcGU6Y29ubmVjdG9yLWN1cnZhdHVyZT0iMCIgc3R5bGU9ImZpbGw6IzNlM2UzZSIgZD0ibSAzNS4xNzI3NjUsNDIuNTc3ODM3IC0yNi4xNTAwMDA0LDMuMjQgLTMuNDMsLTI3LjQ4IGMgLTAuMTksLTIuMjkgMS4zMywtNC4xOSAzLjYyLC00LjM5IGwgMTUuMDgwMDAwNCwtMS45IGMgMi4yOSwtMC4xOSA0LjIsMS4xNCA0LjU4LDMuNDMgbCAyLjQ4LDE5Ljg1IGMgMC4xOSwxLjE0IDEuMTQsMS45MSAyLjI5LDEuNzIgMS4xNCwtMC4xOSAxLjkxLC0xLjE1IDEuNzIsLTIuMjkgbCAtMy44MiwtMzEuMjk5OTk5NiBjIC0wLjE5LC0yLjI5IC0yLjI5LC0zLjYyOTk5OTk3IC00LjU4LC0zLjQzOTk5OTk3IEwgMy42ODI3NjQ2LDMuMDc3ODM3NCBjIC0yLjI5LDAuMTkgLTQuMDA5OTk5OTgsMi4xIC0zLjYyOTk5OTk4LDQuMzkgTCA0LjgyMjc2NDYsNDUuODE3ODM3IGMgMCwwLjM5IDAuMTksMC41OCAwLjE5LDAuOTYgLTEuMTQsMC43NiAtMS43MSwyLjEgLTEuNTIsMy40MyBsIDUuMzQsNDEuOTkgYyAwLjE5LDIuMSAyLjI5MDAwMDQsMy42MiA0LjIwMDAwMDQsMy40MyBsIDI4LjI0LC0zLjgxIGMgMi4xLC0wLjE5IDMuMjUsLTIuMjkgMy4wNiwtNC4zOSBsIC01LjM1LC00MS45OSBjIC0wLjE5LC0xLjkxIC0xLjkxLC0zLjA1IC0zLjgxLC0yLjg2IHogbSAtMjAuODEsLTM2LjgyOTk5OTYgMy4yNSwtMC4zOCBjIDAuNzYsLTAuMTkgMS41MywwLjM4IDEuNTMsMS4xNCAwLjE5LDAuNzcgLTAuMzksMS41MyAtMS4xNSwxLjUzIGwgLTMuMjQsMC4zOCBjIC0wLjc3LDAuMTkgLTEuNTMsLTAuMzggLTEuNTMsLTEuMTQgLTAuMTksLTAuNzcgMC4zOCwtMS4zNCAxLjE0LC0xLjUzIHogbSAxMS42NSw2MC4yOTk5OTk2IDAuNzYsNi42OCAtNC45NiwwLjU4IC0wLjk2LC02Ljg3IGMgLTEuNTIsLTAuNzcgLTMuMDUsLTIuMjkgLTMuNDMsLTQuMzkgLTAuMzgsLTMuMDYgMS43MiwtNS43MyA0Ljc3LC02LjExIDMuMDUsLTAuMzggNS43MiwxLjcyIDYuMTEsNC43NyAwLjM4LDIuMjkgLTAuMiw0LjIgLTIuMjksNS4zNCB6Ii8+JiN4YTsmI3hhOzxwYXRoIGlkPSJwYXRoODYzMzEiIGlua3NjYXBlOmNvbm5lY3Rvci1jdXJ2YXR1cmU9IjAiIHN0eWxlPSJmaWxsOiNmZmZmZmY7ZmlsbC1vcGFjaXR5OjAuMTUiIGQ9Im0gNC44MjI3NjQ2LDQ1LjYyNzgzNyBjIDAsMC4zOCAwLjE5LDAuNTcgMC4xOSwwLjk2IC0xLjE0LDAuNzYgLTEuNzEsMi4xIC0xLjUyLDMuNDMgbCAzLjI0LDI1Ljc2IDEyLjYwMDAwMDQsLTMxLjEgLTEwLjMxMDAwMDQsMS4xNCAtMy40MywtMjcuNDggYyAtMC4xOSwtMi4yOSAxLjMzLC00LjIgMy42MiwtNC4zOSBsIDE1LjA4MDAwMDQsLTEuOTEgYyAyLjI5LC0wLjE5IDQuMiwxLjE1IDQuNTgsMy40NCBsIDAuNTcsNC4yIDMuMjUsLTcuODMgLTAuOTYsLTguMTk5OTk5NiBjIC0wLjE5LC0yLjI5IC0yLjI5LC0zLjYyOTk5OTk3IC00LjU4LC0zLjQzOTk5OTk3IEwgMy42ODI3NjQ2LDMuMDY3ODM3NCBjIC0yLjI5LDAuMiAtNC4wMDk5OTk5OCwyLjEgLTMuNjI5OTk5OTgsNC4zOSB6IG0gOS41NDAwMDA0LC0zOS44Nzk5OTk2IDMuMjUsLTAuMzkgYyAwLjc2LC0wLjE5IDEuNTMsMC4zOSAxLjUzLDEuMTUgMC4xOSwwLjc2IC0wLjM5LDEuNTMgLTEuMTUsMS41MyBsIC0zLjI0LDAuMzggYyAtMC43NywwLjE5IC0xLjUzLC0wLjM4IC0xLjUzLC0xLjE1IC0wLjE5LC0wLjc2IDAuMzgsLTEuMzMgMS4xNCwtMS41MiB6Ii8+JiN4YTs8L3N2Zz4=;" vertex="1" parent="1">
          <mxGeometry x="457.17" y="200" width="25.67" height="56" as="geometry" />
        </mxCell>
        <mxCell id="y8VJ0qSuv6ieIUMJYx79-141" value="" style="shape=image;verticalLabelPosition=bottom;labelBackgroundColor=#ffffff;verticalAlign=top;aspect=fixed;imageAspect=0;image=data:image/svg+xml,PHN2ZyB4bWxuczpjYz0iaHR0cDovL2NyZWF0aXZlY29tbW9ucy5vcmcvbnMjIiB4bWxuczpkYz0iaHR0cDovL3B1cmwub3JnL2RjL2VsZW1lbnRzLzEuMS8iIHhtbG5zOmlua3NjYXBlPSJodHRwOi8vd3d3Lmlua3NjYXBlLm9yZy9uYW1lc3BhY2VzL2lua3NjYXBlIiB4bWxuczpyZGY9Imh0dHA6Ly93d3cudzMub3JnLzE5OTkvMDIvMjItcmRmLXN5bnRheC1ucyMiIHhtbG5zOnNvZGlwb2RpPSJodHRwOi8vc29kaXBvZGkuc291cmNlZm9yZ2UubmV0L0RURC9zb2RpcG9kaS0wLmR0ZCIgeG1sbnM6c3ZnPSJodHRwOi8vd3d3LnczLm9yZy8yMDAwL3N2ZyIgeG1sbnM9Imh0dHA6Ly93d3cudzMub3JnLzIwMDAvc3ZnIiB4bWxuczp4bGluaz0iaHR0cDovL3d3dy53My5vcmcvMTk5OS94bGluayIgdmVyc2lvbj0iMS4xIiBpZD0ic3ZnNTg0NTUiIGlua3NjYXBlOnZlcnNpb249IjAuOTIuMyAoMjQwNTU0NiwgMjAxOC0wMy0xMSkiIHNvZGlwb2RpOmRvY25hbWU9ImF6dXJlX2ZpcmV3YWxsLnN2ZyIgeD0iMHB4IiB5PSIwcHgiIHZpZXdCb3g9IjAgMCAzNy40MiAzNy40MyIgc3R5bGU9ImVuYWJsZS1iYWNrZ3JvdW5kOm5ldyAwIDAgMzcuNDIgMzcuNDM7IiB4bWw6c3BhY2U9InByZXNlcnZlIj4mI3hhOzxzb2RpcG9kaTpuYW1lZHZpZXcgYm9yZGVyY29sb3I9IiM2NjY2NjYiIGJvcmRlcm9wYWNpdHk9IjEiIGZpdC1tYXJnaW4tYm90dG9tPSIwIiBmaXQtbWFyZ2luLWxlZnQ9IjAiIGZpdC1tYXJnaW4tcmlnaHQ9IjAiIGZpdC1tYXJnaW4tdG9wPSIwIiBncmlkdG9sZXJhbmNlPSIxMCIgZ3VpZGV0b2xlcmFuY2U9IjEwIiBpZD0ibmFtZWR2aWV3NTg0NTciIGlua3NjYXBlOmN1cnJlbnQtbGF5ZXI9InN2ZzU4NDU1IiBpbmtzY2FwZTpjeD0iMzQuMTg2MzE2IiBpbmtzY2FwZTpjeT0iMTguNzQ1Mzk3IiBpbmtzY2FwZTpwYWdlb3BhY2l0eT0iMCIgaW5rc2NhcGU6cGFnZXNoYWRvdz0iMiIgaW5rc2NhcGU6d2luZG93LWhlaWdodD0iMTAxNyIgaW5rc2NhcGU6d2luZG93LW1heGltaXplZD0iMSIgaW5rc2NhcGU6d2luZG93LXdpZHRoPSIxOTIwIiBpbmtzY2FwZTp3aW5kb3cteD0iLTgiIGlua3NjYXBlOndpbmRvdy15PSItOCIgaW5rc2NhcGU6em9vbT0iMTEuODEyMzYyIiBvYmplY3R0b2xlcmFuY2U9IjEwIiBwYWdlY29sb3I9IiNmZmZmZmYiIHNob3dncmlkPSJmYWxzZSI+JiN4YTsJPC9zb2RpcG9kaTpuYW1lZHZpZXc+JiN4YTs8ZyBpZD0iZzU4NDUzIiB0cmFuc2Zvcm09InRyYW5zbGF0ZSgtMC43NSwtMC43NTA3KSI+JiN4YTsJPHRpdGxlIGlkPSJ0aXRsZTU4Mjg0Ij5QYWdlLTE8L3RpdGxlPiYjeGE7CTxnIGlkPSJncm91cDU5NTAtMSIgdHJhbnNmb3JtPSJ0cmFuc2xhdGUoMC43NSwtMC43NSkiPiYjeGE7CQk8dGl0bGUgaWQ9InRpdGxlNTgyODYiPkF6dXJlIEZpcmV3YWxsPC90aXRsZT4mI3hhOwkJPGcgaWQ9InNoYXBlNTk1MS0yIiB0cmFuc2Zvcm09InRyYW5zbGF0ZSg3LjU3NSwtMTQuMjQ5MykiPiYjeGE7CQkJPHRpdGxlIGlkPSJ0aXRsZTU4Mjg4Ij5TaGVldC41OTUxPC90aXRsZT4mI3hhOwkJCTxwYXRoIGlkPSJwYXRoNTgyOTAiIGlua3NjYXBlOmNvbm5lY3Rvci1jdXJ2YXR1cmU9IjAiIHN0eWxlPSJmaWxsOiM1OUI0RDk7IiBkPSJNNy4wOSwyMy4yOGMwLjY5LTQuMjcsNC4zNy03LjUzLDguODItNy41MyAgICAgYzQuOTQsMCw4Ljk1LDQuMDIsOC45NSw4Ljk4YzAsMC41OC0wLjA2LDEuMTQtMC4xNywxLjY5YzIuOSwwLjMyLDUuMTYsMi45OCw1LjE2LDYuMjJjMCwzLjQ1LTIuNTksNi4yOS01Ljc2LDYuMjkgICAgIGMtMC43MSwwLTE2LjQ2LDAtMTYuNDYsMEMzLjQzLDM4LjkyLDAsMzUuMzEsMCwzMC45N0MwLDI2LjkxLDMuMTIsMjMuNiw3LjA5LDIzLjI4eiIvPiYjeGE7CQk8L2c+JiN4YTsJCTxnIGlkPSJncm91cDU5NTItNCI+JiN4YTsJCQk8dGl0bGUgaWQ9InRpdGxlNTgyOTMiPlNoZWV0LjU5NTI8L3RpdGxlPiYjeGE7CQkJPGcgaWQ9Imdyb3VwNTk1My01IiB0cmFuc2Zvcm09InRyYW5zbGF0ZSg5Ljc1LC0xNS43NSkiPiYjeGE7CQkJCTx0aXRsZSBpZD0idGl0bGU1ODI5NSI+U2hlZXQuNTk1MzwvdGl0bGU+JiN4YTsJCQkJPGcgaWQ9InNoYXBlNTk1NC02IiB0cmFuc2Zvcm09InRyYW5zbGF0ZSgwLjc1LC0wLjc1KSI+JiN4YTsJCQkJCTx0aXRsZSBpZD0idGl0bGU1ODI5NyI+U2hlZXQuNTk1NDwvdGl0bGU+JiN4YTsJCQkJCTxwYXRoIGlkPSJwYXRoNTgyOTkiIGlua3NjYXBlOmNvbm5lY3Rvci1jdXJ2YXR1cmU9IjAiIHN0eWxlPSJmaWxsOiNERDU5MDA7IiBkPSJNMC43NSwzOC45M0MwLjM0LDM4LjkzLDAsMzguNTksMCwzOC4xOHYtMy43NiAgICAgICBjMC0wLjQxLDAuMzQtMC43NSwwLjc1LTAuNzVIOWMwLjQxLDAsMC43NSwwLjM0LDAuNzUsMC43NXYzLjc2YzAsMC40MS0wLjM0LDAuNzUtMC43NSwwLjc1TDAuNzUsMzguOTN6Ii8+JiN4YTsJCQkJPC9nPiYjeGE7CQkJCTxnIGlkPSJzaGFwZTU5NTUtOCI+JiN4YTsJCQkJCTx0aXRsZSBpZD0idGl0bGU1ODMwMiI+U2hlZXQuNTk1NTwvdGl0bGU+JiN4YTsJCQkJCTxwYXRoIGlkPSJwYXRoNTgzMDQiIGlua3NjYXBlOmNvbm5lY3Rvci1jdXJ2YXR1cmU9IjAiIHN0eWxlPSJmaWxsOiNBMEExQTI7IiBkPSJNOS43NSwzMy42N3YzLjc2SDEuNXYtMy43Nkg5Ljc1eiBNOS43NSwzMi4xNyAgICAgICBIMS41Yy0wLjgzLDAtMS41LDAuNjgtMS41LDEuNXYzLjc2YzAsMC44MiwwLjY3LDEuNSwxLjUsMS41aDguMjVjMC44MywwLDEuNS0wLjY4LDEuNS0xLjV2LTMuNzYgICAgICAgQzExLjI1LDMyLjg1LDEwLjU4LDMyLjE3LDkuNzUsMzIuMTd6Ii8+JiN4YTsJCQkJPC9nPiYjeGE7CQkJPC9nPiYjeGE7CQkJPGcgaWQ9Imdyb3VwNTk1Ni0xMCIgdHJhbnNmb3JtPSJ0cmFuc2xhdGUoMTkuNSwtMTUuNzUpIj4mI3hhOwkJCQk8dGl0bGUgaWQ9InRpdGxlNTgzMDgiPlNoZWV0LjU5NTY8L3RpdGxlPiYjeGE7CQkJCTxnIGlkPSJzaGFwZTU5NTctMTEiIHRyYW5zZm9ybT0idHJhbnNsYXRlKDAuNzUsLTAuNzUpIj4mI3hhOwkJCQkJPHRpdGxlIGlkPSJ0aXRsZTU4MzEwIj5TaGVldC41OTU3PC90aXRsZT4mI3hhOwkJCQkJPHBhdGggaWQ9InBhdGg1ODMxMiIgaW5rc2NhcGU6Y29ubmVjdG9yLWN1cnZhdHVyZT0iMCIgc3R5bGU9ImZpbGw6I0JBMTQxQTsiIGQ9Ik0wLjc1LDM4LjkzQzAuMzQsMzguOTMsMCwzOC41OSwwLDM4LjE4di0zLjc2ICAgICAgIGMwLTAuNDEsMC4zNC0wLjc1LDAuNzUtMC43NUg5YzAuNDEsMCwwLjc1LDAuMzQsMC43NSwwLjc1djMuNzZjMCwwLjQxLTAuMzQsMC43NS0wLjc1LDAuNzVMMC43NSwzOC45M3oiLz4mI3hhOwkJCQk8L2c+JiN4YTsJCQkJPGcgaWQ9InNoYXBlNTk1OC0xMyI+JiN4YTsJCQkJCTx0aXRsZSBpZD0idGl0bGU1ODMxNSI+U2hlZXQuNTk1ODwvdGl0bGU+JiN4YTsJCQkJCTxwYXRoIGlkPSJwYXRoNTgzMTciIGlua3NjYXBlOmNvbm5lY3Rvci1jdXJ2YXR1cmU9IjAiIHN0eWxlPSJmaWxsOiNBMEExQTI7IiBkPSJNOS43NSwzMy42N3YzLjc2SDEuNXYtMy43Nkg5Ljc1eiBNOS43NSwzMi4xNyAgICAgICBIMS41Yy0wLjgzLDAtMS41LDAuNjgtMS41LDEuNXYzLjc2YzAsMC44MiwwLjY3LDEuNSwxLjUsMS41aDguMjVjMC44MywwLDEuNS0wLjY4LDEuNS0xLjV2LTMuNzYgICAgICAgQzExLjI1LDMyLjg1LDEwLjU4LDMyLjE3LDkuNzUsMzIuMTd6Ii8+JiN4YTsJCQkJPC9nPiYjeGE7CQkJPC9nPiYjeGE7CQkJPGcgaWQ9Imdyb3VwNTk1OS0xNSIgdHJhbnNmb3JtPSJ0cmFuc2xhdGUoMCwtMTUuNzUpIj4mI3hhOwkJCQk8dGl0bGUgaWQ9InRpdGxlNTgzMjEiPlNoZWV0LjU5NTk8L3RpdGxlPiYjeGE7CQkJCTxnIGlkPSJzaGFwZTU5NjAtMTYiIHRyYW5zZm9ybT0idHJhbnNsYXRlKDAuNzUsLTAuNzUpIj4mI3hhOwkJCQkJPHRpdGxlIGlkPSJ0aXRsZTU4MzIzIj5TaGVldC41OTYwPC90aXRsZT4mI3hhOwkJCQkJPHBhdGggaWQ9InBhdGg1ODMyNSIgaW5rc2NhcGU6Y29ubmVjdG9yLWN1cnZhdHVyZT0iMCIgc3R5bGU9ImZpbGw6I0JBMTQxQTsiIGQ9Ik0wLjc1LDM4LjkzQzAuMzQsMzguOTMsMCwzOC41OSwwLDM4LjE4di0zLjc2ICAgICAgIGMwLTAuNDEsMC4zNC0wLjc1LDAuNzUtMC43NUg5YzAuNDEsMCwwLjc1LDAuMzQsMC43NSwwLjc1djMuNzZjMCwwLjQxLTAuMzQsMC43NS0wLjc1LDAuNzVMMC43NSwzOC45M3oiLz4mI3hhOwkJCQk8L2c+JiN4YTsJCQkJPGcgaWQ9InNoYXBlNTk2MS0xOCI+JiN4YTsJCQkJCTx0aXRsZSBpZD0idGl0bGU1ODMyOCI+U2hlZXQuNTk2MTwvdGl0bGU+JiN4YTsJCQkJCTxwYXRoIGlkPSJwYXRoNTgzMzAiIGlua3NjYXBlOmNvbm5lY3Rvci1jdXJ2YXR1cmU9IjAiIHN0eWxlPSJmaWxsOiNBMEExQTI7IiBkPSJNOS43NSwzMy42N3YzLjc2SDEuNXYtMy43Nkg5Ljc1eiBNOS43NSwzMi4xNyAgICAgICBIMS41Yy0wLjgzLDAtMS41LDAuNjgtMS41LDEuNXYzLjc2YzAsMC44MiwwLjY3LDEuNSwxLjUsMS41aDguMjVjMC44MywwLDEuNS0wLjY4LDEuNS0xLjV2LTMuNzYgICAgICAgQzExLjI1LDMyLjg1LDEwLjU4LDMyLjE3LDkuNzUsMzIuMTd6Ii8+JiN4YTsJCQkJPC9nPiYjeGE7CQkJPC9nPiYjeGE7CQkJPGcgaWQ9Imdyb3VwNTk2Mi0yMCIgdHJhbnNmb3JtPSJ0cmFuc2xhdGUoOS43NSwtMTAuNSkiPiYjeGE7CQkJCTx0aXRsZSBpZD0idGl0bGU1ODMzNCI+U2hlZXQuNTk2MjwvdGl0bGU+JiN4YTsJCQkJPGcgaWQ9InNoYXBlNTk2My0yMSIgdHJhbnNmb3JtPSJ0cmFuc2xhdGUoMC43NSwtMC43NSkiPiYjeGE7CQkJCQk8dGl0bGUgaWQ9InRpdGxlNTgzMzYiPlNoZWV0LjU5NjM8L3RpdGxlPiYjeGE7CQkJCQk8cGF0aCBpZD0icGF0aDU4MzM4IiBpbmtzY2FwZTpjb25uZWN0b3ItY3VydmF0dXJlPSIwIiBzdHlsZT0iZmlsbDojQkExNDFBOyIgZD0iTTAuNzUsMzguOTNDMC4zNCwzOC45MywwLDM4LjU5LDAsMzguMTh2LTMuNzYgICAgICAgYzAtMC40MSwwLjM0LTAuNzUsMC43NS0wLjc1SDljMC40MSwwLDAuNzUsMC4zNCwwLjc1LDAuNzV2My43NmMwLDAuNDEtMC4zNCwwLjc1LTAuNzUsMC43NUwwLjc1LDM4LjkzeiIvPiYjeGE7CQkJCTwvZz4mI3hhOwkJCQk8ZyBpZD0ic2hhcGU1OTY0LTIzIj4mI3hhOwkJCQkJPHRpdGxlIGlkPSJ0aXRsZTU4MzQxIj5TaGVldC41OTY0PC90aXRsZT4mI3hhOwkJCQkJPHBhdGggaWQ9InBhdGg1ODM0MyIgaW5rc2NhcGU6Y29ubmVjdG9yLWN1cnZhdHVyZT0iMCIgc3R5bGU9ImZpbGw6I0EwQTFBMjsiIGQ9Ik05Ljc1LDMzLjY3djMuNzZIMS41di0zLjc2SDkuNzV6IE05Ljc1LDMyLjE3ICAgICAgIEgxLjVjLTAuODMsMC0xLjUsMC42OC0xLjUsMS41djMuNzZjMCwwLjgyLDAuNjcsMS41LDEuNSwxLjVoOC4yNWMwLjgzLDAsMS41LTAuNjgsMS41LTEuNXYtMy43NiAgICAgICBDMTEuMjUsMzIuODUsMTAuNTgsMzIuMTcsOS43NSwzMi4xN3oiLz4mI3hhOwkJCQk8L2c+JiN4YTsJCQk8L2c+JiN4YTsJCQk8ZyBpZD0iZ3JvdXA1OTY1LTI1IiB0cmFuc2Zvcm09InRyYW5zbGF0ZSgwLC01LjI1KSI+JiN4YTsJCQkJPHRpdGxlIGlkPSJ0aXRsZTU4MzQ3Ij5TaGVldC41OTY1PC90aXRsZT4mI3hhOwkJCQk8ZyBpZD0ic2hhcGU1OTY2LTI2IiB0cmFuc2Zvcm09InRyYW5zbGF0ZSgwLjc1LC0wLjc1KSI+JiN4YTsJCQkJCTx0aXRsZSBpZD0idGl0bGU1ODM0OSI+U2hlZXQuNTk2NjwvdGl0bGU+JiN4YTsJCQkJCTxwYXRoIGlkPSJwYXRoNTgzNTEiIGlua3NjYXBlOmNvbm5lY3Rvci1jdXJ2YXR1cmU9IjAiIHN0eWxlPSJmaWxsOiNERDU5MDA7IiBkPSJNMC43NSwzOC45M0MwLjM0LDM4LjkzLDAsMzguNTksMCwzOC4xOHYtMy43NiAgICAgICBjMC0wLjQxLDAuMzQtMC43NSwwLjc1LTAuNzVIOWMwLjQxLDAsMC43NSwwLjM0LDAuNzUsMC43NXYzLjc2YzAsMC40MS0wLjM0LDAuNzUtMC43NSwwLjc1TDAuNzUsMzguOTN6Ii8+JiN4YTsJCQkJPC9nPiYjeGE7CQkJCTxnIGlkPSJzaGFwZTU5NjctMjgiPiYjeGE7CQkJCQk8dGl0bGUgaWQ9InRpdGxlNTgzNTQiPlNoZWV0LjU5Njc8L3RpdGxlPiYjeGE7CQkJCQk8cGF0aCBpZD0icGF0aDU4MzU2IiBpbmtzY2FwZTpjb25uZWN0b3ItY3VydmF0dXJlPSIwIiBzdHlsZT0iZmlsbDojQTBBMUEyOyIgZD0iTTkuNzUsMzMuNjd2My43NkgxLjV2LTMuNzZIOS43NXogTTkuNzUsMzIuMTcgICAgICAgSDEuNWMtMC44MywwLTEuNSwwLjY4LTEuNSwxLjV2My43NmMwLDAuODIsMC42NywxLjUsMS41LDEuNWg4LjI1YzAuODMsMCwxLjUtMC42OCwxLjUtMS41di0zLjc2ICAgICAgIEMxMS4yNSwzMi44NSwxMC41OCwzMi4xNyw5Ljc1LDMyLjE3eiIvPiYjeGE7CQkJCTwvZz4mI3hhOwkJCTwvZz4mI3hhOwkJCTxnIGlkPSJncm91cDU5NjgtMzAiIHRyYW5zZm9ybT0idHJhbnNsYXRlKDAsLTEwLjUpIj4mI3hhOwkJCQk8dGl0bGUgaWQ9InRpdGxlNTgzNjAiPlNoZWV0LjU5Njg8L3RpdGxlPiYjeGE7CQkJCTxnIGlkPSJzaGFwZTU5NjktMzEiIHRyYW5zZm9ybT0idHJhbnNsYXRlKDAuNzUsLTAuNzUpIj4mI3hhOwkJCQkJPHRpdGxlIGlkPSJ0aXRsZTU4MzYyIj5TaGVldC41OTY5PC90aXRsZT4mI3hhOwkJCQkJPHBhdGggaWQ9InBhdGg1ODM2NCIgaW5rc2NhcGU6Y29ubmVjdG9yLWN1cnZhdHVyZT0iMCIgc3R5bGU9ImZpbGw6I0JBMTQxQTsiIGQ9Ik0wLjc1LDM4LjkzQzAuMzQsMzguOTMsMCwzOC41OSwwLDM4LjE4di0zLjc2ICAgICAgIGMwLTAuNDEsMC4zNC0wLjc1LDAuNzUtMC43NUg5YzAuNDEsMCwwLjc1LDAuMzQsMC43NSwwLjc1djMuNzZjMCwwLjQxLTAuMzQsMC43NS0wLjc1LDAuNzVMMC43NSwzOC45M3oiLz4mI3hhOwkJCQk8L2c+JiN4YTsJCQkJPGcgaWQ9InNoYXBlNTk3MC0zMyI+JiN4YTsJCQkJCTx0aXRsZSBpZD0idGl0bGU1ODM2NyI+U2hlZXQuNTk3MDwvdGl0bGU+JiN4YTsJCQkJCTxwYXRoIGlkPSJwYXRoNTgzNjkiIGlua3NjYXBlOmNvbm5lY3Rvci1jdXJ2YXR1cmU9IjAiIHN0eWxlPSJmaWxsOiNBMEExQTI7IiBkPSJNOS43NSwzMy42N3YzLjc2SDEuNXYtMy43Nkg5Ljc1eiBNOS43NSwzMi4xNyAgICAgICBIMS41Yy0wLjgzLDAtMS41LDAuNjgtMS41LDEuNXYzLjc2YzAsMC44MiwwLjY3LDEuNSwxLjUsMS41aDguMjVjMC44MywwLDEuNS0wLjY4LDEuNS0xLjV2LTMuNzYgICAgICAgQzExLjI1LDMyLjg1LDEwLjU4LDMyLjE3LDkuNzUsMzIuMTd6Ii8+JiN4YTsJCQkJPC9nPiYjeGE7CQkJPC9nPiYjeGE7CQkJPGcgaWQ9Imdyb3VwNTk3MS0zNSIgdHJhbnNmb3JtPSJ0cmFuc2xhdGUoOS43NSkiPiYjeGE7CQkJCTx0aXRsZSBpZD0idGl0bGU1ODM3MyI+U2hlZXQuNTk3MTwvdGl0bGU+JiN4YTsJCQkJPGcgaWQ9InNoYXBlNTk3Mi0zNiIgdHJhbnNmb3JtPSJ0cmFuc2xhdGUoMC43NSwtMC43NSkiPiYjeGE7CQkJCQk8dGl0bGUgaWQ9InRpdGxlNTgzNzUiPlNoZWV0LjU5NzI8L3RpdGxlPiYjeGE7CQkJCQk8cGF0aCBpZD0icGF0aDU4Mzc3IiBpbmtzY2FwZTpjb25uZWN0b3ItY3VydmF0dXJlPSIwIiBzdHlsZT0iZmlsbDojQkExNDFBOyIgZD0iTTAuNzUsMzguOTNDMC4zNCwzOC45MywwLDM4LjU5LDAsMzguMTh2LTMuNzYgICAgICAgYzAtMC40MSwwLjM0LTAuNzUsMC43NS0wLjc1SDljMC40MSwwLDAuNzUsMC4zNCwwLjc1LDAuNzV2My43NmMwLDAuNDEtMC4zNCwwLjc1LTAuNzUsMC43NUwwLjc1LDM4LjkzeiIvPiYjeGE7CQkJCTwvZz4mI3hhOwkJCQk8ZyBpZD0ic2hhcGU1OTczLTM4Ij4mI3hhOwkJCQkJPHRpdGxlIGlkPSJ0aXRsZTU4MzgwIj5TaGVldC41OTczPC90aXRsZT4mI3hhOwkJCQkJPHBhdGggaWQ9InBhdGg1ODM4MiIgaW5rc2NhcGU6Y29ubmVjdG9yLWN1cnZhdHVyZT0iMCIgc3R5bGU9ImZpbGw6I0EwQTFBMjsiIGQ9Ik05Ljc1LDMzLjY3djMuNzZIMS41di0zLjc2SDkuNzV6IE05Ljc1LDMyLjE3ICAgICAgIEgxLjVjLTAuODMsMC0xLjUsMC42OC0xLjUsMS41djMuNzZjMCwwLjgyLDAuNjcsMS41LDEuNSwxLjVoOC4yNWMwLjgzLDAsMS41LTAuNjgsMS41LTEuNXYtMy43NiAgICAgICBDMTEuMjUsMzIuODUsMTAuNTgsMzIuMTcsOS43NSwzMi4xN3oiLz4mI3hhOwkJCQk8L2c+JiN4YTsJCQk8L2c+JiN4YTsJCQk8ZyBpZD0iZ3JvdXA1OTc0LTQwIiB0cmFuc2Zvcm09InRyYW5zbGF0ZSgxOS41LC01LjI1KSI+JiN4YTsJCQkJPHRpdGxlIGlkPSJ0aXRsZTU4Mzg2Ij5TaGVldC41OTc0PC90aXRsZT4mI3hhOwkJCQk8ZyBpZD0ic2hhcGU1OTc1LTQxIiB0cmFuc2Zvcm09InRyYW5zbGF0ZSgwLjc1LC0wLjc1KSI+JiN4YTsJCQkJCTx0aXRsZSBpZD0idGl0bGU1ODM4OCI+U2hlZXQuNTk3NTwvdGl0bGU+JiN4YTsJCQkJCTxwYXRoIGlkPSJwYXRoNTgzOTAiIGlua3NjYXBlOmNvbm5lY3Rvci1jdXJ2YXR1cmU9IjAiIHN0eWxlPSJmaWxsOiNCQTE0MUE7IiBkPSJNMC43NSwzOC45M0MwLjM0LDM4LjkzLDAsMzguNTksMCwzOC4xOHYtMy43NiAgICAgICBjMC0wLjQxLDAuMzQtMC43NSwwLjc1LTAuNzVIOWMwLjQxLDAsMC43NSwwLjM0LDAuNzUsMC43NXYzLjc2YzAsMC40MS0wLjM0LDAuNzUtMC43NSwwLjc1TDAuNzUsMzguOTN6Ii8+JiN4YTsJCQkJPC9nPiYjeGE7CQkJCTxnIGlkPSJzaGFwZTU5NzYtNDMiPiYjeGE7CQkJCQk8dGl0bGUgaWQ9InRpdGxlNTgzOTMiPlNoZWV0LjU5NzY8L3RpdGxlPiYjeGE7CQkJCQk8cGF0aCBpZD0icGF0aDU4Mzk1IiBpbmtzY2FwZTpjb25uZWN0b3ItY3VydmF0dXJlPSIwIiBzdHlsZT0iZmlsbDojQTBBMUEyOyIgZD0iTTkuNzUsMzMuNjd2My43NkgxLjV2LTMuNzZIOS43NXogTTkuNzUsMzIuMTcgICAgICAgSDEuNWMtMC44MywwLTEuNSwwLjY4LTEuNSwxLjV2My43NmMwLDAuODIsMC42NywxLjUsMS41LDEuNWg4LjI1YzAuODMsMCwxLjUtMC42OCwxLjUtMS41di0zLjc2ICAgICAgIEMxMS4yNSwzMi44NSwxMC41OCwzMi4xNyw5Ljc1LDMyLjE3eiIvPiYjeGE7CQkJCTwvZz4mI3hhOwkJCTwvZz4mI3hhOwkJCTxnIGlkPSJncm91cDU5NzctNDUiIHRyYW5zZm9ybT0idHJhbnNsYXRlKDE5LjUsLTEwLjUpIj4mI3hhOwkJCQk8dGl0bGUgaWQ9InRpdGxlNTgzOTkiPlNoZWV0LjU5Nzc8L3RpdGxlPiYjeGE7CQkJCTxnIGlkPSJzaGFwZTU5NzgtNDYiIHRyYW5zZm9ybT0idHJhbnNsYXRlKDAuNzUsLTAuNzUpIj4mI3hhOwkJCQkJPHRpdGxlIGlkPSJ0aXRsZTU4NDAxIj5TaGVldC41OTc4PC90aXRsZT4mI3hhOwkJCQkJPHBhdGggaWQ9InBhdGg1ODQwMyIgaW5rc2NhcGU6Y29ubmVjdG9yLWN1cnZhdHVyZT0iMCIgc3R5bGU9ImZpbGw6I0JBMTQxQTsiIGQ9Ik0wLjc1LDM4LjkzQzAuMzQsMzguOTMsMCwzOC41OSwwLDM4LjE4di0zLjc2ICAgICAgIGMwLTAuNDEsMC4zNC0wLjc1LDAuNzUtMC43NUg5YzAuNDEsMCwwLjc1LDAuMzQsMC43NSwwLjc1djMuNzZjMCwwLjQxLTAuMzQsMC43NS0wLjc1LDAuNzVMMC43NSwzOC45M3oiLz4mI3hhOwkJCQk8L2c+JiN4YTsJCQkJPGcgaWQ9InNoYXBlNTk3OS00OCI+JiN4YTsJCQkJCTx0aXRsZSBpZD0idGl0bGU1ODQwNiI+U2hlZXQuNTk3OTwvdGl0bGU+JiN4YTsJCQkJCTxwYXRoIGlkPSJwYXRoNTg0MDgiIGlua3NjYXBlOmNvbm5lY3Rvci1jdXJ2YXR1cmU9IjAiIHN0eWxlPSJmaWxsOiNBMEExQTI7IiBkPSJNOS43NSwzMy42N3YzLjc2SDEuNXYtMy43Nkg5Ljc1eiBNOS43NSwzMi4xNyAgICAgICBIMS41Yy0wLjgzLDAtMS41LDAuNjgtMS41LDEuNXYzLjc2YzAsMC44MiwwLjY3LDEuNSwxLjUsMS41aDguMjVjMC44MywwLDEuNS0wLjY4LDEuNS0xLjV2LTMuNzYgICAgICAgQzExLjI1LDMyLjg1LDEwLjU4LDMyLjE3LDkuNzUsMzIuMTd6Ii8+JiN4YTsJCQkJPC9nPiYjeGE7CQkJPC9nPiYjeGE7CQkJPGcgaWQ9Imdyb3VwNTk4MC01MCIgdHJhbnNmb3JtPSJ0cmFuc2xhdGUoOS43NSwtNS4yNSkiPiYjeGE7CQkJCTx0aXRsZSBpZD0idGl0bGU1ODQxMiI+U2hlZXQuNTk4MDwvdGl0bGU+JiN4YTsJCQkJPGcgaWQ9InNoYXBlNTk4MS01MSIgdHJhbnNmb3JtPSJ0cmFuc2xhdGUoMC43NSwtMC43NSkiPiYjeGE7CQkJCQk8dGl0bGUgaWQ9InRpdGxlNTg0MTQiPlNoZWV0LjU5ODE8L3RpdGxlPiYjeGE7CQkJCQk8cGF0aCBpZD0icGF0aDU4NDE2IiBpbmtzY2FwZTpjb25uZWN0b3ItY3VydmF0dXJlPSIwIiBzdHlsZT0iZmlsbDojQkExNDFBOyIgZD0iTTAuNzUsMzguOTNDMC4zNCwzOC45MywwLDM4LjU5LDAsMzguMTh2LTMuNzYgICAgICAgYzAtMC40MSwwLjM0LTAuNzUsMC43NS0wLjc1SDljMC40MSwwLDAuNzUsMC4zNCwwLjc1LDAuNzV2My43NmMwLDAuNDEtMC4zNCwwLjc1LTAuNzUsMC43NUwwLjc1LDM4LjkzeiIvPiYjeGE7CQkJCTwvZz4mI3hhOwkJCQk8ZyBpZD0ic2hhcGU1OTgyLTUzIj4mI3hhOwkJCQkJPHRpdGxlIGlkPSJ0aXRsZTU4NDE5Ij5TaGVldC41OTgyPC90aXRsZT4mI3hhOwkJCQkJPHBhdGggaWQ9InBhdGg1ODQyMSIgaW5rc2NhcGU6Y29ubmVjdG9yLWN1cnZhdHVyZT0iMCIgc3R5bGU9ImZpbGw6I0EwQTFBMjsiIGQ9Ik05Ljc1LDMzLjY3djMuNzZIMS41di0zLjc2SDkuNzV6IE05Ljc1LDMyLjE3ICAgICAgIEgxLjVjLTAuODMsMC0xLjUsMC42OC0xLjUsMS41djMuNzZjMCwwLjgyLDAuNjcsMS41LDEuNSwxLjVoOC4yNWMwLjgzLDAsMS41LTAuNjgsMS41LTEuNXYtMy43NiAgICAgICBDMTEuMjUsMzIuODUsMTAuNTgsMzIuMTcsOS43NSwzMi4xN3oiLz4mI3hhOwkJCQk8L2c+JiN4YTsJCQk8L2c+JiN4YTsJCQk8ZyBpZD0iZ3JvdXA1OTgzLTU1IiB0cmFuc2Zvcm09InRyYW5zbGF0ZSgxOS41KSI+JiN4YTsJCQkJPHRpdGxlIGlkPSJ0aXRsZTU4NDI1Ij5TaGVldC41OTgzPC90aXRsZT4mI3hhOwkJCQk8ZyBpZD0ic2hhcGU1OTg0LTU2IiB0cmFuc2Zvcm09InRyYW5zbGF0ZSgwLjc1LC0wLjc1KSI+JiN4YTsJCQkJCTx0aXRsZSBpZD0idGl0bGU1ODQyNyI+U2hlZXQuNTk4NDwvdGl0bGU+JiN4YTsJCQkJCTxwYXRoIGlkPSJwYXRoNTg0MjkiIGlua3NjYXBlOmNvbm5lY3Rvci1jdXJ2YXR1cmU9IjAiIHN0eWxlPSJmaWxsOiNERDU5MDA7IiBkPSJNMC43NSwzOC45M0MwLjM0LDM4LjkzLDAsMzguNTksMCwzOC4xOHYtMy43NiAgICAgICBjMC0wLjQxLDAuMzQtMC43NSwwLjc1LTAuNzVIOWMwLjQxLDAsMC43NSwwLjM0LDAuNzUsMC43NXYzLjc2YzAsMC40MS0wLjM0LDAuNzUtMC43NSwwLjc1TDAuNzUsMzguOTN6Ii8+JiN4YTsJCQkJPC9nPiYjeGE7CQkJCTxnIGlkPSJzaGFwZTU5ODUtNTgiPiYjeGE7CQkJCQk8dGl0bGUgaWQ9InRpdGxlNTg0MzIiPlNoZWV0LjU5ODU8L3RpdGxlPiYjeGE7CQkJCQk8cGF0aCBpZD0icGF0aDU4NDM0IiBpbmtzY2FwZTpjb25uZWN0b3ItY3VydmF0dXJlPSIwIiBzdHlsZT0iZmlsbDojQTBBMUEyOyIgZD0iTTkuNzUsMzMuNjd2My43NkgxLjV2LTMuNzZIOS43NXogTTkuNzUsMzIuMTcgICAgICAgSDEuNWMtMC44MywwLTEuNSwwLjY4LTEuNSwxLjV2My43NmMwLDAuODIsMC42NywxLjUsMS41LDEuNWg4LjI1YzAuODMsMCwxLjUtMC42OCwxLjUtMS41di0zLjc2ICAgICAgIEMxMS4yNSwzMi44NSwxMC41OCwzMi4xNyw5Ljc1LDMyLjE3eiIvPiYjeGE7CQkJCTwvZz4mI3hhOwkJCTwvZz4mI3hhOwkJCTxnIGlkPSJncm91cDU5ODYtNjAiPiYjeGE7CQkJCTx0aXRsZSBpZD0idGl0bGU1ODQzOCI+U2hlZXQuNTk4NjwvdGl0bGU+JiN4YTsJCQkJPGcgaWQ9InNoYXBlNTk4Ny02MSIgdHJhbnNmb3JtPSJ0cmFuc2xhdGUoMC43NSwtMC43NSkiPiYjeGE7CQkJCQk8dGl0bGUgaWQ9InRpdGxlNTg0NDAiPlNoZWV0LjU5ODc8L3RpdGxlPiYjeGE7CQkJCQk8cGF0aCBpZD0icGF0aDU4NDQyIiBpbmtzY2FwZTpjb25uZWN0b3ItY3VydmF0dXJlPSIwIiBzdHlsZT0iZmlsbDojQkExNDFBOyIgZD0iTTAuNzUsMzguOTNDMC4zNCwzOC45MywwLDM4LjU5LDAsMzguMTh2LTMuNzYgICAgICAgYzAtMC40MSwwLjM0LTAuNzUsMC43NS0wLjc1SDljMC40MSwwLDAuNzUsMC4zNCwwLjc1LDAuNzV2My43NmMwLDAuNDEtMC4zNCwwLjc1LTAuNzUsMC43NUwwLjc1LDM4LjkzeiIvPiYjeGE7CQkJCTwvZz4mI3hhOwkJCQk8ZyBpZD0ic2hhcGU1OTg4LTYzIj4mI3hhOwkJCQkJPHRpdGxlIGlkPSJ0aXRsZTU4NDQ1Ij5TaGVldC41OTg4PC90aXRsZT4mI3hhOwkJCQkJPHBhdGggaWQ9InBhdGg1ODQ0NyIgaW5rc2NhcGU6Y29ubmVjdG9yLWN1cnZhdHVyZT0iMCIgc3R5bGU9ImZpbGw6I0EwQTFBMjsiIGQ9Ik05Ljc1LDMzLjY3djMuNzZIMS41di0zLjc2SDkuNzV6IE05Ljc1LDMyLjE3ICAgICAgIEgxLjVjLTAuODMsMC0xLjUsMC42OC0xLjUsMS41djMuNzZjMCwwLjgyLDAuNjcsMS41LDEuNSwxLjVoOC4yNWMwLjgzLDAsMS41LTAuNjgsMS41LTEuNXYtMy43NiAgICAgICBDMTEuMjUsMzIuODUsMTAuNTgsMzIuMTcsOS43NSwzMi4xN3oiLz4mI3hhOwkJCQk8L2c+JiN4YTsJCQk8L2c+JiN4YTsJCTwvZz4mI3hhOwk8L2c+JiN4YTs8L2c+JiN4YTs8L3N2Zz4=;rounded=0;strokeColor=default;fontFamily=Helvetica;fontSize=12;fontColor=default;fillColor=default;html=1;" vertex="1" parent="1">
          <mxGeometry x="800" y="482" width="68" height="68" as="geometry" />
        </mxCell>
        <UserObject label="Firewall" placeholders="1" name="Variable" id="y8VJ0qSuv6ieIUMJYx79-144">
          <mxCell style="text;html=1;strokeColor=none;fillColor=none;align=center;verticalAlign=middle;whiteSpace=wrap;overflow=hidden;" vertex="1" parent="1">
            <mxGeometry x="779" y="553" width="110" height="20" as="geometry" />
          </mxCell>
        </UserObject>
        <mxCell id="y8VJ0qSuv6ieIUMJYx79-145" value="" style="shape=image;verticalLabelPosition=bottom;labelBackgroundColor=#ffffff;verticalAlign=top;aspect=fixed;imageAspect=0;image=data:image/svg+xml,PHN2ZyB4bWxuczpjYz0iaHR0cDovL2NyZWF0aXZlY29tbW9ucy5vcmcvbnMjIiB4bWxuczpkYz0iaHR0cDovL3B1cmwub3JnL2RjL2VsZW1lbnRzLzEuMS8iIHhtbG5zOmlua3NjYXBlPSJodHRwOi8vd3d3Lmlua3NjYXBlLm9yZy9uYW1lc3BhY2VzL2lua3NjYXBlIiB4bWxuczpyZGY9Imh0dHA6Ly93d3cudzMub3JnLzE5OTkvMDIvMjItcmRmLXN5bnRheC1ucyMiIHhtbG5zOnNvZGlwb2RpPSJodHRwOi8vc29kaXBvZGkuc291cmNlZm9yZ2UubmV0L0RURC9zb2RpcG9kaS0wLmR0ZCIgeG1sbnM6c3ZnPSJodHRwOi8vd3d3LnczLm9yZy8yMDAwL3N2ZyIgeG1sbnM9Imh0dHA6Ly93d3cudzMub3JnLzIwMDAvc3ZnIiB4bWxuczp4bGluaz0iaHR0cDovL3d3dy53My5vcmcvMTk5OS94bGluayIgdmVyc2lvbj0iMS4xIiBpZD0ic3ZnODc3MDAiIGlua3NjYXBlOnZlcnNpb249IjAuOTIuMyAoMjQwNTU0NiwgMjAxOC0wMy0xMSkiIHNvZGlwb2RpOmRvY25hbWU9Im5ldHdvcmtfc2VjdXJpdHlfZ3JvdXAuc3ZnIiB4PSIwcHgiIHk9IjBweCIgdmlld0JveD0iMCAwIDIyLjgzIDMxLjEyIiBzdHlsZT0iZW5hYmxlLWJhY2tncm91bmQ6bmV3IDAgMCAyMi44MyAzMS4xMjsiIHhtbDpzcGFjZT0icHJlc2VydmUiPiYjeGE7PHNvZGlwb2RpOm5hbWVkdmlldyBib3JkZXJjb2xvcj0iIzY2NjY2NiIgYm9yZGVyb3BhY2l0eT0iMSIgZml0LW1hcmdpbi1ib3R0b209IjAiIGZpdC1tYXJnaW4tbGVmdD0iMCIgZml0LW1hcmdpbi1yaWdodD0iMCIgZml0LW1hcmdpbi10b3A9IjAiIGdyaWR0b2xlcmFuY2U9IjEwIiBndWlkZXRvbGVyYW5jZT0iMTAiIGlkPSJuYW1lZHZpZXc4NzcwMiIgaW5rc2NhcGU6Y3VycmVudC1sYXllcj0ic3ZnODc3MDAiIGlua3NjYXBlOmN4PSI3Ljc4MzU0ODIiIGlua3NjYXBlOmN5PSIxNi4yMjc2MjMiIGlua3NjYXBlOnBhZ2VvcGFjaXR5PSIwIiBpbmtzY2FwZTpwYWdlc2hhZG93PSIyIiBpbmtzY2FwZTp3aW5kb3ctaGVpZ2h0PSIxMDE3IiBpbmtzY2FwZTp3aW5kb3ctbWF4aW1pemVkPSIxIiBpbmtzY2FwZTp3aW5kb3ctd2lkdGg9IjE5MjAiIGlua3NjYXBlOndpbmRvdy14PSItOCIgaW5rc2NhcGU6d2luZG93LXk9Ii04IiBpbmtzY2FwZTp6b29tPSIxNC4wOTU3MzQiIG9iamVjdHRvbGVyYW5jZT0iMTAiIHBhZ2Vjb2xvcj0iI2ZmZmZmZiIgc2hvd2dyaWQ9ImZhbHNlIj4mI3hhOwk8L3NvZGlwb2RpOm5hbWVkdmlldz4mI3hhOzxnIGlkPSJnODc2OTgiIHRyYW5zZm9ybT0idHJhbnNsYXRlKC0wLjc1LC0wLjc1KSI+JiN4YTsJPHRpdGxlIGlkPSJ0aXRsZTg3NjQyIj5QYWdlLTE8L3RpdGxlPiYjeGE7CTxnIGlkPSJncm91cDU2NjktMSIgdHJhbnNmb3JtPSJ0cmFuc2xhdGUoMC43NSwtMC43NSkiPiYjeGE7CQk8dGl0bGUgaWQ9InRpdGxlODc2NDQiPk5ldHdvcmsgU2VjdXJpdHkgR3JvdXA8L3RpdGxlPiYjeGE7CQk8ZyBpZD0ic2hhcGU1NjcwLTIiPiYjeGE7CQkJPHRpdGxlIGlkPSJ0aXRsZTg3NjQ2Ij5TaGVldC41NjcwPC90aXRsZT4mI3hhOwkJCTxwYXRoIGlkPSJwYXRoODc2NDgiIGlua3NjYXBlOmNvbm5lY3Rvci1jdXJ2YXR1cmU9IjAiIHN0eWxlPSJmaWxsOiMzOTk5QzY7IiBkPSJNMTkuNDYsNS4yNEMxMi42LDQuNDksMTEuNDEsMS41LDExLjQxLDEuNSAgICAgUzkuODUsNS4zNywwLDUuMzd2MTUuOTZjMCwxLjkzLDEuMDYsMy43NCwyLjU2LDUuM2MzLjM2LDMuNTYsOC44NSw1Ljk5LDguODUsNS45OXMxMS40Mi00Ljk5LDExLjQyLTExLjI5VjUuMzcgICAgIEMyMS41OCw1LjM3LDIwLjQ2LDUuMywxOS40Niw1LjI0eiIvPiYjeGE7CQk8L2c+JiN4YTsJCTxnIGlkPSJzaGFwZTU2NzEtNCIgdHJhbnNmb3JtPSJ0cmFuc2xhdGUoMCwtNS45ODY5MikiPiYjeGE7CQkJPHRpdGxlIGlkPSJ0aXRsZTg3NjUxIj5TaGVldC41NjcxPC90aXRsZT4mI3hhOwkJCTxwYXRoIGlkPSJwYXRoODc2NTMiIGlua3NjYXBlOmNvbm5lY3Rvci1jdXJ2YXR1cmU9IjAiIHN0eWxlPSJmaWxsOiM1OUI0RDk7ZmlsbC1vcGFjaXR5OjAuNDsiIGQ9Ik0xNC4yOCwxNy43OGw1LjE4LTYuNTUgICAgIGMtNi44Ni0wLjc1LTguMDUtMy43NC04LjA1LTMuNzRTOS44NSwxMS4zNSwwLDExLjM1djE1Ljk3YzAsMS45MywxLjA2LDMuNzQsMi41Niw1LjNsMy44Ni00Ljg2TDE0LjI4LDE3Ljc4eiIvPiYjeGE7CQk8L2c+JiN4YTsJCTxnIGlkPSJncm91cDU2NzItNiIgdHJhbnNmb3JtPSJ0cmFuc2xhdGUoMi4zMDc0NiwtMy4xMTgxOSkiPiYjeGE7CQkJPHRpdGxlIGlkPSJ0aXRsZTg3NjU2Ij5TaGVldC41NjcyPC90aXRsZT4mI3hhOwkJCTxnIGlkPSJzaGFwZTU2NzMtNyIgdHJhbnNmb3JtPSJ0cmFuc2xhdGUoMC4wNjIzNjM3KSI+JiN4YTsJCQkJPHRpdGxlIGlkPSJ0aXRsZTg3NjU4Ij5TaGVldC41NjczPC90aXRsZT4mI3hhOwkJCQk8cGF0aCBpZD0icGF0aDg3NjYwIiBpbmtzY2FwZTpjb25uZWN0b3ItY3VydmF0dXJlPSIwIiBzdHlsZT0iZmlsbDojRkZGRkZGO2ZpbGwtb3BhY2l0eTowLjM7IiBkPSJNMCwxOS44M3YzLjgxICAgICAgYzAsMS41NiwwLjg3LDIuOTksMi4wNiw0LjI0YzIuNjgsMi44Nyw3LjA1LDQuNzQsNy4wNSw0Ljc0VjE5LjgzSDB6Ii8+JiN4YTsJCQk8L2c+JiN4YTsJCQk8ZyBpZD0ic2hhcGU1Njc0LTkiIHRyYW5zZm9ybT0idHJhbnNsYXRlKDkuMTA1MSkiPiYjeGE7CQkJCTx0aXRsZSBpZD0idGl0bGU4NzY2MyI+U2hlZXQuNTY3NDwvdGl0bGU+JiN4YTsJCQkJPHBhdGggaWQ9InBhdGg4NzY2NSIgaW5rc2NhcGU6Y29ubmVjdG9yLWN1cnZhdHVyZT0iMCIgc3R5bGU9ImZpbGw6I0ZGRkZGRjtmaWxsLW9wYWNpdHk6MC43OyIgZD0iTTAsMzIuNjIgICAgICBjMCwwLDkuMTEtMy45OSw5LjExLTguOTh2LTMuODFIMFYzMi42MnoiLz4mI3hhOwkJCTwvZz4mI3hhOwkJCTxnIGlkPSJzaGFwZTU2NzUtMTEiIHRyYW5zZm9ybT0idHJhbnNsYXRlKDAsLTEyLjc4NDYpIj4mI3hhOwkJCQk8dGl0bGUgaWQ9InRpdGxlODc2NjgiPlNoZWV0LjU2NzU8L3RpdGxlPiYjeGE7CQkJCTxwYXRoIGlkPSJwYXRoODc2NzAiIGlua3NjYXBlOmNvbm5lY3Rvci1jdXJ2YXR1cmU9IjAiIHN0eWxlPSJmaWxsOiNGRkZGRkY7ZmlsbC1vcGFjaXR5OjAuNzsiIGQ9Ik05LjExLDIwLjU4ICAgICAgYzAsMC0xLjI1LDMuMTItOS4xMSwzLjEydjguOTJoOS4xMVYyMC41OHoiLz4mI3hhOwkJCTwvZz4mI3hhOwkJCTxnIGlkPSJzaGFwZTU2NzYtMTMiIHRyYW5zZm9ybT0idHJhbnNsYXRlKDkuMTA1MSwtMTIuNzg0NikiPiYjeGE7CQkJCTx0aXRsZSBpZD0idGl0bGU4NzY3MyI+U2hlZXQuNTY3NjwvdGl0bGU+JiN4YTsJCQkJPHBhdGggaWQ9InBhdGg4NzY3NSIgaW5rc2NhcGU6Y29ubmVjdG9yLWN1cnZhdHVyZT0iMCIgc3R5bGU9ImZpbGw6I0ZGRkZGRjtmaWxsLW9wYWNpdHk6MC4zOyIgZD0iTTYuMzYsMjMuNTggICAgICBDMC45NCwyMi45NSwwLDIwLjY1LDAsMjAuNjV2MTEuOTdoOS4xMVYyMy43QzguMTEsMjMuNyw3LjE3LDIzLjY0LDYuMzYsMjMuNTh6Ii8+JiN4YTsJCQk8L2c+JiN4YTsJCTwvZz4mI3hhOwkJPGcgaWQ9Imdyb3VwNTY3Ny0xNSIgdHJhbnNmb3JtPSJ0cmFuc2xhdGUoMy4xMjQ0MiwtMTIuNzc0NikiPiYjeGE7CQkJPHRpdGxlIGlkPSJ0aXRsZTg3Njc5Ij5TaGVldC41Njc3PC90aXRsZT4mI3hhOwkJCTxnIGlkPSJzaGFwZTU2NzgtMTYiIHRyYW5zZm9ybT0idHJhbnNsYXRlKDAsLTAuMTAyOSkiPiYjeGE7CQkJCTx0aXRsZSBpZD0idGl0bGU4NzY4MSI+U2hlZXQuNTY3ODwvdGl0bGU+JiN4YTsJCQkJPHBhdGggaWQ9InBhdGg4NzY4MyIgaW5rc2NhcGU6Y29ubmVjdG9yLWN1cnZhdHVyZT0iMCIgc3R5bGU9ImZpbGw6IzNFM0UzRTsiIGQ9Ik01LjE4LDMyLjYyaC0xLjFsLTIuOTMtNC40OSAgICAgIGMtMC4wNy0wLjEyLTAuMTMtMC4yNC0wLjE4LTAuMzZIMC45NWMwLjAyLDAuMTMsMC4wMywwLjQxLDAuMDMsMC44NHY0LjAxSDB2LTYuMTFoMS4xOEw0LDMwLjg5YzAuMTIsMC4xOCwwLjIsMC4zMSwwLjIzLDAuMzggICAgICBoMC4wMmMtMC4wMy0wLjE2LTAuMDQtMC40NC0wLjA0LTAuODJ2LTMuOTRoMC45N0w1LjE4LDMyLjYyeiIvPiYjeGE7CQkJPC9nPiYjeGE7CQkJPGcgaWQ9InNoYXBlNTY3OS0xOCIgdHJhbnNmb3JtPSJ0cmFuc2xhdGUoNi40MTA5OSkiPiYjeGE7CQkJCTx0aXRsZSBpZD0idGl0bGU4NzY4NiI+U2hlZXQuNTY3OTwvdGl0bGU+JiN4YTsJCQkJPHBhdGggaWQ9InBhdGg4NzY4OCIgaW5rc2NhcGU6Y29ubmVjdG9yLWN1cnZhdHVyZT0iMCIgc3R5bGU9ImZpbGw6IzNFM0UzRTsiIGQ9Ik0wLDMyLjI3di0xLjA0YzAuMSwwLjA4LDAuMjEsMC4xNiwwLjM0LDAuMjMgICAgICBzMC4yNywwLjEyLDAuNDEsMC4xN2MwLjE1LDAuMDUsMC4yOSwwLjA4LDAuNDQsMC4xMWMwLjE0LDAuMDMsMC4yNywwLjA0LDAuNCwwLjA0YzAuNDIsMCwwLjc0LTAuMDcsMC45NS0wLjIyICAgICAgYzAuMjEtMC4xNCwwLjMxLTAuMzQsMC4zMS0wLjYxYzAtMC4xNS0wLjAzLTAuMjctMC4xLTAuMzhjLTAuMDctMC4xMS0wLjE3LTAuMi0wLjI5LTAuMjljLTAuMTMtMC4wOS0wLjI4LTAuMTgtMC40NS0wLjI2ICAgICAgYy0wLjE2LTAuMDgtMC4zNS0wLjE2LTAuNTQtMC4yNWMtMC4yMS0wLjExLTAuNC0wLjIyLTAuNTgtMC4zNGMtMC4xOC0wLjExLTAuMzMtMC4yNC0wLjQ3LTAuMzdjLTAuMTMtMC4xNC0wLjIzLTAuMy0wLjMxLTAuNDcgICAgICBDMC4wNCwyOC40MiwwLDI4LjIxLDAsMjcuOThjMC0wLjI5LDAuMDYtMC41NCwwLjE5LTAuNzVjMC4xMy0wLjIxLDAuMy0wLjM5LDAuNTItMC41MmMwLjIxLTAuMTQsMC40NS0wLjI0LDAuNzItMC4zMSAgICAgIHMwLjU0LTAuMSwwLjgzLTAuMWMwLjYzLDAsMS4xLDAuMDcsMS4zOSwwLjIydjFjLTAuMzQtMC4yNS0wLjc5LTAuMzgtMS4zNC0wLjM4Yy0wLjE1LDAtMC4zLDAuMDItMC40NCwwLjA1ICAgICAgYy0wLjE1LDAuMDItMC4yOSwwLjA3LTAuNDEsMC4xNGMtMC4xMSwwLjA2LTAuMjEsMC4xNS0wLjI4LDAuMjVjLTAuMDgsMC4xLTAuMTEsMC4yMy0wLjExLDAuMzdjMCwwLjE0LDAuMDIsMC4yNSwwLjA4LDAuMzUgICAgICBjMC4wNiwwLjEsMC4xNCwwLjE5LDAuMjUsMC4yOGMwLjExLDAuMDgsMC4yNCwwLjE2LDAuNCwwLjI0czAuMzQsMC4xNiwwLjU1LDAuMjVjMC4yMSwwLjExLDAuNDEsMC4yMywwLjYsMC4zNSAgICAgIGMwLjE5LDAuMTIsMC4zNiwwLjI2LDAuNSwwLjQxYzAuMTUsMC4xNCwwLjI2LDAuMzEsMC4zNCwwLjQ5YzAuMDksMC4xOCwwLjEzLDAuMzgsMC4xMywwLjYyYzAsMC4zLTAuMDYsMC41Ny0wLjE5LDAuNzggICAgICBjLTAuMTIsMC4yMS0wLjI5LDAuMzktMC41LDAuNTJjLTAuMjIsMC4xMy0wLjQ2LDAuMjMtMC43NCwwLjI5Yy0wLjI3LDAuMDYtMC41NiwwLjA5LTAuODcsMC4wOWMtMC4xLDAtMC4yMy0wLjAxLTAuMzgtMC4wMiAgICAgIGMtMC4xNS0wLjAyLTAuMy0wLjA0LTAuNDUtMC4wN2MtMC4xNi0wLjAzLTAuMzEtMC4wNy0wLjQ1LTAuMTFDMC4yLDMyLjM4LDAuMDksMzIuMzMsMCwzMi4yN3oiLz4mI3hhOwkJCTwvZz4mI3hhOwkJCTxnIGlkPSJzaGFwZTU2ODAtMjAiIHRyYW5zZm9ybT0idHJhbnNsYXRlKDExLjA1ODMsLTAuMDAxMjQ3MjcpIj4mI3hhOwkJCQk8dGl0bGUgaWQ9InRpdGxlODc2OTEiPlNoZWV0LjU2ODA8L3RpdGxlPiYjeGE7CQkJCTxwYXRoIGlkPSJwYXRoODc2OTMiIGlua3NjYXBlOmNvbm5lY3Rvci1jdXJ2YXR1cmU9IjAiIHN0eWxlPSJmaWxsOiMzRTNFM0U7IiBkPSJNNS4xNiwzMi4xYy0wLjYzLDAuMzUtMS4zNCwwLjUyLTIuMTIsMC41MiAgICAgIGMtMC45MSwwLTEuNjQtMC4yOC0yLjItMC44NEMwLjI4LDMxLjIxLDAsMzAuNDcsMCwyOS41NGMwLTAuOTUsMC4zMS0xLjcyLDAuOTItMi4zM2MwLjYxLTAuNjEsMS4zOS0wLjkxLDIuMzMtMC45MSAgICAgIGMwLjY4LDAsMS4yNSwwLjEsMS43MiwwLjN2MS4wNGMtMC40Ny0wLjMxLTEuMDMtMC40Ni0xLjY4LTAuNDZzLTEuMTgsMC4yMS0xLjYsMC42NHMtMC42MiwwLjk4LTAuNjIsMS42NyAgICAgIGMwLDAuNywwLjE3LDEuMjUsMC41MywxLjY1czAuODUsMC42MSwxLjQ2LDAuNjFjMC40MiwwLDAuNzktMC4wOSwxLjA5LTAuMjV2LTEuNDVIMi44NlYyOS4yaDIuM0M1LjE2LDI5LjIsNS4xNiwzMi4xLDUuMTYsMzIuMSAgICAgIHoiLz4mI3hhOwkJCTwvZz4mI3hhOwkJPC9nPiYjeGE7CTwvZz4mI3hhOzwvZz4mI3hhOzwvc3ZnPg==;rounded=0;strokeColor=default;fontFamily=Helvetica;fontSize=12;fontColor=default;fillColor=default;html=1;" vertex="1" parent="1">
          <mxGeometry x="1464.59" y="486" width="32.65" height="44" as="geometry" />
        </mxCell>
        <mxCell id="y8VJ0qSuv6ieIUMJYx79-146" value="Vm-Produção" style="group;labelPosition=center;verticalLabelPosition=bottom;align=center;verticalAlign=top;" vertex="1" connectable="0" parent="1">
          <mxGeometry x="1310" y="519" width="67" height="59.75" as="geometry" />
        </mxCell>
        <mxCell id="y8VJ0qSuv6ieIUMJYx79-147" value="" style="aspect=fixed;html=1;perimeter=none;align=center;shadow=0;dashed=0;image;fontSize=12;image=img/lib/mscae/Virtual_Machine.svg;" vertex="1" parent="y8VJ0qSuv6ieIUMJYx79-146">
          <mxGeometry width="54" height="50" as="geometry" />
        </mxCell>
        <mxCell id="y8VJ0qSuv6ieIUMJYx79-148" value="" style="shape=image;verticalLabelPosition=bottom;labelBackgroundColor=#ffffff;verticalAlign=top;aspect=fixed;imageAspect=0;image=data:image/svg+xml,PHN2ZyB4bWxuczpjYz0iaHR0cDovL2NyZWF0aXZlY29tbW9ucy5vcmcvbnMjIiB4bWxuczpkYz0iaHR0cDovL3B1cmwub3JnL2RjL2VsZW1lbnRzLzEuMS8iIHhtbG5zOmlua3NjYXBlPSJodHRwOi8vd3d3Lmlua3NjYXBlLm9yZy9uYW1lc3BhY2VzL2lua3NjYXBlIiB4bWxuczpyZGY9Imh0dHA6Ly93d3cudzMub3JnLzE5OTkvMDIvMjItcmRmLXN5bnRheC1ucyMiIHhtbG5zOnNvZGlwb2RpPSJodHRwOi8vc29kaXBvZGkuc291cmNlZm9yZ2UubmV0L0RURC9zb2RpcG9kaS0wLmR0ZCIgeG1sbnM6c3ZnPSJodHRwOi8vd3d3LnczLm9yZy8yMDAwL3N2ZyIgeG1sbnM9Imh0dHA6Ly93d3cudzMub3JnLzIwMDAvc3ZnIiB4bWxuczp4bGluaz0iaHR0cDovL3d3dy53My5vcmcvMTk5OS94bGluayIgdmVyc2lvbj0iMS4xIiBpZD0ic3ZnODc3MDAiIGlua3NjYXBlOnZlcnNpb249IjAuOTIuMyAoMjQwNTU0NiwgMjAxOC0wMy0xMSkiIHNvZGlwb2RpOmRvY25hbWU9Im5ldHdvcmtfc2VjdXJpdHlfZ3JvdXAuc3ZnIiB4PSIwcHgiIHk9IjBweCIgdmlld0JveD0iMCAwIDIyLjgzIDMxLjEyIiBzdHlsZT0iZW5hYmxlLWJhY2tncm91bmQ6bmV3IDAgMCAyMi44MyAzMS4xMjsiIHhtbDpzcGFjZT0icHJlc2VydmUiPiYjeGE7PHNvZGlwb2RpOm5hbWVkdmlldyBib3JkZXJjb2xvcj0iIzY2NjY2NiIgYm9yZGVyb3BhY2l0eT0iMSIgZml0LW1hcmdpbi1ib3R0b209IjAiIGZpdC1tYXJnaW4tbGVmdD0iMCIgZml0LW1hcmdpbi1yaWdodD0iMCIgZml0LW1hcmdpbi10b3A9IjAiIGdyaWR0b2xlcmFuY2U9IjEwIiBndWlkZXRvbGVyYW5jZT0iMTAiIGlkPSJuYW1lZHZpZXc4NzcwMiIgaW5rc2NhcGU6Y3VycmVudC1sYXllcj0ic3ZnODc3MDAiIGlua3NjYXBlOmN4PSI3Ljc4MzU0ODIiIGlua3NjYXBlOmN5PSIxNi4yMjc2MjMiIGlua3NjYXBlOnBhZ2VvcGFjaXR5PSIwIiBpbmtzY2FwZTpwYWdlc2hhZG93PSIyIiBpbmtzY2FwZTp3aW5kb3ctaGVpZ2h0PSIxMDE3IiBpbmtzY2FwZTp3aW5kb3ctbWF4aW1pemVkPSIxIiBpbmtzY2FwZTp3aW5kb3ctd2lkdGg9IjE5MjAiIGlua3NjYXBlOndpbmRvdy14PSItOCIgaW5rc2NhcGU6d2luZG93LXk9Ii04IiBpbmtzY2FwZTp6b29tPSIxNC4wOTU3MzQiIG9iamVjdHRvbGVyYW5jZT0iMTAiIHBhZ2Vjb2xvcj0iI2ZmZmZmZiIgc2hvd2dyaWQ9ImZhbHNlIj4mI3hhOwk8L3NvZGlwb2RpOm5hbWVkdmlldz4mI3hhOzxnIGlkPSJnODc2OTgiIHRyYW5zZm9ybT0idHJhbnNsYXRlKC0wLjc1LC0wLjc1KSI+JiN4YTsJPHRpdGxlIGlkPSJ0aXRsZTg3NjQyIj5QYWdlLTE8L3RpdGxlPiYjeGE7CTxnIGlkPSJncm91cDU2NjktMSIgdHJhbnNmb3JtPSJ0cmFuc2xhdGUoMC43NSwtMC43NSkiPiYjeGE7CQk8dGl0bGUgaWQ9InRpdGxlODc2NDQiPk5ldHdvcmsgU2VjdXJpdHkgR3JvdXA8L3RpdGxlPiYjeGE7CQk8ZyBpZD0ic2hhcGU1NjcwLTIiPiYjeGE7CQkJPHRpdGxlIGlkPSJ0aXRsZTg3NjQ2Ij5TaGVldC41NjcwPC90aXRsZT4mI3hhOwkJCTxwYXRoIGlkPSJwYXRoODc2NDgiIGlua3NjYXBlOmNvbm5lY3Rvci1jdXJ2YXR1cmU9IjAiIHN0eWxlPSJmaWxsOiMzOTk5QzY7IiBkPSJNMTkuNDYsNS4yNEMxMi42LDQuNDksMTEuNDEsMS41LDExLjQxLDEuNSAgICAgUzkuODUsNS4zNywwLDUuMzd2MTUuOTZjMCwxLjkzLDEuMDYsMy43NCwyLjU2LDUuM2MzLjM2LDMuNTYsOC44NSw1Ljk5LDguODUsNS45OXMxMS40Mi00Ljk5LDExLjQyLTExLjI5VjUuMzcgICAgIEMyMS41OCw1LjM3LDIwLjQ2LDUuMywxOS40Niw1LjI0eiIvPiYjeGE7CQk8L2c+JiN4YTsJCTxnIGlkPSJzaGFwZTU2NzEtNCIgdHJhbnNmb3JtPSJ0cmFuc2xhdGUoMCwtNS45ODY5MikiPiYjeGE7CQkJPHRpdGxlIGlkPSJ0aXRsZTg3NjUxIj5TaGVldC41NjcxPC90aXRsZT4mI3hhOwkJCTxwYXRoIGlkPSJwYXRoODc2NTMiIGlua3NjYXBlOmNvbm5lY3Rvci1jdXJ2YXR1cmU9IjAiIHN0eWxlPSJmaWxsOiM1OUI0RDk7ZmlsbC1vcGFjaXR5OjAuNDsiIGQ9Ik0xNC4yOCwxNy43OGw1LjE4LTYuNTUgICAgIGMtNi44Ni0wLjc1LTguMDUtMy43NC04LjA1LTMuNzRTOS44NSwxMS4zNSwwLDExLjM1djE1Ljk3YzAsMS45MywxLjA2LDMuNzQsMi41Niw1LjNsMy44Ni00Ljg2TDE0LjI4LDE3Ljc4eiIvPiYjeGE7CQk8L2c+JiN4YTsJCTxnIGlkPSJncm91cDU2NzItNiIgdHJhbnNmb3JtPSJ0cmFuc2xhdGUoMi4zMDc0NiwtMy4xMTgxOSkiPiYjeGE7CQkJPHRpdGxlIGlkPSJ0aXRsZTg3NjU2Ij5TaGVldC41NjcyPC90aXRsZT4mI3hhOwkJCTxnIGlkPSJzaGFwZTU2NzMtNyIgdHJhbnNmb3JtPSJ0cmFuc2xhdGUoMC4wNjIzNjM3KSI+JiN4YTsJCQkJPHRpdGxlIGlkPSJ0aXRsZTg3NjU4Ij5TaGVldC41NjczPC90aXRsZT4mI3hhOwkJCQk8cGF0aCBpZD0icGF0aDg3NjYwIiBpbmtzY2FwZTpjb25uZWN0b3ItY3VydmF0dXJlPSIwIiBzdHlsZT0iZmlsbDojRkZGRkZGO2ZpbGwtb3BhY2l0eTowLjM7IiBkPSJNMCwxOS44M3YzLjgxICAgICAgYzAsMS41NiwwLjg3LDIuOTksMi4wNiw0LjI0YzIuNjgsMi44Nyw3LjA1LDQuNzQsNy4wNSw0Ljc0VjE5LjgzSDB6Ii8+JiN4YTsJCQk8L2c+JiN4YTsJCQk8ZyBpZD0ic2hhcGU1Njc0LTkiIHRyYW5zZm9ybT0idHJhbnNsYXRlKDkuMTA1MSkiPiYjeGE7CQkJCTx0aXRsZSBpZD0idGl0bGU4NzY2MyI+U2hlZXQuNTY3NDwvdGl0bGU+JiN4YTsJCQkJPHBhdGggaWQ9InBhdGg4NzY2NSIgaW5rc2NhcGU6Y29ubmVjdG9yLWN1cnZhdHVyZT0iMCIgc3R5bGU9ImZpbGw6I0ZGRkZGRjtmaWxsLW9wYWNpdHk6MC43OyIgZD0iTTAsMzIuNjIgICAgICBjMCwwLDkuMTEtMy45OSw5LjExLTguOTh2LTMuODFIMFYzMi42MnoiLz4mI3hhOwkJCTwvZz4mI3hhOwkJCTxnIGlkPSJzaGFwZTU2NzUtMTEiIHRyYW5zZm9ybT0idHJhbnNsYXRlKDAsLTEyLjc4NDYpIj4mI3hhOwkJCQk8dGl0bGUgaWQ9InRpdGxlODc2NjgiPlNoZWV0LjU2NzU8L3RpdGxlPiYjeGE7CQkJCTxwYXRoIGlkPSJwYXRoODc2NzAiIGlua3NjYXBlOmNvbm5lY3Rvci1jdXJ2YXR1cmU9IjAiIHN0eWxlPSJmaWxsOiNGRkZGRkY7ZmlsbC1vcGFjaXR5OjAuNzsiIGQ9Ik05LjExLDIwLjU4ICAgICAgYzAsMC0xLjI1LDMuMTItOS4xMSwzLjEydjguOTJoOS4xMVYyMC41OHoiLz4mI3hhOwkJCTwvZz4mI3hhOwkJCTxnIGlkPSJzaGFwZTU2NzYtMTMiIHRyYW5zZm9ybT0idHJhbnNsYXRlKDkuMTA1MSwtMTIuNzg0NikiPiYjeGE7CQkJCTx0aXRsZSBpZD0idGl0bGU4NzY3MyI+U2hlZXQuNTY3NjwvdGl0bGU+JiN4YTsJCQkJPHBhdGggaWQ9InBhdGg4NzY3NSIgaW5rc2NhcGU6Y29ubmVjdG9yLWN1cnZhdHVyZT0iMCIgc3R5bGU9ImZpbGw6I0ZGRkZGRjtmaWxsLW9wYWNpdHk6MC4zOyIgZD0iTTYuMzYsMjMuNTggICAgICBDMC45NCwyMi45NSwwLDIwLjY1LDAsMjAuNjV2MTEuOTdoOS4xMVYyMy43QzguMTEsMjMuNyw3LjE3LDIzLjY0LDYuMzYsMjMuNTh6Ii8+JiN4YTsJCQk8L2c+JiN4YTsJCTwvZz4mI3hhOwkJPGcgaWQ9Imdyb3VwNTY3Ny0xNSIgdHJhbnNmb3JtPSJ0cmFuc2xhdGUoMy4xMjQ0MiwtMTIuNzc0NikiPiYjeGE7CQkJPHRpdGxlIGlkPSJ0aXRsZTg3Njc5Ij5TaGVldC41Njc3PC90aXRsZT4mI3hhOwkJCTxnIGlkPSJzaGFwZTU2NzgtMTYiIHRyYW5zZm9ybT0idHJhbnNsYXRlKDAsLTAuMTAyOSkiPiYjeGE7CQkJCTx0aXRsZSBpZD0idGl0bGU4NzY4MSI+U2hlZXQuNTY3ODwvdGl0bGU+JiN4YTsJCQkJPHBhdGggaWQ9InBhdGg4NzY4MyIgaW5rc2NhcGU6Y29ubmVjdG9yLWN1cnZhdHVyZT0iMCIgc3R5bGU9ImZpbGw6IzNFM0UzRTsiIGQ9Ik01LjE4LDMyLjYyaC0xLjFsLTIuOTMtNC40OSAgICAgIGMtMC4wNy0wLjEyLTAuMTMtMC4yNC0wLjE4LTAuMzZIMC45NWMwLjAyLDAuMTMsMC4wMywwLjQxLDAuMDMsMC44NHY0LjAxSDB2LTYuMTFoMS4xOEw0LDMwLjg5YzAuMTIsMC4xOCwwLjIsMC4zMSwwLjIzLDAuMzggICAgICBoMC4wMmMtMC4wMy0wLjE2LTAuMDQtMC40NC0wLjA0LTAuODJ2LTMuOTRoMC45N0w1LjE4LDMyLjYyeiIvPiYjeGE7CQkJPC9nPiYjeGE7CQkJPGcgaWQ9InNoYXBlNTY3OS0xOCIgdHJhbnNmb3JtPSJ0cmFuc2xhdGUoNi40MTA5OSkiPiYjeGE7CQkJCTx0aXRsZSBpZD0idGl0bGU4NzY4NiI+U2hlZXQuNTY3OTwvdGl0bGU+JiN4YTsJCQkJPHBhdGggaWQ9InBhdGg4NzY4OCIgaW5rc2NhcGU6Y29ubmVjdG9yLWN1cnZhdHVyZT0iMCIgc3R5bGU9ImZpbGw6IzNFM0UzRTsiIGQ9Ik0wLDMyLjI3di0xLjA0YzAuMSwwLjA4LDAuMjEsMC4xNiwwLjM0LDAuMjMgICAgICBzMC4yNywwLjEyLDAuNDEsMC4xN2MwLjE1LDAuMDUsMC4yOSwwLjA4LDAuNDQsMC4xMWMwLjE0LDAuMDMsMC4yNywwLjA0LDAuNCwwLjA0YzAuNDIsMCwwLjc0LTAuMDcsMC45NS0wLjIyICAgICAgYzAuMjEtMC4xNCwwLjMxLTAuMzQsMC4zMS0wLjYxYzAtMC4xNS0wLjAzLTAuMjctMC4xLTAuMzhjLTAuMDctMC4xMS0wLjE3LTAuMi0wLjI5LTAuMjljLTAuMTMtMC4wOS0wLjI4LTAuMTgtMC40NS0wLjI2ICAgICAgYy0wLjE2LTAuMDgtMC4zNS0wLjE2LTAuNTQtMC4yNWMtMC4yMS0wLjExLTAuNC0wLjIyLTAuNTgtMC4zNGMtMC4xOC0wLjExLTAuMzMtMC4yNC0wLjQ3LTAuMzdjLTAuMTMtMC4xNC0wLjIzLTAuMy0wLjMxLTAuNDcgICAgICBDMC4wNCwyOC40MiwwLDI4LjIxLDAsMjcuOThjMC0wLjI5LDAuMDYtMC41NCwwLjE5LTAuNzVjMC4xMy0wLjIxLDAuMy0wLjM5LDAuNTItMC41MmMwLjIxLTAuMTQsMC40NS0wLjI0LDAuNzItMC4zMSAgICAgIHMwLjU0LTAuMSwwLjgzLTAuMWMwLjYzLDAsMS4xLDAuMDcsMS4zOSwwLjIydjFjLTAuMzQtMC4yNS0wLjc5LTAuMzgtMS4zNC0wLjM4Yy0wLjE1LDAtMC4zLDAuMDItMC40NCwwLjA1ICAgICAgYy0wLjE1LDAuMDItMC4yOSwwLjA3LTAuNDEsMC4xNGMtMC4xMSwwLjA2LTAuMjEsMC4xNS0wLjI4LDAuMjVjLTAuMDgsMC4xLTAuMTEsMC4yMy0wLjExLDAuMzdjMCwwLjE0LDAuMDIsMC4yNSwwLjA4LDAuMzUgICAgICBjMC4wNiwwLjEsMC4xNCwwLjE5LDAuMjUsMC4yOGMwLjExLDAuMDgsMC4yNCwwLjE2LDAuNCwwLjI0czAuMzQsMC4xNiwwLjU1LDAuMjVjMC4yMSwwLjExLDAuNDEsMC4yMywwLjYsMC4zNSAgICAgIGMwLjE5LDAuMTIsMC4zNiwwLjI2LDAuNSwwLjQxYzAuMTUsMC4xNCwwLjI2LDAuMzEsMC4zNCwwLjQ5YzAuMDksMC4xOCwwLjEzLDAuMzgsMC4xMywwLjYyYzAsMC4zLTAuMDYsMC41Ny0wLjE5LDAuNzggICAgICBjLTAuMTIsMC4yMS0wLjI5LDAuMzktMC41LDAuNTJjLTAuMjIsMC4xMy0wLjQ2LDAuMjMtMC43NCwwLjI5Yy0wLjI3LDAuMDYtMC41NiwwLjA5LTAuODcsMC4wOWMtMC4xLDAtMC4yMy0wLjAxLTAuMzgtMC4wMiAgICAgIGMtMC4xNS0wLjAyLTAuMy0wLjA0LTAuNDUtMC4wN2MtMC4xNi0wLjAzLTAuMzEtMC4wNy0wLjQ1LTAuMTFDMC4yLDMyLjM4LDAuMDksMzIuMzMsMCwzMi4yN3oiLz4mI3hhOwkJCTwvZz4mI3hhOwkJCTxnIGlkPSJzaGFwZTU2ODAtMjAiIHRyYW5zZm9ybT0idHJhbnNsYXRlKDExLjA1ODMsLTAuMDAxMjQ3MjcpIj4mI3hhOwkJCQk8dGl0bGUgaWQ9InRpdGxlODc2OTEiPlNoZWV0LjU2ODA8L3RpdGxlPiYjeGE7CQkJCTxwYXRoIGlkPSJwYXRoODc2OTMiIGlua3NjYXBlOmNvbm5lY3Rvci1jdXJ2YXR1cmU9IjAiIHN0eWxlPSJmaWxsOiMzRTNFM0U7IiBkPSJNNS4xNiwzMi4xYy0wLjYzLDAuMzUtMS4zNCwwLjUyLTIuMTIsMC41MiAgICAgIGMtMC45MSwwLTEuNjQtMC4yOC0yLjItMC44NEMwLjI4LDMxLjIxLDAsMzAuNDcsMCwyOS41NGMwLTAuOTUsMC4zMS0xLjcyLDAuOTItMi4zM2MwLjYxLTAuNjEsMS4zOS0wLjkxLDIuMzMtMC45MSAgICAgIGMwLjY4LDAsMS4yNSwwLjEsMS43MiwwLjN2MS4wNGMtMC40Ny0wLjMxLTEuMDMtMC40Ni0xLjY4LTAuNDZzLTEuMTgsMC4yMS0xLjYsMC42NHMtMC42MiwwLjk4LTAuNjIsMS42NyAgICAgIGMwLDAuNywwLjE3LDEuMjUsMC41MywxLjY1czAuODUsMC42MSwxLjQ2LDAuNjFjMC40MiwwLDAuNzktMC4wOSwxLjA5LTAuMjV2LTEuNDVIMi44NlYyOS4yaDIuM0M1LjE2LDI5LjIsNS4xNiwzMi4xLDUuMTYsMzIuMSAgICAgIHoiLz4mI3hhOwkJCTwvZz4mI3hhOwkJPC9nPiYjeGE7CTwvZz4mI3hhOzwvZz4mI3hhOzwvc3ZnPg==;rounded=0;strokeColor=default;fontFamily=Helvetica;fontSize=12;fontColor=default;fillColor=default;html=1;" vertex="1" parent="1">
          <mxGeometry x="619.9999999999999" y="568.75" width="32.65" height="44" as="geometry" />
        </mxCell>
        <mxCell id="y8VJ0qSuv6ieIUMJYx79-149" value="" style="shape=image;verticalLabelPosition=bottom;labelBackgroundColor=#ffffff;verticalAlign=top;aspect=fixed;imageAspect=0;image=data:image/svg+xml,PHN2ZyB4bWxuczpjYz0iaHR0cDovL2NyZWF0aXZlY29tbW9ucy5vcmcvbnMjIiB4bWxuczpkYz0iaHR0cDovL3B1cmwub3JnL2RjL2VsZW1lbnRzLzEuMS8iIHhtbG5zOmlua3NjYXBlPSJodHRwOi8vd3d3Lmlua3NjYXBlLm9yZy9uYW1lc3BhY2VzL2lua3NjYXBlIiB4bWxuczpyZGY9Imh0dHA6Ly93d3cudzMub3JnLzE5OTkvMDIvMjItcmRmLXN5bnRheC1ucyMiIHhtbG5zOnNvZGlwb2RpPSJodHRwOi8vc29kaXBvZGkuc291cmNlZm9yZ2UubmV0L0RURC9zb2RpcG9kaS0wLmR0ZCIgeG1sbnM6c3ZnPSJodHRwOi8vd3d3LnczLm9yZy8yMDAwL3N2ZyIgeG1sbnM9Imh0dHA6Ly93d3cudzMub3JnLzIwMDAvc3ZnIiB4bWxuczp4bGluaz0iaHR0cDovL3d3dy53My5vcmcvMTk5OS94bGluayIgdmVyc2lvbj0iMS4xIiBpZD0ic3ZnODc3MDAiIGlua3NjYXBlOnZlcnNpb249IjAuOTIuMyAoMjQwNTU0NiwgMjAxOC0wMy0xMSkiIHNvZGlwb2RpOmRvY25hbWU9Im5ldHdvcmtfc2VjdXJpdHlfZ3JvdXAuc3ZnIiB4PSIwcHgiIHk9IjBweCIgdmlld0JveD0iMCAwIDIyLjgzIDMxLjEyIiBzdHlsZT0iZW5hYmxlLWJhY2tncm91bmQ6bmV3IDAgMCAyMi44MyAzMS4xMjsiIHhtbDpzcGFjZT0icHJlc2VydmUiPiYjeGE7PHNvZGlwb2RpOm5hbWVkdmlldyBib3JkZXJjb2xvcj0iIzY2NjY2NiIgYm9yZGVyb3BhY2l0eT0iMSIgZml0LW1hcmdpbi1ib3R0b209IjAiIGZpdC1tYXJnaW4tbGVmdD0iMCIgZml0LW1hcmdpbi1yaWdodD0iMCIgZml0LW1hcmdpbi10b3A9IjAiIGdyaWR0b2xlcmFuY2U9IjEwIiBndWlkZXRvbGVyYW5jZT0iMTAiIGlkPSJuYW1lZHZpZXc4NzcwMiIgaW5rc2NhcGU6Y3VycmVudC1sYXllcj0ic3ZnODc3MDAiIGlua3NjYXBlOmN4PSI3Ljc4MzU0ODIiIGlua3NjYXBlOmN5PSIxNi4yMjc2MjMiIGlua3NjYXBlOnBhZ2VvcGFjaXR5PSIwIiBpbmtzY2FwZTpwYWdlc2hhZG93PSIyIiBpbmtzY2FwZTp3aW5kb3ctaGVpZ2h0PSIxMDE3IiBpbmtzY2FwZTp3aW5kb3ctbWF4aW1pemVkPSIxIiBpbmtzY2FwZTp3aW5kb3ctd2lkdGg9IjE5MjAiIGlua3NjYXBlOndpbmRvdy14PSItOCIgaW5rc2NhcGU6d2luZG93LXk9Ii04IiBpbmtzY2FwZTp6b29tPSIxNC4wOTU3MzQiIG9iamVjdHRvbGVyYW5jZT0iMTAiIHBhZ2Vjb2xvcj0iI2ZmZmZmZiIgc2hvd2dyaWQ9ImZhbHNlIj4mI3hhOwk8L3NvZGlwb2RpOm5hbWVkdmlldz4mI3hhOzxnIGlkPSJnODc2OTgiIHRyYW5zZm9ybT0idHJhbnNsYXRlKC0wLjc1LC0wLjc1KSI+JiN4YTsJPHRpdGxlIGlkPSJ0aXRsZTg3NjQyIj5QYWdlLTE8L3RpdGxlPiYjeGE7CTxnIGlkPSJncm91cDU2NjktMSIgdHJhbnNmb3JtPSJ0cmFuc2xhdGUoMC43NSwtMC43NSkiPiYjeGE7CQk8dGl0bGUgaWQ9InRpdGxlODc2NDQiPk5ldHdvcmsgU2VjdXJpdHkgR3JvdXA8L3RpdGxlPiYjeGE7CQk8ZyBpZD0ic2hhcGU1NjcwLTIiPiYjeGE7CQkJPHRpdGxlIGlkPSJ0aXRsZTg3NjQ2Ij5TaGVldC41NjcwPC90aXRsZT4mI3hhOwkJCTxwYXRoIGlkPSJwYXRoODc2NDgiIGlua3NjYXBlOmNvbm5lY3Rvci1jdXJ2YXR1cmU9IjAiIHN0eWxlPSJmaWxsOiMzOTk5QzY7IiBkPSJNMTkuNDYsNS4yNEMxMi42LDQuNDksMTEuNDEsMS41LDExLjQxLDEuNSAgICAgUzkuODUsNS4zNywwLDUuMzd2MTUuOTZjMCwxLjkzLDEuMDYsMy43NCwyLjU2LDUuM2MzLjM2LDMuNTYsOC44NSw1Ljk5LDguODUsNS45OXMxMS40Mi00Ljk5LDExLjQyLTExLjI5VjUuMzcgICAgIEMyMS41OCw1LjM3LDIwLjQ2LDUuMywxOS40Niw1LjI0eiIvPiYjeGE7CQk8L2c+JiN4YTsJCTxnIGlkPSJzaGFwZTU2NzEtNCIgdHJhbnNmb3JtPSJ0cmFuc2xhdGUoMCwtNS45ODY5MikiPiYjeGE7CQkJPHRpdGxlIGlkPSJ0aXRsZTg3NjUxIj5TaGVldC41NjcxPC90aXRsZT4mI3hhOwkJCTxwYXRoIGlkPSJwYXRoODc2NTMiIGlua3NjYXBlOmNvbm5lY3Rvci1jdXJ2YXR1cmU9IjAiIHN0eWxlPSJmaWxsOiM1OUI0RDk7ZmlsbC1vcGFjaXR5OjAuNDsiIGQ9Ik0xNC4yOCwxNy43OGw1LjE4LTYuNTUgICAgIGMtNi44Ni0wLjc1LTguMDUtMy43NC04LjA1LTMuNzRTOS44NSwxMS4zNSwwLDExLjM1djE1Ljk3YzAsMS45MywxLjA2LDMuNzQsMi41Niw1LjNsMy44Ni00Ljg2TDE0LjI4LDE3Ljc4eiIvPiYjeGE7CQk8L2c+JiN4YTsJCTxnIGlkPSJncm91cDU2NzItNiIgdHJhbnNmb3JtPSJ0cmFuc2xhdGUoMi4zMDc0NiwtMy4xMTgxOSkiPiYjeGE7CQkJPHRpdGxlIGlkPSJ0aXRsZTg3NjU2Ij5TaGVldC41NjcyPC90aXRsZT4mI3hhOwkJCTxnIGlkPSJzaGFwZTU2NzMtNyIgdHJhbnNmb3JtPSJ0cmFuc2xhdGUoMC4wNjIzNjM3KSI+JiN4YTsJCQkJPHRpdGxlIGlkPSJ0aXRsZTg3NjU4Ij5TaGVldC41NjczPC90aXRsZT4mI3hhOwkJCQk8cGF0aCBpZD0icGF0aDg3NjYwIiBpbmtzY2FwZTpjb25uZWN0b3ItY3VydmF0dXJlPSIwIiBzdHlsZT0iZmlsbDojRkZGRkZGO2ZpbGwtb3BhY2l0eTowLjM7IiBkPSJNMCwxOS44M3YzLjgxICAgICAgYzAsMS41NiwwLjg3LDIuOTksMi4wNiw0LjI0YzIuNjgsMi44Nyw3LjA1LDQuNzQsNy4wNSw0Ljc0VjE5LjgzSDB6Ii8+JiN4YTsJCQk8L2c+JiN4YTsJCQk8ZyBpZD0ic2hhcGU1Njc0LTkiIHRyYW5zZm9ybT0idHJhbnNsYXRlKDkuMTA1MSkiPiYjeGE7CQkJCTx0aXRsZSBpZD0idGl0bGU4NzY2MyI+U2hlZXQuNTY3NDwvdGl0bGU+JiN4YTsJCQkJPHBhdGggaWQ9InBhdGg4NzY2NSIgaW5rc2NhcGU6Y29ubmVjdG9yLWN1cnZhdHVyZT0iMCIgc3R5bGU9ImZpbGw6I0ZGRkZGRjtmaWxsLW9wYWNpdHk6MC43OyIgZD0iTTAsMzIuNjIgICAgICBjMCwwLDkuMTEtMy45OSw5LjExLTguOTh2LTMuODFIMFYzMi42MnoiLz4mI3hhOwkJCTwvZz4mI3hhOwkJCTxnIGlkPSJzaGFwZTU2NzUtMTEiIHRyYW5zZm9ybT0idHJhbnNsYXRlKDAsLTEyLjc4NDYpIj4mI3hhOwkJCQk8dGl0bGUgaWQ9InRpdGxlODc2NjgiPlNoZWV0LjU2NzU8L3RpdGxlPiYjeGE7CQkJCTxwYXRoIGlkPSJwYXRoODc2NzAiIGlua3NjYXBlOmNvbm5lY3Rvci1jdXJ2YXR1cmU9IjAiIHN0eWxlPSJmaWxsOiNGRkZGRkY7ZmlsbC1vcGFjaXR5OjAuNzsiIGQ9Ik05LjExLDIwLjU4ICAgICAgYzAsMC0xLjI1LDMuMTItOS4xMSwzLjEydjguOTJoOS4xMVYyMC41OHoiLz4mI3hhOwkJCTwvZz4mI3hhOwkJCTxnIGlkPSJzaGFwZTU2NzYtMTMiIHRyYW5zZm9ybT0idHJhbnNsYXRlKDkuMTA1MSwtMTIuNzg0NikiPiYjeGE7CQkJCTx0aXRsZSBpZD0idGl0bGU4NzY3MyI+U2hlZXQuNTY3NjwvdGl0bGU+JiN4YTsJCQkJPHBhdGggaWQ9InBhdGg4NzY3NSIgaW5rc2NhcGU6Y29ubmVjdG9yLWN1cnZhdHVyZT0iMCIgc3R5bGU9ImZpbGw6I0ZGRkZGRjtmaWxsLW9wYWNpdHk6MC4zOyIgZD0iTTYuMzYsMjMuNTggICAgICBDMC45NCwyMi45NSwwLDIwLjY1LDAsMjAuNjV2MTEuOTdoOS4xMVYyMy43QzguMTEsMjMuNyw3LjE3LDIzLjY0LDYuMzYsMjMuNTh6Ii8+JiN4YTsJCQk8L2c+JiN4YTsJCTwvZz4mI3hhOwkJPGcgaWQ9Imdyb3VwNTY3Ny0xNSIgdHJhbnNmb3JtPSJ0cmFuc2xhdGUoMy4xMjQ0MiwtMTIuNzc0NikiPiYjeGE7CQkJPHRpdGxlIGlkPSJ0aXRsZTg3Njc5Ij5TaGVldC41Njc3PC90aXRsZT4mI3hhOwkJCTxnIGlkPSJzaGFwZTU2NzgtMTYiIHRyYW5zZm9ybT0idHJhbnNsYXRlKDAsLTAuMTAyOSkiPiYjeGE7CQkJCTx0aXRsZSBpZD0idGl0bGU4NzY4MSI+U2hlZXQuNTY3ODwvdGl0bGU+JiN4YTsJCQkJPHBhdGggaWQ9InBhdGg4NzY4MyIgaW5rc2NhcGU6Y29ubmVjdG9yLWN1cnZhdHVyZT0iMCIgc3R5bGU9ImZpbGw6IzNFM0UzRTsiIGQ9Ik01LjE4LDMyLjYyaC0xLjFsLTIuOTMtNC40OSAgICAgIGMtMC4wNy0wLjEyLTAuMTMtMC4yNC0wLjE4LTAuMzZIMC45NWMwLjAyLDAuMTMsMC4wMywwLjQxLDAuMDMsMC44NHY0LjAxSDB2LTYuMTFoMS4xOEw0LDMwLjg5YzAuMTIsMC4xOCwwLjIsMC4zMSwwLjIzLDAuMzggICAgICBoMC4wMmMtMC4wMy0wLjE2LTAuMDQtMC40NC0wLjA0LTAuODJ2LTMuOTRoMC45N0w1LjE4LDMyLjYyeiIvPiYjeGE7CQkJPC9nPiYjeGE7CQkJPGcgaWQ9InNoYXBlNTY3OS0xOCIgdHJhbnNmb3JtPSJ0cmFuc2xhdGUoNi40MTA5OSkiPiYjeGE7CQkJCTx0aXRsZSBpZD0idGl0bGU4NzY4NiI+U2hlZXQuNTY3OTwvdGl0bGU+JiN4YTsJCQkJPHBhdGggaWQ9InBhdGg4NzY4OCIgaW5rc2NhcGU6Y29ubmVjdG9yLWN1cnZhdHVyZT0iMCIgc3R5bGU9ImZpbGw6IzNFM0UzRTsiIGQ9Ik0wLDMyLjI3di0xLjA0YzAuMSwwLjA4LDAuMjEsMC4xNiwwLjM0LDAuMjMgICAgICBzMC4yNywwLjEyLDAuNDEsMC4xN2MwLjE1LDAuMDUsMC4yOSwwLjA4LDAuNDQsMC4xMWMwLjE0LDAuMDMsMC4yNywwLjA0LDAuNCwwLjA0YzAuNDIsMCwwLjc0LTAuMDcsMC45NS0wLjIyICAgICAgYzAuMjEtMC4xNCwwLjMxLTAuMzQsMC4zMS0wLjYxYzAtMC4xNS0wLjAzLTAuMjctMC4xLTAuMzhjLTAuMDctMC4xMS0wLjE3LTAuMi0wLjI5LTAuMjljLTAuMTMtMC4wOS0wLjI4LTAuMTgtMC40NS0wLjI2ICAgICAgYy0wLjE2LTAuMDgtMC4zNS0wLjE2LTAuNTQtMC4yNWMtMC4yMS0wLjExLTAuNC0wLjIyLTAuNTgtMC4zNGMtMC4xOC0wLjExLTAuMzMtMC4yNC0wLjQ3LTAuMzdjLTAuMTMtMC4xNC0wLjIzLTAuMy0wLjMxLTAuNDcgICAgICBDMC4wNCwyOC40MiwwLDI4LjIxLDAsMjcuOThjMC0wLjI5LDAuMDYtMC41NCwwLjE5LTAuNzVjMC4xMy0wLjIxLDAuMy0wLjM5LDAuNTItMC41MmMwLjIxLTAuMTQsMC40NS0wLjI0LDAuNzItMC4zMSAgICAgIHMwLjU0LTAuMSwwLjgzLTAuMWMwLjYzLDAsMS4xLDAuMDcsMS4zOSwwLjIydjFjLTAuMzQtMC4yNS0wLjc5LTAuMzgtMS4zNC0wLjM4Yy0wLjE1LDAtMC4zLDAuMDItMC40NCwwLjA1ICAgICAgYy0wLjE1LDAuMDItMC4yOSwwLjA3LTAuNDEsMC4xNGMtMC4xMSwwLjA2LTAuMjEsMC4xNS0wLjI4LDAuMjVjLTAuMDgsMC4xLTAuMTEsMC4yMy0wLjExLDAuMzdjMCwwLjE0LDAuMDIsMC4yNSwwLjA4LDAuMzUgICAgICBjMC4wNiwwLjEsMC4xNCwwLjE5LDAuMjUsMC4yOGMwLjExLDAuMDgsMC4yNCwwLjE2LDAuNCwwLjI0czAuMzQsMC4xNiwwLjU1LDAuMjVjMC4yMSwwLjExLDAuNDEsMC4yMywwLjYsMC4zNSAgICAgIGMwLjE5LDAuMTIsMC4zNiwwLjI2LDAuNSwwLjQxYzAuMTUsMC4xNCwwLjI2LDAuMzEsMC4zNCwwLjQ5YzAuMDksMC4xOCwwLjEzLDAuMzgsMC4xMywwLjYyYzAsMC4zLTAuMDYsMC41Ny0wLjE5LDAuNzggICAgICBjLTAuMTIsMC4yMS0wLjI5LDAuMzktMC41LDAuNTJjLTAuMjIsMC4xMy0wLjQ2LDAuMjMtMC43NCwwLjI5Yy0wLjI3LDAuMDYtMC41NiwwLjA5LTAuODcsMC4wOWMtMC4xLDAtMC4yMy0wLjAxLTAuMzgtMC4wMiAgICAgIGMtMC4xNS0wLjAyLTAuMy0wLjA0LTAuNDUtMC4wN2MtMC4xNi0wLjAzLTAuMzEtMC4wNy0wLjQ1LTAuMTFDMC4yLDMyLjM4LDAuMDksMzIuMzMsMCwzMi4yN3oiLz4mI3hhOwkJCTwvZz4mI3hhOwkJCTxnIGlkPSJzaGFwZTU2ODAtMjAiIHRyYW5zZm9ybT0idHJhbnNsYXRlKDExLjA1ODMsLTAuMDAxMjQ3MjcpIj4mI3hhOwkJCQk8dGl0bGUgaWQ9InRpdGxlODc2OTEiPlNoZWV0LjU2ODA8L3RpdGxlPiYjeGE7CQkJCTxwYXRoIGlkPSJwYXRoODc2OTMiIGlua3NjYXBlOmNvbm5lY3Rvci1jdXJ2YXR1cmU9IjAiIHN0eWxlPSJmaWxsOiMzRTNFM0U7IiBkPSJNNS4xNiwzMi4xYy0wLjYzLDAuMzUtMS4zNCwwLjUyLTIuMTIsMC41MiAgICAgIGMtMC45MSwwLTEuNjQtMC4yOC0yLjItMC44NEMwLjI4LDMxLjIxLDAsMzAuNDcsMCwyOS41NGMwLTAuOTUsMC4zMS0xLjcyLDAuOTItMi4zM2MwLjYxLTAuNjEsMS4zOS0wLjkxLDIuMzMtMC45MSAgICAgIGMwLjY4LDAsMS4yNSwwLjEsMS43MiwwLjN2MS4wNGMtMC40Ny0wLjMxLTEuMDMtMC40Ni0xLjY4LTAuNDZzLTEuMTgsMC4yMS0xLjYsMC42NHMtMC42MiwwLjk4LTAuNjIsMS42NyAgICAgIGMwLDAuNywwLjE3LDEuMjUsMC41MywxLjY1czAuODUsMC42MSwxLjQ2LDAuNjFjMC40MiwwLDAuNzktMC4wOSwxLjA5LTAuMjV2LTEuNDVIMi44NlYyOS4yaDIuM0M1LjE2LDI5LjIsNS4xNiwzMi4xLDUuMTYsMzIuMSAgICAgIHoiLz4mI3hhOwkJCTwvZz4mI3hhOwkJPC9nPiYjeGE7CTwvZz4mI3hhOzwvZz4mI3hhOzwvc3ZnPg==;rounded=0;strokeColor=default;fontFamily=Helvetica;fontSize=12;fontColor=default;fillColor=default;html=1;" vertex="1" parent="1">
          <mxGeometry x="1007" y="820" width="32.65" height="44" as="geometry" />
        </mxCell>
        <mxCell id="y8VJ0qSuv6ieIUMJYx79-150" value="" style="shape=image;verticalLabelPosition=bottom;labelBackgroundColor=#ffffff;verticalAlign=top;aspect=fixed;imageAspect=0;image=data:image/svg+xml,PHN2ZyB4bWxuczpjYz0iaHR0cDovL2NyZWF0aXZlY29tbW9ucy5vcmcvbnMjIiB4bWxuczpkYz0iaHR0cDovL3B1cmwub3JnL2RjL2VsZW1lbnRzLzEuMS8iIHhtbG5zOmlua3NjYXBlPSJodHRwOi8vd3d3Lmlua3NjYXBlLm9yZy9uYW1lc3BhY2VzL2lua3NjYXBlIiB4bWxuczpyZGY9Imh0dHA6Ly93d3cudzMub3JnLzE5OTkvMDIvMjItcmRmLXN5bnRheC1ucyMiIHhtbG5zOnNvZGlwb2RpPSJodHRwOi8vc29kaXBvZGkuc291cmNlZm9yZ2UubmV0L0RURC9zb2RpcG9kaS0wLmR0ZCIgeG1sbnM6c3ZnPSJodHRwOi8vd3d3LnczLm9yZy8yMDAwL3N2ZyIgeG1sbnM9Imh0dHA6Ly93d3cudzMub3JnLzIwMDAvc3ZnIiB4bWxuczp4bGluaz0iaHR0cDovL3d3dy53My5vcmcvMTk5OS94bGluayIgdmVyc2lvbj0iMS4xIiBpZD0ic3ZnODc3MDAiIGlua3NjYXBlOnZlcnNpb249IjAuOTIuMyAoMjQwNTU0NiwgMjAxOC0wMy0xMSkiIHNvZGlwb2RpOmRvY25hbWU9Im5ldHdvcmtfc2VjdXJpdHlfZ3JvdXAuc3ZnIiB4PSIwcHgiIHk9IjBweCIgdmlld0JveD0iMCAwIDIyLjgzIDMxLjEyIiBzdHlsZT0iZW5hYmxlLWJhY2tncm91bmQ6bmV3IDAgMCAyMi44MyAzMS4xMjsiIHhtbDpzcGFjZT0icHJlc2VydmUiPiYjeGE7PHNvZGlwb2RpOm5hbWVkdmlldyBib3JkZXJjb2xvcj0iIzY2NjY2NiIgYm9yZGVyb3BhY2l0eT0iMSIgZml0LW1hcmdpbi1ib3R0b209IjAiIGZpdC1tYXJnaW4tbGVmdD0iMCIgZml0LW1hcmdpbi1yaWdodD0iMCIgZml0LW1hcmdpbi10b3A9IjAiIGdyaWR0b2xlcmFuY2U9IjEwIiBndWlkZXRvbGVyYW5jZT0iMTAiIGlkPSJuYW1lZHZpZXc4NzcwMiIgaW5rc2NhcGU6Y3VycmVudC1sYXllcj0ic3ZnODc3MDAiIGlua3NjYXBlOmN4PSI3Ljc4MzU0ODIiIGlua3NjYXBlOmN5PSIxNi4yMjc2MjMiIGlua3NjYXBlOnBhZ2VvcGFjaXR5PSIwIiBpbmtzY2FwZTpwYWdlc2hhZG93PSIyIiBpbmtzY2FwZTp3aW5kb3ctaGVpZ2h0PSIxMDE3IiBpbmtzY2FwZTp3aW5kb3ctbWF4aW1pemVkPSIxIiBpbmtzY2FwZTp3aW5kb3ctd2lkdGg9IjE5MjAiIGlua3NjYXBlOndpbmRvdy14PSItOCIgaW5rc2NhcGU6d2luZG93LXk9Ii04IiBpbmtzY2FwZTp6b29tPSIxNC4wOTU3MzQiIG9iamVjdHRvbGVyYW5jZT0iMTAiIHBhZ2Vjb2xvcj0iI2ZmZmZmZiIgc2hvd2dyaWQ9ImZhbHNlIj4mI3hhOwk8L3NvZGlwb2RpOm5hbWVkdmlldz4mI3hhOzxnIGlkPSJnODc2OTgiIHRyYW5zZm9ybT0idHJhbnNsYXRlKC0wLjc1LC0wLjc1KSI+JiN4YTsJPHRpdGxlIGlkPSJ0aXRsZTg3NjQyIj5QYWdlLTE8L3RpdGxlPiYjeGE7CTxnIGlkPSJncm91cDU2NjktMSIgdHJhbnNmb3JtPSJ0cmFuc2xhdGUoMC43NSwtMC43NSkiPiYjeGE7CQk8dGl0bGUgaWQ9InRpdGxlODc2NDQiPk5ldHdvcmsgU2VjdXJpdHkgR3JvdXA8L3RpdGxlPiYjeGE7CQk8ZyBpZD0ic2hhcGU1NjcwLTIiPiYjeGE7CQkJPHRpdGxlIGlkPSJ0aXRsZTg3NjQ2Ij5TaGVldC41NjcwPC90aXRsZT4mI3hhOwkJCTxwYXRoIGlkPSJwYXRoODc2NDgiIGlua3NjYXBlOmNvbm5lY3Rvci1jdXJ2YXR1cmU9IjAiIHN0eWxlPSJmaWxsOiMzOTk5QzY7IiBkPSJNMTkuNDYsNS4yNEMxMi42LDQuNDksMTEuNDEsMS41LDExLjQxLDEuNSAgICAgUzkuODUsNS4zNywwLDUuMzd2MTUuOTZjMCwxLjkzLDEuMDYsMy43NCwyLjU2LDUuM2MzLjM2LDMuNTYsOC44NSw1Ljk5LDguODUsNS45OXMxMS40Mi00Ljk5LDExLjQyLTExLjI5VjUuMzcgICAgIEMyMS41OCw1LjM3LDIwLjQ2LDUuMywxOS40Niw1LjI0eiIvPiYjeGE7CQk8L2c+JiN4YTsJCTxnIGlkPSJzaGFwZTU2NzEtNCIgdHJhbnNmb3JtPSJ0cmFuc2xhdGUoMCwtNS45ODY5MikiPiYjeGE7CQkJPHRpdGxlIGlkPSJ0aXRsZTg3NjUxIj5TaGVldC41NjcxPC90aXRsZT4mI3hhOwkJCTxwYXRoIGlkPSJwYXRoODc2NTMiIGlua3NjYXBlOmNvbm5lY3Rvci1jdXJ2YXR1cmU9IjAiIHN0eWxlPSJmaWxsOiM1OUI0RDk7ZmlsbC1vcGFjaXR5OjAuNDsiIGQ9Ik0xNC4yOCwxNy43OGw1LjE4LTYuNTUgICAgIGMtNi44Ni0wLjc1LTguMDUtMy43NC04LjA1LTMuNzRTOS44NSwxMS4zNSwwLDExLjM1djE1Ljk3YzAsMS45MywxLjA2LDMuNzQsMi41Niw1LjNsMy44Ni00Ljg2TDE0LjI4LDE3Ljc4eiIvPiYjeGE7CQk8L2c+JiN4YTsJCTxnIGlkPSJncm91cDU2NzItNiIgdHJhbnNmb3JtPSJ0cmFuc2xhdGUoMi4zMDc0NiwtMy4xMTgxOSkiPiYjeGE7CQkJPHRpdGxlIGlkPSJ0aXRsZTg3NjU2Ij5TaGVldC41NjcyPC90aXRsZT4mI3hhOwkJCTxnIGlkPSJzaGFwZTU2NzMtNyIgdHJhbnNmb3JtPSJ0cmFuc2xhdGUoMC4wNjIzNjM3KSI+JiN4YTsJCQkJPHRpdGxlIGlkPSJ0aXRsZTg3NjU4Ij5TaGVldC41NjczPC90aXRsZT4mI3hhOwkJCQk8cGF0aCBpZD0icGF0aDg3NjYwIiBpbmtzY2FwZTpjb25uZWN0b3ItY3VydmF0dXJlPSIwIiBzdHlsZT0iZmlsbDojRkZGRkZGO2ZpbGwtb3BhY2l0eTowLjM7IiBkPSJNMCwxOS44M3YzLjgxICAgICAgYzAsMS41NiwwLjg3LDIuOTksMi4wNiw0LjI0YzIuNjgsMi44Nyw3LjA1LDQuNzQsNy4wNSw0Ljc0VjE5LjgzSDB6Ii8+JiN4YTsJCQk8L2c+JiN4YTsJCQk8ZyBpZD0ic2hhcGU1Njc0LTkiIHRyYW5zZm9ybT0idHJhbnNsYXRlKDkuMTA1MSkiPiYjeGE7CQkJCTx0aXRsZSBpZD0idGl0bGU4NzY2MyI+U2hlZXQuNTY3NDwvdGl0bGU+JiN4YTsJCQkJPHBhdGggaWQ9InBhdGg4NzY2NSIgaW5rc2NhcGU6Y29ubmVjdG9yLWN1cnZhdHVyZT0iMCIgc3R5bGU9ImZpbGw6I0ZGRkZGRjtmaWxsLW9wYWNpdHk6MC43OyIgZD0iTTAsMzIuNjIgICAgICBjMCwwLDkuMTEtMy45OSw5LjExLTguOTh2LTMuODFIMFYzMi42MnoiLz4mI3hhOwkJCTwvZz4mI3hhOwkJCTxnIGlkPSJzaGFwZTU2NzUtMTEiIHRyYW5zZm9ybT0idHJhbnNsYXRlKDAsLTEyLjc4NDYpIj4mI3hhOwkJCQk8dGl0bGUgaWQ9InRpdGxlODc2NjgiPlNoZWV0LjU2NzU8L3RpdGxlPiYjeGE7CQkJCTxwYXRoIGlkPSJwYXRoODc2NzAiIGlua3NjYXBlOmNvbm5lY3Rvci1jdXJ2YXR1cmU9IjAiIHN0eWxlPSJmaWxsOiNGRkZGRkY7ZmlsbC1vcGFjaXR5OjAuNzsiIGQ9Ik05LjExLDIwLjU4ICAgICAgYzAsMC0xLjI1LDMuMTItOS4xMSwzLjEydjguOTJoOS4xMVYyMC41OHoiLz4mI3hhOwkJCTwvZz4mI3hhOwkJCTxnIGlkPSJzaGFwZTU2NzYtMTMiIHRyYW5zZm9ybT0idHJhbnNsYXRlKDkuMTA1MSwtMTIuNzg0NikiPiYjeGE7CQkJCTx0aXRsZSBpZD0idGl0bGU4NzY3MyI+U2hlZXQuNTY3NjwvdGl0bGU+JiN4YTsJCQkJPHBhdGggaWQ9InBhdGg4NzY3NSIgaW5rc2NhcGU6Y29ubmVjdG9yLWN1cnZhdHVyZT0iMCIgc3R5bGU9ImZpbGw6I0ZGRkZGRjtmaWxsLW9wYWNpdHk6MC4zOyIgZD0iTTYuMzYsMjMuNTggICAgICBDMC45NCwyMi45NSwwLDIwLjY1LDAsMjAuNjV2MTEuOTdoOS4xMVYyMy43QzguMTEsMjMuNyw3LjE3LDIzLjY0LDYuMzYsMjMuNTh6Ii8+JiN4YTsJCQk8L2c+JiN4YTsJCTwvZz4mI3hhOwkJPGcgaWQ9Imdyb3VwNTY3Ny0xNSIgdHJhbnNmb3JtPSJ0cmFuc2xhdGUoMy4xMjQ0MiwtMTIuNzc0NikiPiYjeGE7CQkJPHRpdGxlIGlkPSJ0aXRsZTg3Njc5Ij5TaGVldC41Njc3PC90aXRsZT4mI3hhOwkJCTxnIGlkPSJzaGFwZTU2NzgtMTYiIHRyYW5zZm9ybT0idHJhbnNsYXRlKDAsLTAuMTAyOSkiPiYjeGE7CQkJCTx0aXRsZSBpZD0idGl0bGU4NzY4MSI+U2hlZXQuNTY3ODwvdGl0bGU+JiN4YTsJCQkJPHBhdGggaWQ9InBhdGg4NzY4MyIgaW5rc2NhcGU6Y29ubmVjdG9yLWN1cnZhdHVyZT0iMCIgc3R5bGU9ImZpbGw6IzNFM0UzRTsiIGQ9Ik01LjE4LDMyLjYyaC0xLjFsLTIuOTMtNC40OSAgICAgIGMtMC4wNy0wLjEyLTAuMTMtMC4yNC0wLjE4LTAuMzZIMC45NWMwLjAyLDAuMTMsMC4wMywwLjQxLDAuMDMsMC44NHY0LjAxSDB2LTYuMTFoMS4xOEw0LDMwLjg5YzAuMTIsMC4xOCwwLjIsMC4zMSwwLjIzLDAuMzggICAgICBoMC4wMmMtMC4wMy0wLjE2LTAuMDQtMC40NC0wLjA0LTAuODJ2LTMuOTRoMC45N0w1LjE4LDMyLjYyeiIvPiYjeGE7CQkJPC9nPiYjeGE7CQkJPGcgaWQ9InNoYXBlNTY3OS0xOCIgdHJhbnNmb3JtPSJ0cmFuc2xhdGUoNi40MTA5OSkiPiYjeGE7CQkJCTx0aXRsZSBpZD0idGl0bGU4NzY4NiI+U2hlZXQuNTY3OTwvdGl0bGU+JiN4YTsJCQkJPHBhdGggaWQ9InBhdGg4NzY4OCIgaW5rc2NhcGU6Y29ubmVjdG9yLWN1cnZhdHVyZT0iMCIgc3R5bGU9ImZpbGw6IzNFM0UzRTsiIGQ9Ik0wLDMyLjI3di0xLjA0YzAuMSwwLjA4LDAuMjEsMC4xNiwwLjM0LDAuMjMgICAgICBzMC4yNywwLjEyLDAuNDEsMC4xN2MwLjE1LDAuMDUsMC4yOSwwLjA4LDAuNDQsMC4xMWMwLjE0LDAuMDMsMC4yNywwLjA0LDAuNCwwLjA0YzAuNDIsMCwwLjc0LTAuMDcsMC45NS0wLjIyICAgICAgYzAuMjEtMC4xNCwwLjMxLTAuMzQsMC4zMS0wLjYxYzAtMC4xNS0wLjAzLTAuMjctMC4xLTAuMzhjLTAuMDctMC4xMS0wLjE3LTAuMi0wLjI5LTAuMjljLTAuMTMtMC4wOS0wLjI4LTAuMTgtMC40NS0wLjI2ICAgICAgYy0wLjE2LTAuMDgtMC4zNS0wLjE2LTAuNTQtMC4yNWMtMC4yMS0wLjExLTAuNC0wLjIyLTAuNTgtMC4zNGMtMC4xOC0wLjExLTAuMzMtMC4yNC0wLjQ3LTAuMzdjLTAuMTMtMC4xNC0wLjIzLTAuMy0wLjMxLTAuNDcgICAgICBDMC4wNCwyOC40MiwwLDI4LjIxLDAsMjcuOThjMC0wLjI5LDAuMDYtMC41NCwwLjE5LTAuNzVjMC4xMy0wLjIxLDAuMy0wLjM5LDAuNTItMC41MmMwLjIxLTAuMTQsMC40NS0wLjI0LDAuNzItMC4zMSAgICAgIHMwLjU0LTAuMSwwLjgzLTAuMWMwLjYzLDAsMS4xLDAuMDcsMS4zOSwwLjIydjFjLTAuMzQtMC4yNS0wLjc5LTAuMzgtMS4zNC0wLjM4Yy0wLjE1LDAtMC4zLDAuMDItMC40NCwwLjA1ICAgICAgYy0wLjE1LDAuMDItMC4yOSwwLjA3LTAuNDEsMC4xNGMtMC4xMSwwLjA2LTAuMjEsMC4xNS0wLjI4LDAuMjVjLTAuMDgsMC4xLTAuMTEsMC4yMy0wLjExLDAuMzdjMCwwLjE0LDAuMDIsMC4yNSwwLjA4LDAuMzUgICAgICBjMC4wNiwwLjEsMC4xNCwwLjE5LDAuMjUsMC4yOGMwLjExLDAuMDgsMC4yNCwwLjE2LDAuNCwwLjI0czAuMzQsMC4xNiwwLjU1LDAuMjVjMC4yMSwwLjExLDAuNDEsMC4yMywwLjYsMC4zNSAgICAgIGMwLjE5LDAuMTIsMC4zNiwwLjI2LDAuNSwwLjQxYzAuMTUsMC4xNCwwLjI2LDAuMzEsMC4zNCwwLjQ5YzAuMDksMC4xOCwwLjEzLDAuMzgsMC4xMywwLjYyYzAsMC4zLTAuMDYsMC41Ny0wLjE5LDAuNzggICAgICBjLTAuMTIsMC4yMS0wLjI5LDAuMzktMC41LDAuNTJjLTAuMjIsMC4xMy0wLjQ2LDAuMjMtMC43NCwwLjI5Yy0wLjI3LDAuMDYtMC41NiwwLjA5LTAuODcsMC4wOWMtMC4xLDAtMC4yMy0wLjAxLTAuMzgtMC4wMiAgICAgIGMtMC4xNS0wLjAyLTAuMy0wLjA0LTAuNDUtMC4wN2MtMC4xNi0wLjAzLTAuMzEtMC4wNy0wLjQ1LTAuMTFDMC4yLDMyLjM4LDAuMDksMzIuMzMsMCwzMi4yN3oiLz4mI3hhOwkJCTwvZz4mI3hhOwkJCTxnIGlkPSJzaGFwZTU2ODAtMjAiIHRyYW5zZm9ybT0idHJhbnNsYXRlKDExLjA1ODMsLTAuMDAxMjQ3MjcpIj4mI3hhOwkJCQk8dGl0bGUgaWQ9InRpdGxlODc2OTEiPlNoZWV0LjU2ODA8L3RpdGxlPiYjeGE7CQkJCTxwYXRoIGlkPSJwYXRoODc2OTMiIGlua3NjYXBlOmNvbm5lY3Rvci1jdXJ2YXR1cmU9IjAiIHN0eWxlPSJmaWxsOiMzRTNFM0U7IiBkPSJNNS4xNiwzMi4xYy0wLjYzLDAuMzUtMS4zNCwwLjUyLTIuMTIsMC41MiAgICAgIGMtMC45MSwwLTEuNjQtMC4yOC0yLjItMC44NEMwLjI4LDMxLjIxLDAsMzAuNDcsMCwyOS41NGMwLTAuOTUsMC4zMS0xLjcyLDAuOTItMi4zM2MwLjYxLTAuNjEsMS4zOS0wLjkxLDIuMzMtMC45MSAgICAgIGMwLjY4LDAsMS4yNSwwLjEsMS43MiwwLjN2MS4wNGMtMC40Ny0wLjMxLTEuMDMtMC40Ni0xLjY4LTAuNDZzLTEuMTgsMC4yMS0xLjYsMC42NHMtMC42MiwwLjk4LTAuNjIsMS42NyAgICAgIGMwLDAuNywwLjE3LDEuMjUsMC41MywxLjY1czAuODUsMC42MSwxLjQ2LDAuNjFjMC40MiwwLDAuNzktMC4wOSwxLjA5LTAuMjV2LTEuNDVIMi44NlYyOS4yaDIuM0M1LjE2LDI5LjIsNS4xNiwzMi4xLDUuMTYsMzIuMSAgICAgIHoiLz4mI3hhOwkJCTwvZz4mI3hhOwkJPC9nPiYjeGE7CTwvZz4mI3hhOzwvZz4mI3hhOzwvc3ZnPg==;rounded=0;strokeColor=default;fontFamily=Helvetica;fontSize=12;fontColor=default;fillColor=default;html=1;" vertex="1" parent="1">
          <mxGeometry x="1208" y="460" width="32.65" height="44" as="geometry" />
        </mxCell>
      </root>
    </mxGraphModel>
  </diagram>
</mxfile>
